<?xml version="1.0" standalone="no"?><!DOCTYPE svg PUBLIC "-//W3C//DTD SVG 1.1//EN" "http://www.w3.org/Graphics/SVG/1.1/DTD/svg11.dtd"><svg viewBox="0 0 1024 1024" version="1.1" xmlns="http://www.w3.org/2000/svg" width="200" height="200" t="1775110619604" class="icon" p-id="47145975" xmlns:xlink="http://www.w3.org/1999/xlink"><path d="M737.834667 268.501333l-170.666667 170.666667a42.666667 42.666667 0 0 0 0 60.330667 42.666667 42.666667 0 0 0 60.330667 0L768 358.997333l140.501333 140.501334a42.666667 42.666667 0 0 0 60.330667 0 42.666667 42.666667 0 0 0 0-60.330667l-170.666667-170.666667a42.666667 42.666667 0 0 0-60.330666 0z" fill="#000000" p-id="47145976"/><path d="M768 256a42.666667 42.666667 0 0 0-42.666667 42.666667v384a42.666667 42.666667 0 0 0 42.666667 42.666666 42.666667 42.666667 0 0 0 42.666667-42.666666V298.666667a42.666667 42.666667 0 0 0-42.666667-42.666667zM277.333333 213.418667c-23.552 0-48.810667 14.805333-59.093333 39.424l-172.330667 413.44a42.666667 42.666667 0 0 0 23.04 55.808 42.666667 42.666667 0 0 0 55.808-23.04L277.333333 332.970667l152.576 366.165333a42.666667 42.666667 0 0 0 55.850667 22.997333 42.666667 42.666667 0 0 0 22.997333-55.850666l-172.373333-413.44A65.621333 65.621333 0 0 0 277.333333 213.461333z" fill="#000000" p-id="47145977"/><path d="M141.013333 512a42.666667 42.666667 0 0 0-42.666666 42.666667 42.666667 42.666667 0 0 0 42.666666 42.666666h272.64a42.666667 42.666667 0 0 0 42.666667-42.666666 42.666667 42.666667 0 0 0-42.666667-42.666667z" fill="#000000" p-id="47145978"/></svg>