<?xml version="1.0" standalone="no"?><!DOCTYPE svg PUBLIC "-//W3C//DTD SVG 1.1//EN" "http://www.w3.org/Graphics/SVG/1.1/DTD/svg11.dtd"><svg viewBox="0 0 1024 1024" version="1.1" xmlns="http://www.w3.org/2000/svg" width="200" height="200" t="1775110619604" class="icon" p-id="47145974" xmlns:xlink="http://www.w3.org/1999/xlink"><path d="M384 42.666667c-21.034667 0-44.458667 15.488-51.2 38.4a42.666667 42.666667 0 0 0-0.128 0.426666l-100.266667 356.693334a42.368 42.368 0 0 1-40.96 31.146666H85.333333a42.666667 42.666667 0 0 0-42.666666 42.666667 42.666667 42.666667 0 0 0 42.666666 42.666667h106.24a42.666667 42.666667 0 0 0 0.085334 0 128.384 128.384 0 0 0 122.922666-93.44L384 214.272l204.672 728.277333a42.666667 42.666667 0 0 0 0.170667 0.426667c6.698667 22.912 30.122667 38.4 51.157333 38.4 21.034667 0 44.458667-15.488 51.2-38.4a42.666667 42.666667 0 0 0 0.128-0.426667l100.266667-356.693333a42.325333 42.325333 0 0 1 41.173333-31.146667 42.666667 42.666667 0 0 0 0.085333 0H938.666667a42.666667 42.666667 0 0 0 42.666666-42.666666 42.666667 42.666667 0 0 0-42.666666-42.666667h-105.856a128.298667 128.298667 0 0 0-123.392 93.44L640 809.728 435.328 81.493333a42.666667 42.666667 0 0 0-0.170667-0.426666C428.458667 58.154667 405.034667 42.666667 384 42.666667z" fill="#000000" p-id="47145975"/></svg>