<?xml version="1.0" encoding="UTF-8"?>
<svg class="icon" viewBox="0 0 1024 1024" version="1.1" xmlns="http://www.w3.org/2000/svg" p-id="2767" width="1024" height="1024"><path d="M512 896A384 384 0 1 0 512 127.936 384 384 0 0 0 512 896z m0 64A448 448 0 1 1 512 64a448 448 0 0 1 0 896z" fill="#383838" p-id="2768"></path><path d="M512 96a32 32 0 0 1 32 32v192a32 32 0 1 1-64 0V128a32 32 0 0 1 32-32z m0 576a32 32 0 0 1 32 32v192a32 32 0 0 1-64 0v-192a32 32 0 0 1 32-32zM96 512a32 32 0 0 1 32-32h192a32 32 0 1 1 0 64H128a32 32 0 0 1-32-32z m576 0a32 32 0 0 1 32-32h192a32 32 0 0 1 0 64h-192a32 32 0 0 1-32-32z" fill="#383838" p-id="2769"></path></svg>