<?xml version="1.0" standalone="no"?><!DOCTYPE svg PUBLIC "-//W3C//DTD SVG 1.1//EN" "http://www.w3.org/Graphics/SVG/1.1/DTD/svg11.dtd"><svg viewBox="0 0 1024 1024" version="1.1" xmlns="http://www.w3.org/2000/svg" width="200" height="200" t="1775110619604" class="icon" p-id="47145977" xmlns:xlink="http://www.w3.org/1999/xlink"><path d="M512 170.666667c-211.584 0-384 172.416-384 384s172.416 384 384 384 384-172.416 384-384-172.416-384-384-384z m0 85.333333c165.461333 0 298.666667 133.205333 298.666667 298.666667s-133.205333 298.666667-298.666667 298.666666-298.666667-133.205333-298.666667-298.666666 133.205333-298.666667 298.666667-298.666667zM213.333333 85.333333a42.666667 42.666667 0 0 0-30.165333 12.501334l-128 128a42.666667 42.666667 0 0 0 0 60.330666 42.666667 42.666667 0 0 0 60.330667 0l128-128a42.666667 42.666667 0 0 0 0-60.330666A42.666667 42.666667 0 0 0 213.333333 85.333333zM780.501333 97.834667a42.666667 42.666667 0 0 0 0 60.330666l128 128a42.666667 42.666667 0 0 0 60.330667 0 42.666667 42.666667 0 0 0 0-60.330666l-128-128a42.666667 42.666667 0 0 0-60.330667 0z" fill="#000000" p-id="47145978"/><path d="M242.602667 767.146667l-101.589334 98.176a42.666667 42.666667 0 0 0-1.024 60.330666 42.666667 42.666667 0 0 0 60.330667 1.024l101.546667-98.133333a42.666667 42.666667 0 0 0 1.066666-60.288 42.666667 42.666667 0 0 0-60.330666-1.109333zM782.592 766.250667a42.666667 42.666667 0 0 0-60.330667 0.341333 42.666667 42.666667 0 0 0 0.426667 60.330667l100.650667 99.413333a42.666667 42.666667 0 0 0 60.330666-0.341333 42.666667 42.666667 0 0 0-0.341333-60.330667zM384 512a42.666667 42.666667 0 0 0-42.666667 42.666667 42.666667 42.666667 0 0 0 42.666667 42.666666h256a42.666667 42.666667 0 0 0 42.666667-42.666666 42.666667 42.666667 0 0 0-42.666667-42.666667z" fill="#000000" p-id="47145979"/></svg>