<?xml version="1.0" encoding="UTF-8"?>
<svg class="icon" viewBox="0 0 1024 1024" version="1.1" xmlns="http://www.w3.org/2000/svg" p-id="4315" width="1024" height="1024"><path d="M512 832A320 320 0 1 0 512 192a320 320 0 0 0 0 640z m0 64A384 384 0 1 1 512 127.936 384 384 0 0 1 512 896z" fill="#383838" p-id="4316"></path><path d="M292.48 824.576l55.424 32-48 83.136a32 32 0 1 1-55.424-32l48-83.136z m439.424 0l-55.424 32 48 83.136a32 32 0 1 0 55.424-32l-48-83.136zM512.192 512h160a32 32 0 1 1 0 64h-192a32 32 0 0 1-32-32V320a32 32 0 0 1 64 0v192zM90.688 312.256a160 160 0 0 1 221.824-221.76l-46.848 46.848a96 96 0 0 0-128 128l-46.912 46.912h-0.064z m835.2 0a160 160 0 0 0-221.696-221.76l46.848 46.848a96 96 0 0 1 128 128l46.912 46.912z" fill="#383838" p-id="4317"></path></svg>