<?xml version="1.0" standalone="no"?><!DOCTYPE svg PUBLIC "-//W3C//DTD SVG 1.1//EN" "http://www.w3.org/Graphics/SVG/1.1/DTD/svg11.dtd"><svg viewBox="0 0 1024 1024" version="1.1" xmlns="http://www.w3.org/2000/svg" width="200" height="200" t="1775110619607" class="icon" p-id="47146001" xmlns:xlink="http://www.w3.org/1999/xlink"><path d="M512 42.666667a42.666667 42.666667 0 0 0-42.666667 42.666666v853.333334a42.666667 42.666667 0 0 0 42.666667 42.666666 42.666667 42.666667 0 0 0 42.666667-42.666666V85.333333a42.666667 42.666667 0 0 0-42.666667-42.666666zM170.666667 128C100.48 128 42.666667 185.813333 42.666667 256v85.333333c0 70.186667 57.813333 128 128 128h170.666666a42.666667 42.666667 0 0 0 42.666667-42.666666 42.666667 42.666667 0 0 0-42.666667-42.666667H170.666667c-24.064 0-42.666667-18.602667-42.666667-42.666667V256c0-23.68 18.986667-42.666667 42.666667-42.666667h170.666666a42.666667 42.666667 0 0 0 42.666667-42.666666 42.666667 42.666667 0 0 0-42.666667-42.666667zM682.666667 128a42.666667 42.666667 0 0 0-42.666667 42.666667 42.666667 42.666667 0 0 0 42.666667 42.666666h170.666666c24.064 0 42.666667 18.602667 42.666667 42.666667v85.333333c0 24.064-18.602667 42.666667-42.666667 42.666667h-170.666666a42.666667 42.666667 0 0 0-42.666667 42.666667 42.666667 42.666667 0 0 0 42.666667 42.666666h170.666666c70.186667 0 128-57.813333 128-128V256c0-70.186667-57.813333-128-128-128zM298.666667 554.666667c-70.186667 0-128 57.813333-128 128v85.333333c0 70.186667 57.813333 128 128 128h42.666666a42.666667 42.666667 0 0 0 42.666667-42.666667 42.666667 42.666667 0 0 0-42.666667-42.666666H298.666667c-24.064 0-42.666667-18.602667-42.666667-42.666667v-85.333333c0-23.68 18.986667-42.666667 42.666667-42.666667h42.666666a42.666667 42.666667 0 0 0 42.666667-42.666667 42.666667 42.666667 0 0 0-42.666667-42.666666zM682.666667 554.666667a42.666667 42.666667 0 0 0-42.666667 42.666666 42.666667 42.666667 0 0 0 42.666667 42.666667h42.666666c24.064 0 42.666667 18.602667 42.666667 42.666667v85.333333c0 24.064-18.602667 42.666667-42.666667 42.666667h-42.666666a42.666667 42.666667 0 0 0-42.666667 42.666666 42.666667 42.666667 0 0 0 42.666667 42.666667h42.666666c70.186667 0 128-57.813333 128-128v-85.333333c0-70.186667-57.813333-128-128-128z" fill="#000000" p-id="47146002"/></svg>