<?xml version="1.0" standalone="no"?><!DOCTYPE svg PUBLIC "-//W3C//DTD SVG 1.1//EN" "http://www.w3.org/Graphics/SVG/1.1/DTD/svg11.dtd"><svg viewBox="0 0 1024 1024" version="1.1" xmlns="http://www.w3.org/2000/svg" width="200" height="200" t="1775110619606" class="icon" p-id="47145999" xmlns:xlink="http://www.w3.org/1999/xlink"><path d="M298.666667 597.333333c-70.186667 0-128 57.813333-128 128v85.333334c0 70.186667 57.813333 128 128 128h426.666666c70.186667 0 128-57.813333 128-128v-85.333334c0-70.186667-57.813333-128-128-128z m0 85.333334h426.666666c24.362667 0 42.666667 18.304 42.666667 42.666666v85.333334c0 24.362667-18.304 42.666667-42.666667 42.666666H298.666667c-24.362667 0-42.666667-18.304-42.666667-42.666666v-85.333334c0-24.362667 18.304-42.666667 42.666667-42.666666zM384 85.333333C313.813333 85.333333 256 143.146667 256 213.333333v85.333334c0 70.186667 57.813333 128 128 128h256c70.186667 0 128-57.813333 128-128V213.333333c0-70.186667-57.813333-128-128-128z m0 85.333334h256c24.362667 0 42.666667 18.304 42.666667 42.666666v85.333334c0 24.362667-18.304 42.666667-42.666667 42.666666H384c-24.362667 0-42.666667-18.304-42.666667-42.666666V213.333333c0-24.362667 18.304-42.666667 42.666667-42.666666z" fill="#000000" p-id="47146000"/><path d="M85.333333 853.333333a42.666667 42.666667 0 0 0-42.666666 42.666667 42.666667 42.666667 0 0 0 42.666666 42.666667h853.333334a42.666667 42.666667 0 0 0 42.666666-42.666667 42.666667 42.666667 0 0 0-42.666666-42.666667zM85.333333 85.333333a42.666667 42.666667 0 0 0-42.666666 42.666667 42.666667 42.666667 0 0 0 42.666666 42.666667h853.333334a42.666667 42.666667 0 0 0 42.666666-42.666667 42.666667 42.666667 0 0 0-42.666666-42.666667z" fill="#000000" p-id="47146001"/></svg>