<?xml version="1.0" standalone="no"?><!DOCTYPE svg PUBLIC "-//W3C//DTD SVG 1.1//EN" "http://www.w3.org/Graphics/SVG/1.1/DTD/svg11.dtd"><svg viewBox="0 0 1024 1024" version="1.1" xmlns="http://www.w3.org/2000/svg" width="200" height="200" t="1775110619605" class="icon" p-id="47145989" xmlns:xlink="http://www.w3.org/1999/xlink"><path d="M256 42.666667C185.813333 42.666667 128 100.48 128 170.666667v512c0 70.186667 57.813333 128 128 128h85.333333c70.186667 0 128-57.813333 128-128V170.666667c0-70.186667-57.813333-128-128-128z m0 85.333333h85.333333c24.362667 0 42.666667 18.304 42.666667 42.666667v512c0 24.362667-18.304 42.666667-42.666667 42.666666H256c-24.362667 0-42.666667-18.304-42.666667-42.666666V170.666667c0-24.362667 18.304-42.666667 42.666667-42.666667zM682.666667 341.333333c-70.186667 0-128 57.813333-128 128v213.333334c0 70.186667 57.813333 128 128 128h85.333333c70.186667 0 128-57.813333 128-128v-213.333334c0-70.186667-57.813333-128-128-128z m0 85.333334h85.333333c24.362667 0 42.666667 18.304 42.666667 42.666666v213.333334c0 24.362667-18.304 42.666667-42.666667 42.666666h-85.333333c-24.362667 0-42.666667-18.304-42.666667-42.666666v-213.333334c0-24.362667 18.304-42.666667 42.666667-42.666666zM85.333333 896a42.666667 42.666667 0 0 0-42.666666 42.666667 42.666667 42.666667 0 0 0 42.666666 42.666666h853.333334a42.666667 42.666667 0 0 0 42.666666-42.666666 42.666667 42.666667 0 0 0-42.666666-42.666667z" fill="#000000" p-id="47145990"/></svg>