<?xml version="1.0" standalone="no"?><!DOCTYPE svg PUBLIC "-//W3C//DTD SVG 1.1//EN" "http://www.w3.org/Graphics/SVG/1.1/DTD/svg11.dtd"><svg viewBox="0 0 1024 1024" version="1.1" xmlns="http://www.w3.org/2000/svg" width="200" height="200" t="1775110619608" class="icon" p-id="47146013" xmlns:xlink="http://www.w3.org/1999/xlink"><path d="M298.666667 640c-70.186667 0-128 57.813333-128 128v85.333333c0 70.186667 57.813333 128 128 128h426.666666c70.186667 0 128-57.813333 128-128v-85.333333c0-70.186667-57.813333-128-128-128z m0 85.333333h426.666666c24.362667 0 42.666667 18.304 42.666667 42.666667v85.333333c0 24.362667-18.304 42.666667-42.666667 42.666667H298.666667c-24.362667 0-42.666667-18.304-42.666667-42.666667v-85.333333c0-24.362667 18.304-42.666667 42.666667-42.666667zM384 42.666667C313.813333 42.666667 256 100.48 256 170.666667v85.333333c0 70.186667 57.813333 128 128 128h256c70.186667 0 128-57.813333 128-128V170.666667c0-70.186667-57.813333-128-128-128z m0 85.333333h256c24.362667 0 42.666667 18.304 42.666667 42.666667v85.333333c0 24.362667-18.304 42.666667-42.666667 42.666667H384c-24.362667 0-42.666667-18.304-42.666667-42.666667V170.666667c0-24.362667 18.304-42.666667 42.666667-42.666667zM85.333333 469.333333a42.666667 42.666667 0 0 0-42.666666 42.666667 42.666667 42.666667 0 0 0 42.666666 42.666667h853.333334a42.666667 42.666667 0 0 0 42.666666-42.666667 42.666667 42.666667 0 0 0-42.666666-42.666667z" fill="#000000" p-id="47146014"/></svg>