<?xml version="1.0" standalone="no"?><!DOCTYPE svg PUBLIC "-//W3C//DTD SVG 1.1//EN" "http://www.w3.org/Graphics/SVG/1.1/DTD/svg11.dtd"><svg viewBox="0 0 1024 1024" version="1.1" xmlns="http://www.w3.org/2000/svg" width="200" height="200" t="1775110619605" class="icon" p-id="47145982" xmlns:xlink="http://www.w3.org/1999/xlink"><path d="M469.333333 256C399.146667 256 341.333333 313.813333 341.333333 384v256c0 70.186667 57.813333 128 128 128h85.333334c70.186667 0 128-57.813333 128-128V384c0-70.186667-57.813333-128-128-128z m0 85.333333h85.333334c24.362667 0 42.666667 18.304 42.666666 42.666667v256c0 24.362667-18.304 42.666667-42.666666 42.666667h-85.333334c-24.362667 0-42.666667-18.304-42.666666-42.666667V384c0-24.362667 18.304-42.666667 42.666666-42.666667zM170.666667 42.666667a42.666667 42.666667 0 0 0-42.666667 42.666666v853.333334a42.666667 42.666667 0 0 0 42.666667 42.666666 42.666667 42.666667 0 0 0 42.666666-42.666666V85.333333a42.666667 42.666667 0 0 0-42.666666-42.666666zM853.333333 42.666667a42.666667 42.666667 0 0 0-42.666666 42.666666v853.333334a42.666667 42.666667 0 0 0 42.666666 42.666666 42.666667 42.666667 0 0 0 42.666667-42.666666V85.333333a42.666667 42.666667 0 0 0-42.666667-42.666666z" fill="#000000" p-id="47145983"/></svg>