<?xml version="1.0" standalone="no"?><!DOCTYPE svg PUBLIC "-//W3C//DTD SVG 1.1//EN" "http://www.w3.org/Graphics/SVG/1.1/DTD/svg11.dtd"><svg viewBox="0 0 1024 1024" version="1.1" xmlns="http://www.w3.org/2000/svg" width="200" height="200" t="1775110619606" class="icon" p-id="47145997" xmlns:xlink="http://www.w3.org/1999/xlink"><path d="M512 213.333333a42.666667 42.666667 0 0 0-42.666667 42.666667v682.666667a42.666667 42.666667 0 0 0 42.666667 42.666666 42.666667 42.666667 0 0 0 42.666667-42.666666V256a42.666667 42.666667 0 0 0-42.666667-42.666667z" fill="#000000" p-id="47145998"/><path d="M147.072 473.813333A42.666667 42.666667 0 0 0 85.333333 512c0 235.136 191.530667 426.666667 426.666667 426.666667s426.666667-191.530667 426.666667-426.666667a42.666667 42.666667 0 0 0-61.738667-38.186667l-85.333333 42.666667a42.666667 42.666667 0 0 0-19.114667 57.258667 42.666667 42.666667 0 0 0 57.258667 19.114666l8.192-4.096C802.389333 739.370667 673.706667 853.333333 512 853.333333c-161.749333 0-290.389333-113.92-325.930667-264.576l8.192 4.096a42.666667 42.666667 0 0 0 57.258667-19.114666 42.666667 42.666667 0 0 0-19.114667-57.258667z" fill="#000000" p-id="47145999"/><path d="M384 426.666667a42.666667 42.666667 0 0 0-42.666667 42.666666 42.666667 42.666667 0 0 0 42.666667 42.666667h256a42.666667 42.666667 0 0 0 42.666667-42.666667 42.666667 42.666667 0 0 0-42.666667-42.666666zM512 42.666667c-70.186667 0-128 57.813333-128 128s57.813333 128 128 128 128-57.813333 128-128-57.813333-128-128-128z m0 85.333333c24.064 0 42.666667 18.602667 42.666667 42.666667 0 24.064-18.602667 42.666667-42.666667 42.666666-24.064 0-42.666667-18.602667-42.666667-42.666666 0-24.064 18.602667-42.666667 42.666667-42.666667z" fill="#000000" p-id="47146000"/></svg>