<?xml version="1.0" standalone="no"?><!DOCTYPE svg PUBLIC "-//W3C//DTD SVG 1.1//EN" "http://www.w3.org/Graphics/SVG/1.1/DTD/svg11.dtd"><svg viewBox="0 0 1024 1024" version="1.1" xmlns="http://www.w3.org/2000/svg" width="200" height="200" t="1775110619606" class="icon" p-id="47145996" xmlns:xlink="http://www.w3.org/1999/xlink"><path d="M285.184 44.8a42.666667 42.666667 0 0 0-24.704 21.461333l-213.333333 426.666667a42.666667 42.666667 0 0 0 19.114666 57.258667 42.666667 42.666667 0 0 0 57.258667-19.114667l213.333333-426.666667a42.666667 42.666667 0 0 0-19.114666-57.258666 42.666667 42.666667 0 0 0-32.554667-2.304zM498.517333 44.8a42.666667 42.666667 0 0 0-24.704 21.461333l-213.333333 426.666667a42.666667 42.666667 0 0 0 19.114667 57.258667 42.666667 42.666667 0 0 0 57.258666-19.114667l213.333334-426.666667a42.666667 42.666667 0 0 0-19.114667-57.258666 42.666667 42.666667 0 0 0-32.554667-2.304zM744.405333 47.146667a42.666667 42.666667 0 0 0-57.258666 19.114666l-213.333334 426.666667a42.666667 42.666667 0 0 0 19.114667 57.258667 42.666667 42.666667 0 0 0 57.258667-19.114667l213.333333-426.666667a42.666667 42.666667 0 0 0-19.114667-57.258666zM957.738667 47.146667a42.666667 42.666667 0 0 0-57.258667 19.114666l-213.333333 426.666667a42.666667 42.666667 0 0 0 19.114666 57.258667 42.666667 42.666667 0 0 0 57.258667-19.114667l213.333333-426.666667a42.666667 42.666667 0 0 0-19.114666-57.258666z" fill="#000000" p-id="47145997"/><path d="M192 256a42.666667 42.666667 0 0 0-42.666667 42.666667 42.666667 42.666667 0 0 0 42.666667 42.666666h640a42.666667 42.666667 0 0 0 42.666667-42.666666 42.666667 42.666667 0 0 0-42.666667-42.666667zM512 640a42.666667 42.666667 0 0 0-42.666667 42.666667v256a42.666667 42.666667 0 0 0 42.666667 42.666666 42.666667 42.666667 0 0 0 42.666667-42.666666v-256a42.666667 42.666667 0 0 0-42.666667-42.666667z" fill="#000000" p-id="47145998"/></svg>