<?xml version="1.0" standalone="no"?><!DOCTYPE svg PUBLIC "-//W3C//DTD SVG 1.1//EN" "http://www.w3.org/Graphics/SVG/1.1/DTD/svg11.dtd"><svg viewBox="0 0 1024 1024" version="1.1" xmlns="http://www.w3.org/2000/svg" width="200" height="200" t="1775110619608" class="icon" p-id="47146018" xmlns:xlink="http://www.w3.org/1999/xlink"><path d="M268.501333 97.834667l-128 128a42.666667 42.666667 0 0 0 0 60.330666 42.666667 42.666667 0 0 0 60.330667 0L298.666667 188.330667l97.834666 97.834666a42.666667 42.666667 0 0 0 60.330667 0 42.666667 42.666667 0 0 0 0-60.330666l-128-128a42.666667 42.666667 0 0 0-60.330667 0z" fill="#000000" p-id="47146019"/><path d="M298.666667 85.333333a42.666667 42.666667 0 0 0-42.666667 42.666667v597.333333a42.666667 42.666667 0 0 0 42.666667 42.666667 42.666667 42.666667 0 0 0 42.666666-42.666667V128a42.666667 42.666667 0 0 0-42.666666-42.666667zM695.168 97.834667l-128 128a42.666667 42.666667 0 0 0 0 60.330666 42.666667 42.666667 0 0 0 60.330667 0L725.333333 188.330667l97.834667 97.834666a42.666667 42.666667 0 0 0 60.330667 0 42.666667 42.666667 0 0 0 0-60.330666l-128-128a42.666667 42.666667 0 0 0-60.330667 0z" fill="#000000" p-id="47146020"/><path d="M725.333333 85.333333a42.666667 42.666667 0 0 0-42.666666 42.666667v597.333333a42.666667 42.666667 0 0 0 42.666666 42.666667 42.666667 42.666667 0 0 0 42.666667-42.666667V128a42.666667 42.666667 0 0 0-42.666667-42.666667zM170.666667 853.333333a42.666667 42.666667 0 0 0-42.666667 42.666667 42.666667 42.666667 0 0 0 42.666667 42.666667h682.666666a42.666667 42.666667 0 0 0 42.666667-42.666667 42.666667 42.666667 0 0 0-42.666667-42.666667z" fill="#000000" p-id="47146021"/></svg>