<?xml version="1.0" standalone="no"?><!DOCTYPE svg PUBLIC "-//W3C//DTD SVG 1.1//EN" "http://www.w3.org/Graphics/SVG/1.1/DTD/svg11.dtd"><svg viewBox="0 0 1024 1024" version="1.1" xmlns="http://www.w3.org/2000/svg" width="200" height="200" t="1775110619608" class="icon" p-id="47146012" xmlns:xlink="http://www.w3.org/1999/xlink"><path d="M213.333333 469.333333a42.666667 42.666667 0 0 0-42.666666 42.666667 42.666667 42.666667 0 0 0 42.666666 42.666667h597.333334a42.666667 42.666667 0 0 0 42.666666-42.666667 42.666667 42.666667 0 0 0-42.666666-42.666667z" fill="#000000" p-id="47146013"/><path d="M512 170.666667a42.666667 42.666667 0 0 0-30.165333 12.501333 42.666667 42.666667 0 0 0 0 60.330667L750.336 512l-268.501333 268.501333a42.666667 42.666667 0 0 0 0 60.330667 42.666667 42.666667 0 0 0 60.330666 0l298.666667-298.666667a42.666667 42.666667 0 0 0 0-60.330666l-298.666667-298.666667A42.666667 42.666667 0 0 0 512 170.666667z" fill="#000000" p-id="47146014"/></svg>