<?xml version="1.0" standalone="no"?><!DOCTYPE svg PUBLIC "-//W3C//DTD SVG 1.1//EN" "http://www.w3.org/Graphics/SVG/1.1/DTD/svg11.dtd"><svg viewBox="0 0 1024 1024" version="1.1" xmlns="http://www.w3.org/2000/svg" width="200" height="200" t="1775110619608" class="icon" p-id="47146020" xmlns:xlink="http://www.w3.org/1999/xlink"><path d="M341.333333 85.333333a42.666667 42.666667 0 0 0-30.165333 12.501334l-170.666667 170.666666a42.666667 42.666667 0 0 0 0 60.330667l170.666667 170.666667a42.666667 42.666667 0 0 0 60.330667 0 42.666667 42.666667 0 0 0 0-60.330667L230.997333 298.666667l140.501334-140.501334a42.666667 42.666667 0 0 0 0-60.330666A42.666667 42.666667 0 0 0 341.333333 85.333333z" fill="#000000" p-id="47146021"/><path d="M170.666667 256a42.666667 42.666667 0 0 0-42.666667 42.666667 42.666667 42.666667 0 0 0 42.666667 42.666666h682.666666a42.666667 42.666667 0 0 0 42.666667-42.666666 42.666667 42.666667 0 0 0-42.666667-42.666667zM652.501333 524.501333a42.666667 42.666667 0 0 0 0 60.330667L793.002667 725.333333l-140.501334 140.501334a42.666667 42.666667 0 0 0 0 60.330666 42.666667 42.666667 0 0 0 60.330667 0l170.666667-170.666666a42.666667 42.666667 0 0 0 0-60.330667l-170.666667-170.666667a42.666667 42.666667 0 0 0-60.330667 0z" fill="#000000" p-id="47146022"/><path d="M170.666667 682.666667a42.666667 42.666667 0 0 0-42.666667 42.666666 42.666667 42.666667 0 0 0 42.666667 42.666667h682.666666a42.666667 42.666667 0 0 0 42.666667-42.666667 42.666667 42.666667 0 0 0-42.666667-42.666666z" fill="#000000" p-id="47146023"/></svg>