<?xml version="1.0" standalone="no"?><!DOCTYPE svg PUBLIC "-//W3C//DTD SVG 1.1//EN" "http://www.w3.org/Graphics/SVG/1.1/DTD/svg11.dtd"><svg viewBox="0 0 1024 1024" version="1.1" xmlns="http://www.w3.org/2000/svg" width="200" height="200" t="1775110619609" class="icon" p-id="47146021" xmlns:xlink="http://www.w3.org/1999/xlink"><path d="M384 213.333333a42.666667 42.666667 0 0 0-30.165333 12.501334l-256 256a42.666667 42.666667 0 0 0 0 60.330666l256 256a42.666667 42.666667 0 0 0 60.330666 0 42.666667 42.666667 0 0 0 0-60.330666L188.330667 512l225.834666-225.834667a42.666667 42.666667 0 0 0 0-60.330666A42.666667 42.666667 0 0 0 384 213.333333z" fill="#000000" p-id="47146022"/><path d="M128 469.333333a42.666667 42.666667 0 0 0-42.666667 42.666667 42.666667 42.666667 0 0 0 42.666667 42.666667h597.333333a42.666667 42.666667 0 0 0 42.666667-42.666667 42.666667 42.666667 0 0 0-42.666667-42.666667zM896 170.666667a42.666667 42.666667 0 0 0-42.666667 42.666666v597.333334a42.666667 42.666667 0 0 0 42.666667 42.666666 42.666667 42.666667 0 0 0 42.666667-42.666666V213.333333a42.666667 42.666667 0 0 0-42.666667-42.666666z" fill="#000000" p-id="47146023"/></svg>