<?xml version="1.0" standalone="no"?><!DOCTYPE svg PUBLIC "-//W3C//DTD SVG 1.1//EN" "http://www.w3.org/Graphics/SVG/1.1/DTD/svg11.dtd"><svg viewBox="0 0 1024 1024" version="1.1" xmlns="http://www.w3.org/2000/svg" width="200" height="200" t="1775110619608" class="icon" p-id="47146011" xmlns:xlink="http://www.w3.org/1999/xlink"><path d="M213.333333 85.333333a42.666667 42.666667 0 0 0-42.666666 42.666667 42.666667 42.666667 0 0 0 42.666666 42.666667h597.333334a42.666667 42.666667 0 0 0 42.666666-42.666667 42.666667 42.666667 0 0 0-42.666666-42.666667zM512 256a42.666667 42.666667 0 0 0-42.666667 42.666667v597.333333a42.666667 42.666667 0 0 0 42.666667 42.666667 42.666667 42.666667 0 0 0 42.666667-42.666667V298.666667a42.666667 42.666667 0 0 0-42.666667-42.666667z" fill="#000000" p-id="47146012"/><path d="M256 597.333333a42.666667 42.666667 0 0 0-30.165333 12.501334 42.666667 42.666667 0 0 0 0 60.330666l256 256a42.666667 42.666667 0 0 0 60.330666 0l256-256a42.666667 42.666667 0 0 0 0-60.330666 42.666667 42.666667 0 0 0-60.330666 0L512 835.669333l-225.834667-225.834666A42.666667 42.666667 0 0 0 256 597.333333z" fill="#000000" p-id="47146013"/></svg>