<?xml version="1.0" encoding="UTF-8"?>
<svg class="icon" viewBox="0 0 1024 1024" version="1.1" xmlns="http://www.w3.org/2000/svg" p-id="3191" width="1024" height="1024"><path d="M832 325.504L512 637.504 192 325.504a28.8 28.8 0 0 0-41.984 0 28.8 28.8 0 0 0-8.96 20.992c0 8 2.624 14.72 8 20.032l340.992 331.968c5.952 6.016 13.312 8.96 22.016 8.96 8.64 0 16-2.944 22.016-8.96l340.992-331.008a31.232 31.232 0 0 0 8-21.504c0-8.32-3.008-15.36-8.96-20.992a29.76 29.76 0 0 0-42.048 0.512z" fill="#383838" p-id="3192"></path></svg>