<?xml version="1.0" standalone="no"?><!DOCTYPE svg PUBLIC "-//W3C//DTD SVG 1.1//EN" "http://www.w3.org/Graphics/SVG/1.1/DTD/svg11.dtd"><svg viewBox="0 0 1024 1024" version="1.1" xmlns="http://www.w3.org/2000/svg" width="200" height="200" t="1775110619607" class="icon" p-id="47146007" xmlns:xlink="http://www.w3.org/1999/xlink"><path d="M469.333333 640a42.666667 42.666667 0 0 0-30.165333 12.501333L298.666667 793.002667l-140.501334-140.501334a42.666667 42.666667 0 0 0-60.330666 0 42.666667 42.666667 0 0 0 0 60.330667l170.666666 170.666667a42.666667 42.666667 0 0 0 60.330667 0l170.666667-170.666667a42.666667 42.666667 0 0 0 0-60.330667A42.666667 42.666667 0 0 0 469.333333 640z" fill="#000000" p-id="47146008"/><path d="M298.666667 128a42.666667 42.666667 0 0 0-42.666667 42.666667v682.666666a42.666667 42.666667 0 0 0 42.666667 42.666667 42.666667 42.666667 0 0 0 42.666666-42.666667V170.666667a42.666667 42.666667 0 0 0-42.666666-42.666667zM469.333333 128a42.666667 42.666667 0 0 0-42.666666 42.666667 42.666667 42.666667 0 0 0 42.666666 42.666666h170.666667a42.666667 42.666667 0 0 0 42.666667-42.666666 42.666667 42.666667 0 0 0-42.666667-42.666667zM469.333333 298.666667a42.666667 42.666667 0 0 0-42.666666 42.666666 42.666667 42.666667 0 0 0 42.666666 42.666667h298.666667a42.666667 42.666667 0 0 0 42.666667-42.666667 42.666667 42.666667 0 0 0-42.666667-42.666666zM469.333333 469.333333a42.666667 42.666667 0 0 0-42.666666 42.666667 42.666667 42.666667 0 0 0 42.666666 42.666667h426.666667a42.666667 42.666667 0 0 0 42.666667-42.666667 42.666667 42.666667 0 0 0-42.666667-42.666667z" fill="#000000" p-id="47146009"/></svg>