<?xml version="1.0" standalone="no"?><!DOCTYPE svg PUBLIC "-//W3C//DTD SVG 1.1//EN" "http://www.w3.org/Graphics/SVG/1.1/DTD/svg11.dtd"><svg viewBox="0 0 1024 1024" version="1.1" xmlns="http://www.w3.org/2000/svg" width="200" height="200" t="1775110619609" class="icon" p-id="47146032" xmlns:xlink="http://www.w3.org/1999/xlink"><path d="M512 213.333333a42.666667 42.666667 0 0 0-42.666667 42.666667v512a42.666667 42.666667 0 0 0 42.666667 42.666667 42.666667 42.666667 0 0 0 42.666667-42.666667V256a42.666667 42.666667 0 0 0-42.666667-42.666667z" fill="#000000" p-id="47146033"/><path d="M744.746667 342.741333a42.666667 42.666667 0 0 0-32.426667 4.352l-443.306667 256a42.666667 42.666667 0 0 0-15.658666 58.24 42.666667 42.666667 0 0 0 58.325333 15.573334l443.306667-256a42.666667 42.666667 0 0 0 15.658666-58.24 42.666667 42.666667 0 0 0-25.898666-19.925334z" fill="#000000" p-id="47146034"/><path d="M279.253333 342.741333a42.666667 42.666667 0 0 0-25.898666 19.925334 42.666667 42.666667 0 0 0 15.658666 58.24l443.306667 256a42.666667 42.666667 0 0 0 58.325333-15.573334 42.666667 42.666667 0 0 0-15.658666-58.24l-443.306667-256a42.666667 42.666667 0 0 0-32.426667-4.352z" fill="#000000" p-id="47146035"/></svg>