<?xml version="1.0" standalone="no"?><!DOCTYPE svg PUBLIC "-//W3C//DTD SVG 1.1//EN" "http://www.w3.org/Graphics/SVG/1.1/DTD/svg11.dtd"><svg viewBox="0 0 1024 1024" version="1.1" xmlns="http://www.w3.org/2000/svg" width="200" height="200" t="1775110619610" class="icon" p-id="47146043" xmlns:xlink="http://www.w3.org/1999/xlink"><path d="M640 341.333333a42.666667 42.666667 0 0 0-30.165333 12.501334l-64 64a42.666667 42.666667 0 0 0 0 60.330666 42.666667 42.666667 0 0 0 60.330666 0l64-64a42.666667 42.666667 0 0 0 0-60.330666A42.666667 42.666667 0 0 0 640 341.333333zM170.666667 128a42.666667 42.666667 0 0 0-42.666667 42.666667v640c0 46.634667 38.698667 85.333333 85.333333 85.333333h640a42.666667 42.666667 0 0 0 42.666667-42.666667 42.666667 42.666667 0 0 0-42.666667-42.666666H213.333333V170.666667a42.666667 42.666667 0 0 0-42.666666-42.666667z" fill="#000000" p-id="47146044"/><path d="M225.834667 737.834667L153.002667 810.666667a42.666667 42.666667 0 0 0 0 60.330666 42.666667 42.666667 0 0 0 60.330666 0l72.832-72.832a42.666667 42.666667 0 0 0 0-60.330666 42.666667 42.666667 0 0 0-60.330666 0zM448 533.333333a42.666667 42.666667 0 0 0-30.165333 12.501334l-64 64a42.666667 42.666667 0 0 0 0 60.330666 42.666667 42.666667 0 0 0 60.330666 0l64-64a42.666667 42.666667 0 0 0 0-60.330666 42.666667 42.666667 0 0 0-30.165333-12.501334z" fill="#000000" p-id="47146045"/></svg>