<?xml version="1.0" standalone="no"?><!DOCTYPE svg PUBLIC "-//W3C//DTD SVG 1.1//EN" "http://www.w3.org/Graphics/SVG/1.1/DTD/svg11.dtd"><svg viewBox="0 0 1024 1024" version="1.1" xmlns="http://www.w3.org/2000/svg" width="200" height="200" t="1775110619612" class="icon" p-id="47148417" xmlns:xlink="http://www.w3.org/1999/xlink"><path d="M85.333333 170.666667a42.666667 42.666667 0 0 0-42.666666 42.666666 42.666667 42.666667 0 0 0 42.666666 42.666667c24.064 0 42.666667 18.602667 42.666667 42.666667v384c0 70.186667 57.813333 128 128 128h682.666667a42.666667 42.666667 0 0 0 42.666666-42.666667 42.666667 42.666667 0 0 0-42.666666-42.666667H256c-24.064 0-42.666667-18.602667-42.666667-42.666666V298.666667c0-70.186667-57.813333-128-128-128z" fill="#000000" p-id="47148418"/><path d="M597.333333 42.666667c-70.186667 0-128 57.813333-128 128v426.666666a42.666667 42.666667 0 0 0 42.666667 42.666667 42.666667 42.666667 0 0 0 42.666667-42.666667V170.666667c0-24.064 18.602667-42.666667 42.666666-42.666667h42.666667c24.064 0 42.666667 18.602667 42.666667 42.666667v426.666666a42.666667 42.666667 0 0 0 42.666666 42.666667 42.666667 42.666667 0 0 0 42.666667-42.666667V170.666667c0-70.186667-57.813333-128-128-128z" fill="#000000" p-id="47148419"/><path d="M384 213.333333c-46.506667 0-85.333333 38.826667-85.333333 85.333334v256c0 46.506667 38.826667 85.333333 85.333333 85.333333h469.333333c46.506667 0 85.333333-38.826667 85.333334-85.333333V298.666667c0-46.506667-38.826667-85.333333-85.333334-85.333334z m0 85.333334h469.333333v256H384zM768 725.333333c-70.186667 0-128 57.813333-128 128s57.813333 128 128 128 128-57.813333 128-128-57.813333-128-128-128z m0 85.333334c24.064 0 42.666667 18.602667 42.666667 42.666666 0 24.064-18.602667 42.666667-42.666667 42.666667-24.064 0-42.666667-18.602667-42.666667-42.666667 0-24.064 18.602667-42.666667 42.666667-42.666666zM384 725.333333c-70.186667 0-128 57.813333-128 128s57.813333 128 128 128 128-57.813333 128-128-57.813333-128-128-128z m0 85.333334c24.064 0 42.666667 18.602667 42.666667 42.666666 0 24.064-18.602667 42.666667-42.666667 42.666667-24.064 0-42.666667-18.602667-42.666667-42.666667 0-24.064 18.602667-42.666667 42.666667-42.666666z" fill="#000000" p-id="47148420"/></svg>