<?xml version="1.0" standalone="no"?><!DOCTYPE svg PUBLIC "-//W3C//DTD SVG 1.1//EN" "http://www.w3.org/Graphics/SVG/1.1/DTD/svg11.dtd"><svg viewBox="0 0 1024 1024" version="1.1" xmlns="http://www.w3.org/2000/svg" width="200" height="200" t="1775110619612" class="icon" p-id="47148419" xmlns:xlink="http://www.w3.org/1999/xlink"><path d="M170.666667 213.333333C100.48 213.333333 42.666667 271.146667 42.666667 341.333333v341.333334c0 70.186667 57.813333 128 128 128h682.666666c70.186667 0 128-57.813333 128-128V341.333333c0-70.186667-57.813333-128-128-128z m0 85.333334h682.666666c24.362667 0 42.666667 18.304 42.666667 42.666666v341.333334c0 24.362667-18.304 42.666667-42.666667 42.666666H170.666667c-24.362667 0-42.666667-18.304-42.666667-42.666666V341.333333c0-24.362667 18.304-42.666667 42.666667-42.666666z" fill="#000000" p-id="47148420"/><path d="M512 384c-70.186667 0-128 57.813333-128 128s57.813333 128 128 128 128-57.813333 128-128-57.813333-128-128-128z m0 85.333333c24.064 0 42.666667 18.602667 42.666667 42.666667 0 24.064-18.602667 42.666667-42.666667 42.666667-24.064 0-42.666667-18.602667-42.666667-42.666667 0-24.064 18.602667-42.666667 42.666667-42.666667zM256 469.333333a42.666667 42.666667 0 0 0-42.666667 42.666667 42.666667 42.666667 0 0 0 42.666667 42.666667h0.426667a42.666667 42.666667 0 0 0 42.666666-42.666667 42.666667 42.666667 0 0 0-42.666666-42.666667z m512 0a42.666667 42.666667 0 0 0-42.666667 42.666667 42.666667 42.666667 0 0 0 42.666667 42.666667h0.426667a42.666667 42.666667 0 0 0 42.666666-42.666667 42.666667 42.666667 0 0 0-42.666666-42.666667z" fill="#000000" p-id="47148421"/></svg>