<?xml version="1.0" standalone="no"?><!DOCTYPE svg PUBLIC "-//W3C//DTD SVG 1.1//EN" "http://www.w3.org/Graphics/SVG/1.1/DTD/svg11.dtd"><svg viewBox="0 0 1024 1024" version="1.1" xmlns="http://www.w3.org/2000/svg" width="200" height="200" t="1775110619612" class="icon" p-id="47148418" xmlns:xlink="http://www.w3.org/1999/xlink"><path d="M170.666667 213.333333C100.48 213.333333 42.666667 271.146667 42.666667 341.333333v341.333334c0 70.186667 57.813333 128 128 128h341.333333a42.666667 42.666667 0 0 0 42.666667-42.666667 42.666667 42.666667 0 0 0-42.666667-42.666667H170.666667c-24.064 0-42.666667-18.602667-42.666667-42.666666V341.333333c0-24.064 18.602667-42.666667 42.666667-42.666666h682.666666c24.064 0 42.666667 18.602667 42.666667 42.666666v213.333334a42.666667 42.666667 0 0 0 42.666667 42.666666 42.666667 42.666667 0 0 0 42.666666-42.666666V341.333333c0-70.186667-57.813333-128-128-128zM652.501333 780.501333a42.666667 42.666667 0 0 0 0 60.330667l128 128a42.666667 42.666667 0 0 0 60.330667 0l128-128a42.666667 42.666667 0 0 0 0-60.330667 42.666667 42.666667 0 0 0-60.330667 0L810.666667 878.336l-97.834667-97.834667a42.666667 42.666667 0 0 0-60.330667 0z" fill="#000000" p-id="47148419"/><path d="M768 469.333333a42.666667 42.666667 0 0 0-42.666667 42.666667 42.666667 42.666667 0 0 0 42.666667 42.666667h0.426667a42.666667 42.666667 0 0 0 42.666666-42.666667 42.666667 42.666667 0 0 0-42.666666-42.666667zM810.666667 640a42.666667 42.666667 0 0 0-42.666667 42.666667v256a42.666667 42.666667 0 0 0 42.666667 42.666666 42.666667 42.666667 0 0 0 42.666666-42.666666v-256a42.666667 42.666667 0 0 0-42.666666-42.666667zM256 469.333333a42.666667 42.666667 0 0 0-42.666667 42.666667 42.666667 42.666667 0 0 0 42.666667 42.666667h0.426667a42.666667 42.666667 0 0 0 42.666666-42.666667 42.666667 42.666667 0 0 0-42.666666-42.666667zM512 384c-70.186667 0-128 57.813333-128 128s57.813333 128 128 128 128-57.813333 128-128-57.813333-128-128-128z m0 85.333333c24.064 0 42.666667 18.602667 42.666667 42.666667 0 24.064-18.602667 42.666667-42.666667 42.666667-24.064 0-42.666667-18.602667-42.666667-42.666667 0-24.064 18.602667-42.666667 42.666667-42.666667z" fill="#000000" p-id="47148420"/></svg>