<?xml version="1.0" standalone="no"?><!DOCTYPE svg PUBLIC "-//W3C//DTD SVG 1.1//EN" "http://www.w3.org/Graphics/SVG/1.1/DTD/svg11.dtd"><svg viewBox="0 0 1024 1024" version="1.1" xmlns="http://www.w3.org/2000/svg" width="200" height="200" t="1775110619612" class="icon" p-id="47148421" xmlns:xlink="http://www.w3.org/1999/xlink"><path d="M170.666667 810.666667a42.666667 42.666667 0 0 0-42.666667 42.666666 42.666667 42.666667 0 0 0 42.666667 42.666667h682.666666a42.666667 42.666667 0 0 0 42.666667-42.666667 42.666667 42.666667 0 0 0-42.666667-42.666666zM512 128a42.666667 42.666667 0 0 0-38.186667 23.594667l-256 512a42.666667 42.666667 0 0 0 19.114667 57.258666 42.666667 42.666667 0 0 0 57.258667-19.114666L512 266.112l217.813333 435.626667a42.666667 42.666667 0 0 0 57.258667 19.114666 42.666667 42.666667 0 0 0 19.114667-57.258666l-256-512A42.666667 42.666667 0 0 0 512 128z" fill="#000000" p-id="47148422"/><path d="M341.333333 469.333333a42.666667 42.666667 0 0 0-42.666666 42.666667 42.666667 42.666667 0 0 0 42.666666 42.666667h341.333334a42.666667 42.666667 0 0 0 42.666666-42.666667 42.666667 42.666667 0 0 0-42.666666-42.666667z" fill="#000000" p-id="47148423"/></svg>