<?xml version="1.0" standalone="no"?><!DOCTYPE svg PUBLIC "-//W3C//DTD SVG 1.1//EN" "http://www.w3.org/Graphics/SVG/1.1/DTD/svg11.dtd"><svg viewBox="0 0 1024 1024" version="1.1" xmlns="http://www.w3.org/2000/svg" width="200" height="200" t="1775110619612" class="icon" p-id="47148423" xmlns:xlink="http://www.w3.org/1999/xlink"><path d="M491.264 262.101333a42.666667 42.666667 0 0 0-58.496 14.634667l-128 213.333333A42.666667 42.666667 0 0 0 341.333333 554.666667h95.317334l-89.216 148.736a42.666667 42.666667 0 0 0 14.634666 58.496 42.666667 42.666667 0 0 0 58.496-14.634667l128-213.333333A42.666667 42.666667 0 0 0 512 469.333333H416.682667l89.216-148.736a42.666667 42.666667 0 0 0-14.634667-58.496z" fill="#000000" p-id="47148424"/><path d="M633.813333 213.333333a42.666667 42.666667 0 0 0-42.666666 42.666667 42.666667 42.666667 0 0 0 42.666666 42.666667H682.666667c24.064 0 42.666667 18.602667 42.666666 42.666666v341.333334c0 24.064-18.602667 42.666667-42.666666 42.666666h-125.269334a42.666667 42.666667 0 0 0-42.666666 42.666667 42.666667 42.666667 0 0 0 42.666666 42.666667H682.666667c70.186667 0 128-57.813333 128-128V341.333333c0-70.186667-57.813333-128-128-128zM938.666667 384a42.666667 42.666667 0 0 0-42.666667 42.666667v170.666666a42.666667 42.666667 0 0 0 42.666667 42.666667 42.666667 42.666667 0 0 0 42.666666-42.666667v-170.666666a42.666667 42.666667 0 0 0-42.666666-42.666667zM170.666667 213.333333C100.48 213.333333 42.666667 271.146667 42.666667 341.333333v341.333334c0 70.186667 57.813333 128 128 128h48.64a42.666667 42.666667 0 0 0 42.666666-42.666667 42.666667 42.666667 0 0 0-42.666666-42.666667H170.666667c-24.064 0-42.666667-18.602667-42.666667-42.666666V341.333333c0-24.064 18.602667-42.666667 42.666667-42.666666h125.269333a42.666667 42.666667 0 0 0 42.666667-42.666667 42.666667 42.666667 0 0 0-42.666667-42.666667z" fill="#000000" p-id="47148425"/></svg>