<?xml version="1.0" standalone="no"?><!DOCTYPE svg PUBLIC "-//W3C//DTD SVG 1.1//EN" "http://www.w3.org/Graphics/SVG/1.1/DTD/svg11.dtd"><svg viewBox="0 0 1024 1024" version="1.1" xmlns="http://www.w3.org/2000/svg" width="200" height="200" t="1775110619612" class="icon" p-id="47148429" xmlns:xlink="http://www.w3.org/1999/xlink"><path d="M192 85.333333a42.666667 42.666667 0 0 0-42.666667 42.666667 42.666667 42.666667 0 0 0 42.666667 42.666667h640a42.666667 42.666667 0 0 0 42.666667-42.666667 42.666667 42.666667 0 0 0-42.666667-42.666667z" fill="#000000" p-id="47148430"/><path d="M256 85.333333a42.666667 42.666667 0 0 0-42.666667 42.666667v682.666667c0 70.186667 57.813333 128 128 128h341.333334c70.186667 0 128-57.813333 128-128V128a42.666667 42.666667 0 0 0-42.666667-42.666667 42.666667 42.666667 0 0 0-42.666667 42.666667v682.666667c0 24.064-18.602667 42.666667-42.666666 42.666666H341.333333c-24.064 0-42.666667-18.602667-42.666666-42.666666V128a42.666667 42.666667 0 0 0-42.666667-42.666667z" fill="#000000" p-id="47148431"/><path d="M256 554.666667a42.666667 42.666667 0 0 0-42.666667 42.666666 42.666667 42.666667 0 0 0 42.666667 42.666667h512a42.666667 42.666667 0 0 0 42.666667-42.666667 42.666667 42.666667 0 0 0-42.666667-42.666666z" fill="#000000" p-id="47148432"/></svg>