<?xml version="1.0" standalone="no"?><!DOCTYPE svg PUBLIC "-//W3C//DTD SVG 1.1//EN" "http://www.w3.org/Graphics/SVG/1.1/DTD/svg11.dtd"><svg viewBox="0 0 1024 1024" version="1.1" xmlns="http://www.w3.org/2000/svg" width="200" height="200" t="1775110619613" class="icon" p-id="47148437" xmlns:xlink="http://www.w3.org/1999/xlink"><path d="M170.666667 384c-70.186667 0-128 57.813333-128 128v341.333333a42.666667 42.666667 0 0 0 42.666666 42.666667 42.666667 42.666667 0 0 0 42.666667-42.666667v-341.333333c0-24.064 18.602667-42.666667 42.666667-42.666667h682.666666c24.064 0 42.666667 18.602667 42.666667 42.666667v341.333333a42.666667 42.666667 0 0 0 42.666667 42.666667 42.666667 42.666667 0 0 0 42.666666-42.666667v-341.333333c0-70.186667-57.813333-128-128-128z" fill="#000000" p-id="47148438"/><path d="M256 128C185.813333 128 128 185.813333 128 256v170.666667a42.666667 42.666667 0 0 0 42.666667 42.666666 42.666667 42.666667 0 0 0 42.666666-42.666666V256c0-24.064 18.602667-42.666667 42.666667-42.666667h512c24.064 0 42.666667 18.602667 42.666667 42.666667v170.666667a42.666667 42.666667 0 0 0 42.666666 42.666666 42.666667 42.666667 0 0 0 42.666667-42.666666V256c0-70.186667-57.813333-128-128-128z" fill="#000000" p-id="47148439"/><path d="M512 128a42.666667 42.666667 0 0 0-42.666667 42.666667v256a42.666667 42.666667 0 0 0 42.666667 42.666666 42.666667 42.666667 0 0 0 42.666667-42.666666V170.666667a42.666667 42.666667 0 0 0-42.666667-42.666667zM85.333333 725.333333a42.666667 42.666667 0 0 0-42.666666 42.666667 42.666667 42.666667 0 0 0 42.666666 42.666667h853.333334a42.666667 42.666667 0 0 0 42.666666-42.666667 42.666667 42.666667 0 0 0-42.666666-42.666667z" fill="#000000" p-id="47148440"/></svg>