<?xml version="1.0" encoding="UTF-8"?>
<svg class="icon" viewBox="0 0 1024 1024" version="1.1" xmlns="http://www.w3.org/2000/svg" p-id="2835" width="1024" height="1024"><path d="M512 64a64 64 0 0 1 64 64v64H448V128a64 64 0 0 1 64-64z" fill="#383838" p-id="2836"></path><path d="M256 768h512V448a256 256 0 1 0-512 0v320zM512 128a320 320 0 0 1 320 320v384H192V448a320 320 0 0 1 320-320z" fill="#383838" p-id="2837"></path><path d="M96 768h832c21.312 0 32 10.688 32 32 0 21.312-10.688 32-32 32h-832c-21.312 0-32-10.688-32-32 0-21.312 10.688-32 32-32zM448 896h128a64 64 0 1 1-128 0z" fill="#383838" p-id="2838"></path></svg>