<?xml version="1.0" standalone="no"?><!DOCTYPE svg PUBLIC "-//W3C//DTD SVG 1.1//EN" "http://www.w3.org/Graphics/SVG/1.1/DTD/svg11.dtd"><svg viewBox="0 0 1024 1024" version="1.1" xmlns="http://www.w3.org/2000/svg" width="200" height="200" t="1775110619613" class="icon" p-id="47148449" xmlns:xlink="http://www.w3.org/1999/xlink"><path d="M170.666667 85.333333c-46.506667 0-85.333333 38.826667-85.333334 85.333334v213.333333c0 46.506667 38.826667 85.333333 85.333334 85.333333h469.333333c46.506667 0 85.333333-38.826667 85.333333-85.333333V170.666667c0-46.506667-38.826667-85.333333-85.333333-85.333334z m0 85.333334h469.333333v213.333333H170.666667zM908.501333 353.834667l-128 128a42.666667 42.666667 0 0 0 0 60.330666l128 128a42.666667 42.666667 0 0 0 60.330667 0 42.666667 42.666667 0 0 0 0-60.330666L870.997333 512l97.834667-97.834667a42.666667 42.666667 0 0 0 0-60.330666 42.666667 42.666667 0 0 0-60.330667 0zM170.666667 554.666667c-46.506667 0-85.333333 38.826667-85.333334 85.333333v213.333333c0 46.506667 38.826667 85.333333 85.333334 85.333334h469.333333c46.506667 0 85.333333-38.826667 85.333333-85.333334v-213.333333c0-46.506667-38.826667-85.333333-85.333333-85.333333z m0 85.333333h469.333333v213.333333H170.666667z" fill="#000000" p-id="47148450"/></svg>