<?xml version="1.0" standalone="no"?><!DOCTYPE svg PUBLIC "-//W3C//DTD SVG 1.1//EN" "http://www.w3.org/Graphics/SVG/1.1/DTD/svg11.dtd"><svg viewBox="0 0 1024 1024" version="1.1" xmlns="http://www.w3.org/2000/svg" width="200" height="200" t="1775110619613" class="icon" p-id="47148450" xmlns:xlink="http://www.w3.org/1999/xlink"><path d="M170.666667 298.666667c-46.506667 0-85.333333 38.826667-85.333334 85.333333v469.333333c0 46.506667 38.826667 85.333333 85.333334 85.333334h213.333333c46.506667 0 85.333333-38.826667 85.333333-85.333334V384c0-46.506667-38.826667-85.333333-85.333333-85.333333z m0 85.333333h213.333333v469.333333H170.666667zM384 42.666667a42.666667 42.666667 0 0 0-30.165333 12.501333 42.666667 42.666667 0 0 0 0 60.330667l128 128a42.666667 42.666667 0 0 0 60.330666 0l128-128a42.666667 42.666667 0 0 0 0-60.330667 42.666667 42.666667 0 0 0-60.330666 0L512 153.002667 414.165333 55.168A42.666667 42.666667 0 0 0 384 42.666667zM640 298.666667c-46.506667 0-85.333333 38.826667-85.333333 85.333333v469.333333c0 46.506667 38.826667 85.333333 85.333333 85.333334h213.333333c46.506667 0 85.333333-38.826667 85.333334-85.333334V384c0-46.506667-38.826667-85.333333-85.333334-85.333333z m0 85.333333h213.333333v469.333333h-213.333333z" fill="#000000" p-id="47148451"/></svg>