<?xml version="1.0" encoding="UTF-8"?>
<svg class="icon" viewBox="0 0 1024 1024" version="1.1" xmlns="http://www.w3.org/2000/svg" p-id="3165" width="1024" height="1024"><path d="M256 832a128 128 0 1 0 0-256 128 128 0 0 0 0 256z m0 64a192 192 0 1 1 0-383.936A192 192 0 0 1 256 896z" fill="#383838" p-id="3166"></path><path d="M288 672h320c21.312 0 32 10.688 32 32 0 21.312-10.688 32-32 32h-320c-21.312 0-32-10.688-32-32 0-21.312 10.688-32 32-32z" fill="#383838" p-id="3167"></path><path d="M768 832a128 128 0 1 0 0-256 128 128 0 0 0 0 256z m0 64a192 192 0 1 1 0-384 192 192 0 0 1 0 384z" fill="#383838" p-id="3168"></path><path d="M480 192a32 32 0 1 1 0-64H640a32 32 0 0 1 31.04 24.256l96 384a32 32 0 0 1-62.08 15.488L615.04 192H480z m-384 192a32 32 0 1 1 0-64h128a32 32 0 0 1 30.336 21.888l64 192a32 32 0 1 1-60.672 20.224L200.96 384H96z" fill="#383838" p-id="3169"></path><path d="M373.376 599.808l-42.752-47.616 320-288 42.752 47.616-320 288z" fill="#383838" p-id="3170"></path></svg>