<?xml version="1.0" standalone="no"?><!DOCTYPE svg PUBLIC "-//W3C//DTD SVG 1.1//EN" "http://www.w3.org/Graphics/SVG/1.1/DTD/svg11.dtd"><svg viewBox="0 0 1024 1024" version="1.1" xmlns="http://www.w3.org/2000/svg" width="200" height="200" t="1775110619614" class="icon" p-id="47148457" xmlns:xlink="http://www.w3.org/1999/xlink"><path d="M384 42.666667C196.010667 42.666667 42.666667 196.010667 42.666667 384c0 187.989333 153.344 341.333333 341.333333 341.333333 187.989333 0 341.333333-153.344 341.333333-341.333333 0-187.989333-153.344-341.333333-341.333333-341.333333z m0 85.333333c141.909333 0 256 114.090667 256 256s-114.090667 256-256 256-256-114.090667-256-256 114.090667-256 256-256z" fill="#000000" p-id="47148458"/><path d="M640 298.666667c-187.989333 0-341.333333 153.344-341.333333 341.333333 0 187.989333 153.344 341.333333 341.333333 341.333333 187.989333 0 341.333333-153.344 341.333333-341.333333 0-187.989333-153.344-341.333333-341.333333-341.333333z m0 85.333333c141.909333 0 256 114.090667 256 256s-114.090667 256-256 256-256-114.090667-256-256 114.090667-256 256-256z" fill="#000000" p-id="47148459"/></svg>