<?xml version="1.0" standalone="no"?><!DOCTYPE svg PUBLIC "-//W3C//DTD SVG 1.1//EN" "http://www.w3.org/Graphics/SVG/1.1/DTD/svg11.dtd"><svg viewBox="0 0 1024 1024" version="1.1" xmlns="http://www.w3.org/2000/svg" width="200" height="200" t="1775110619613" class="icon" p-id="47148456" xmlns:xlink="http://www.w3.org/1999/xlink"><path d="M495.658667 45.909333A42.666667 42.666667 0 0 0 469.333333 85.333333v323.669334L328.832 268.501333a42.666667 42.666667 0 0 0-60.330667 0 42.666667 42.666667 0 0 0 0 60.330667L451.669333 512l-183.168 183.168a42.666667 42.666667 0 0 0 0 60.330667 42.666667 42.666667 0 0 0 60.330667 0L469.333333 614.997333V938.666667a42.666667 42.666667 0 0 0 72.832 30.165333l213.333334-213.333333a42.666667 42.666667 0 0 0 0-60.330667L572.330667 512l183.168-183.168a42.666667 42.666667 0 0 0 0-60.330667l-213.333334-213.333333a42.666667 42.666667 0 0 0-46.506666-9.258667zM554.666667 188.330667L665.002667 298.666667 554.666667 409.002667z m0 426.666666L665.002667 725.333333 554.666667 835.669333z" fill="#000000" p-id="47148457"/><path d="M768 469.333333a42.666667 42.666667 0 0 0-42.666667 42.666667 42.666667 42.666667 0 0 0 42.666667 42.666667h128a42.666667 42.666667 0 0 0 42.666667-42.666667 42.666667 42.666667 0 0 0-42.666667-42.666667zM128 469.333333a42.666667 42.666667 0 0 0-42.666667 42.666667 42.666667 42.666667 0 0 0 42.666667 42.666667h128a42.666667 42.666667 0 0 0 42.666667-42.666667 42.666667 42.666667 0 0 0-42.666667-42.666667z" fill="#000000" p-id="47148458"/></svg>