<?xml version="1.0" standalone="no"?><!DOCTYPE svg PUBLIC "-//W3C//DTD SVG 1.1//EN" "http://www.w3.org/Graphics/SVG/1.1/DTD/svg11.dtd"><svg viewBox="0 0 1024 1024" version="1.1" xmlns="http://www.w3.org/2000/svg" width="200" height="200" t="1775110619614" class="icon" p-id="47148468" xmlns:xlink="http://www.w3.org/1999/xlink"><path d="M528.341333 472.576a42.666667 42.666667 0 0 0-46.506666 9.258667l-213.333334 213.333333a42.666667 42.666667 0 0 0 0 60.330667 42.666667 42.666667 0 0 0 60.330667 0L469.333333 614.997333V938.666667a42.666667 42.666667 0 0 0 72.832 30.165333l213.333334-213.333333a42.666667 42.666667 0 0 0 0-60.330667 42.666667 42.666667 0 0 0-60.330667 0L554.666667 835.669333V512a42.666667 42.666667 0 0 0-26.325334-39.424z" fill="#000000" p-id="47148469"/><path d="M55.168 55.168a42.666667 42.666667 0 0 0 0 60.330667l853.333333 853.333333a42.666667 42.666667 0 0 0 60.330667 0 42.666667 42.666667 0 0 0 0-60.330667l-853.333333-853.333333a42.666667 42.666667 0 0 0-60.330667 0zM495.658667 45.909333A42.666667 42.666667 0 0 0 469.333333 85.333333v192a42.666667 42.666667 0 0 0 42.666667 42.666667 42.666667 42.666667 0 0 0 42.666667-42.666667V188.330667L665.002667 298.666667l-76.501334 76.501333a42.666667 42.666667 0 0 0 0 60.330667 42.666667 42.666667 0 0 0 60.330667 0l106.666667-106.666667a42.666667 42.666667 0 0 0 0-60.330667l-213.333334-213.333333a42.666667 42.666667 0 0 0-46.506666-9.258667z" fill="#000000" p-id="47148470"/></svg>