<?xml version="1.0" standalone="no"?><!DOCTYPE svg PUBLIC "-//W3C//DTD SVG 1.1//EN" "http://www.w3.org/Graphics/SVG/1.1/DTD/svg11.dtd"><svg viewBox="0 0 1024 1024" version="1.1" xmlns="http://www.w3.org/2000/svg" width="200" height="200" t="1775110619615" class="icon" p-id="47148492" xmlns:xlink="http://www.w3.org/1999/xlink"><path d="M512 256a42.666667 42.666667 0 0 0-42.666667 42.666667v256a42.666667 42.666667 0 0 0 42.666667 42.666666 42.666667 42.666667 0 0 0 42.666667-42.666666V298.666667a42.666667 42.666667 0 0 0-42.666667-42.666667z" fill="#000000" p-id="47148493"/><path d="M768 42.666667a42.666667 42.666667 0 0 0-42.666667 42.666666 42.666667 42.666667 0 0 0 42.666667 42.666667h42.666667v554.666667H277.333333c-46.208 0-86.314667 18.858667-111.914666 47.658666-25.6 28.8-37.418667 65.536-37.418667 101.674667s11.818667 72.874667 37.418667 101.674667S231.125333 981.333333 277.333333 981.333333H810.666667c46.634667 0 85.333333-38.698667 85.333333-85.333333V128c0-46.634667-38.698667-85.333333-85.333333-85.333333zM277.333333 768H810.666667v128H277.333333c-24.874667 0-38.144-7.808-48.085333-18.986667C219.306667 865.792 213.333333 849.194667 213.333333 832c0-17.194667 5.973333-33.792 15.914667-45.013333 9.941333-11.178667 23.210667-18.986667 48.085333-18.986667z" fill="#000000" p-id="47148494"/><path d="M277.333333 42.666667A149.973333 149.973333 0 0 0 128 192v640a42.666667 42.666667 0 0 0 42.666667 42.666667 42.666667 42.666667 0 0 0 42.666666-42.666667v-640C213.333333 156.16 241.493333 128 277.333333 128a42.666667 42.666667 0 0 0 42.666667-42.666667 42.666667 42.666667 0 0 0-42.666667-42.666666zM481.834667 268.501333l-128 128a42.666667 42.666667 0 0 0 0 60.330667 42.666667 42.666667 0 0 0 60.330666 0L512 358.997333l97.834667 97.834667a42.666667 42.666667 0 0 0 60.330666 0 42.666667 42.666667 0 0 0 0-60.330667l-128-128a42.666667 42.666667 0 0 0-60.330666 0z" fill="#000000" p-id="47148495"/><path d="M481.834667 55.168l-128 128a42.666667 42.666667 0 0 0 0 60.330667 42.666667 42.666667 0 0 0 60.330666 0L512 145.664l97.834667 97.834667a42.666667 42.666667 0 0 0 60.330666 0 42.666667 42.666667 0 0 0 0-60.330667l-128-128a42.666667 42.666667 0 0 0-60.330666 0z" fill="#000000" p-id="47148496"/></svg>