<?xml version="1.0" standalone="no"?><!DOCTYPE svg PUBLIC "-//W3C//DTD SVG 1.1//EN" "http://www.w3.org/Graphics/SVG/1.1/DTD/svg11.dtd"><svg viewBox="0 0 1024 1024" version="1.1" xmlns="http://www.w3.org/2000/svg" width="200" height="200" t="1775110619615" class="icon" p-id="47148485" xmlns:xlink="http://www.w3.org/1999/xlink"><path d="M512 256a42.666667 42.666667 0 0 0-42.666667 42.666667v597.333333a42.666667 42.666667 0 0 0 42.666667 42.666667 42.666667 42.666667 0 0 0 42.666667-42.666667V298.666667a42.666667 42.666667 0 0 0-42.666667-42.666667zM682.666667 469.333333a42.666667 42.666667 0 0 0-42.666667 42.666667 42.666667 42.666667 0 0 0 42.666667 42.666667h85.333333a42.666667 42.666667 0 0 0 42.666667-42.666667 42.666667 42.666667 0 0 0-42.666667-42.666667zM682.666667 298.666667a42.666667 42.666667 0 0 0-42.666667 42.666666 42.666667 42.666667 0 0 0 42.666667 42.666667h85.333333a42.666667 42.666667 0 0 0 42.666667-42.666667 42.666667 42.666667 0 0 0-42.666667-42.666666z" fill="#000000" p-id="47148486"/><path d="M128 85.333333c-46.634667 0-85.333333 38.698667-85.333333 85.333334v554.666666c0 46.634667 38.698667 85.333333 85.333333 85.333334h256c47.616 0 85.333333 37.717333 85.333333 85.333333a42.666667 42.666667 0 0 0 85.333334 0c0-47.616 37.717333-85.333333 85.333333-85.333333h256c46.634667 0 85.333333-38.698667 85.333333-85.333334V170.666667c0-46.634667-38.698667-85.333333-85.333333-85.333334h-213.333333c-71.466667 0-131.882667 37.888-170.666667 92.245334C473.216 123.221333 412.8 85.333333 341.333333 85.333333z m0 85.333334h213.333333c71.210667 0 128 56.789333 128 128a42.666667 42.666667 0 0 0 85.333334 0c0-71.210667 56.789333-128 128-128h213.333333v554.666666h-256c-51.626667 0-96.597333 24.576-128 61.269334-31.402667-36.693333-76.373333-61.269333-128-61.269334H128z" fill="#000000" p-id="47148487"/><path d="M256 469.333333a42.666667 42.666667 0 0 0-42.666667 42.666667 42.666667 42.666667 0 0 0 42.666667 42.666667h85.333333a42.666667 42.666667 0 0 0 42.666667-42.666667 42.666667 42.666667 0 0 0-42.666667-42.666667zM256 298.666667a42.666667 42.666667 0 0 0-42.666667 42.666666 42.666667 42.666667 0 0 0 42.666667 42.666667h85.333333a42.666667 42.666667 0 0 0 42.666667-42.666667 42.666667 42.666667 0 0 0-42.666667-42.666666z" fill="#000000" p-id="47148488"/></svg>