<?xml version="1.0" standalone="no"?><!DOCTYPE svg PUBLIC "-//W3C//DTD SVG 1.1//EN" "http://www.w3.org/Graphics/SVG/1.1/DTD/svg11.dtd"><svg viewBox="0 0 1024 1024" version="1.1" xmlns="http://www.w3.org/2000/svg" width="200" height="200" t="1775110619617" class="icon" p-id="47148510" xmlns:xlink="http://www.w3.org/1999/xlink"><path d="M583.253333 298.666667a42.666667 42.666667 0 0 0-42.666666 42.666666 42.666667 42.666667 0 0 0 42.666666 42.666667H768c24.064 0 42.666667 18.602667 42.666667 42.666667v184.746666a42.666667 42.666667 0 0 0 42.666666 42.666667 42.666667 42.666667 0 0 0 42.666667-42.666667V426.666667c0-70.186667-57.813333-128-128-128zM85.333333 554.666667a42.666667 42.666667 0 0 0-42.666666 42.666666 42.666667 42.666667 0 0 0 42.666666 42.666667h85.333334a42.666667 42.666667 0 0 0 42.666666-42.666667 42.666667 42.666667 0 0 0-42.666666-42.666666z" fill="#000000" p-id="47148511"/><path d="M853.333333 554.666667a42.666667 42.666667 0 0 0-42.666666 42.666666 42.666667 42.666667 0 0 0 42.666666 42.666667h85.333334a42.666667 42.666667 0 0 0 42.666666-42.666667 42.666667 42.666667 0 0 0-42.666666-42.666666zM55.168 55.168a42.666667 42.666667 0 0 0 0 60.330667l853.333333 853.333333a42.666667 42.666667 0 0 0 60.330667 0 42.666667 42.666667 0 0 0 0-60.330667l-853.333333-853.333333a42.666667 42.666667 0 0 0-60.330667 0z" fill="#000000" p-id="47148512"/><path d="M256 298.666667c-70.186667 0-128 57.813333-128 128v341.333333c0 70.186667 57.813333 128 128 128h512c33.92 0 66.517333-13.525333 90.496-37.504a42.666667 42.666667 0 0 0 0-60.330667 42.666667 42.666667 0 0 0-60.330667 0A42.624 42.624 0 0 1 768 810.666667H256c-24.064 0-42.666667-18.602667-42.666667-42.666667v-341.333333c0-24.064 18.602667-42.666667 42.666667-42.666667h85.333333a42.666667 42.666667 0 0 0 42.666667-42.666667 42.666667 42.666667 0 0 0-42.666667-42.666666z" fill="#000000" p-id="47148513"/><path d="M384 512a42.666667 42.666667 0 0 0-42.666667 42.666667v85.333333a42.666667 42.666667 0 0 0 42.666667 42.666667 42.666667 42.666667 0 0 0 42.666667-42.666667v-85.333333a42.666667 42.666667 0 0 0-42.666667-42.666667zM412.586667 128a42.666667 42.666667 0 0 0-42.666667 42.666667 42.666667 42.666667 0 0 0 42.666667 42.666666H469.333333v56.746667a42.666667 42.666667 0 0 0 42.666667 42.666667 42.666667 42.666667 0 0 0 42.666667-42.666667V170.666667a42.666667 42.666667 0 0 0-42.666667-42.666667z" fill="#000000" p-id="47148514"/></svg>