<?xml version="1.0" encoding="UTF-8"?>
<svg class="icon" viewBox="0 0 1024 1024" version="1.1" xmlns="http://www.w3.org/2000/svg" p-id="3180" width="1024" height="1024"><path d="M544 806.016V168a31.168 31.168 0 0 0-8.96-23.04 31.168 31.168 0 0 0-23.04-8.96 31.168 31.168 0 0 0-23.04 8.96 31.168 31.168 0 0 0-8.96 23.04v638.016L247.04 558.016a31.616 31.616 0 0 0-23.04-9.984 29.44 29.44 0 0 0-22.528 10.432 34.112 34.112 0 0 0-9.472 23.488c0 8.704 3.008 16.64 8.96 24.064l288 305.984a31.616 31.616 0 0 0 23.04 9.984 31.616 31.616 0 0 0 23.04-9.984l288-305.984a37.12 37.12 0 0 0 8.96-24 34.112 34.112 0 0 0-9.536-23.488 29.44 29.44 0 0 0-22.464-10.56 31.616 31.616 0 0 0-23.04 10.048L544 806.016z" fill="#383838" p-id="3181"></path></svg>