<?xml version="1.0" standalone="no"?><!DOCTYPE svg PUBLIC "-//W3C//DTD SVG 1.1//EN" "http://www.w3.org/Graphics/SVG/1.1/DTD/svg11.dtd"><svg viewBox="0 0 1024 1024" version="1.1" xmlns="http://www.w3.org/2000/svg" width="200" height="200" t="1775110619617" class="icon" p-id="47148511" xmlns:xlink="http://www.w3.org/1999/xlink"><path d="M682.666667 85.333333a42.666667 42.666667 0 0 0-42.666667 42.666667 42.666667 42.666667 0 0 0 42.666667 42.666667h128v682.666666h-128a42.666667 42.666667 0 0 0-42.666667 42.666667 42.666667 42.666667 0 0 0 42.666667 42.666667h128c46.634667 0 85.333333-38.698667 85.333333-85.333334V170.666667c0-46.634667-38.698667-85.333333-85.333333-85.333334zM213.333333 85.333333c-46.634667 0-85.333333 38.698667-85.333333 85.333334v682.666666c0 46.634667 38.698667 85.333333 85.333333 85.333334h128a42.666667 42.666667 0 0 0 42.666667-42.666667 42.666667 42.666667 0 0 0-42.666667-42.666667H213.333333V170.666667h128a42.666667 42.666667 0 0 0 42.666667-42.666667 42.666667 42.666667 0 0 0-42.666667-42.666667z" fill="#000000" p-id="47148512"/></svg>