<?xml version="1.0" standalone="no"?><!DOCTYPE svg PUBLIC "-//W3C//DTD SVG 1.1//EN" "http://www.w3.org/Graphics/SVG/1.1/DTD/svg11.dtd"><svg viewBox="0 0 1024 1024" version="1.1" xmlns="http://www.w3.org/2000/svg" width="200" height="200" t="1775110619618" class="icon" p-id="47148524" xmlns:xlink="http://www.w3.org/1999/xlink"><path d="M426.666667 810.666667a42.666667 42.666667 0 0 0-42.666667 42.666666v85.333334a42.666667 42.666667 0 0 0 42.666667 42.666666 42.666667 42.666667 0 0 0 42.666666-42.666666v-85.333334a42.666667 42.666667 0 0 0-42.666666-42.666666zM597.333333 810.666667a42.666667 42.666667 0 0 0-42.666666 42.666666v85.333334a42.666667 42.666667 0 0 0 42.666666 42.666666 42.666667 42.666667 0 0 0 42.666667-42.666666v-85.333334a42.666667 42.666667 0 0 0-42.666667-42.666666zM768 810.666667a42.666667 42.666667 0 0 0-42.666667 42.666666v85.333334a42.666667 42.666667 0 0 0 42.666667 42.666666 42.666667 42.666667 0 0 0 42.666667-42.666666v-85.333334a42.666667 42.666667 0 0 0-42.666667-42.666666z" fill="#000000" p-id="47148525"/><path d="M128 810.666667a42.666667 42.666667 0 0 0-42.666667 42.666666 42.666667 42.666667 0 0 0 42.666667 42.666667h768a42.666667 42.666667 0 0 0 42.666667-42.666667 42.666667 42.666667 0 0 0-42.666667-42.666666z" fill="#000000" p-id="47148526"/><path d="M256 810.666667a42.666667 42.666667 0 0 0-42.666667 42.666666v85.333334a42.666667 42.666667 0 0 0 42.666667 42.666666 42.666667 42.666667 0 0 0 42.666667-42.666666v-85.333334a42.666667 42.666667 0 0 0-42.666667-42.666666zM426.666667 42.666667C356.48 42.666667 298.666667 100.48 298.666667 170.666667v512a42.666667 42.666667 0 0 0 42.666666 42.666666 42.666667 42.666667 0 0 0 42.666667-42.666666V170.666667c0-24.064 18.602667-42.666667 42.666667-42.666667h170.666666c24.064 0 42.666667 18.602667 42.666667 42.666667v512a42.666667 42.666667 0 0 0 42.666667 42.666666 42.666667 42.666667 0 0 0 42.666666-42.666666V170.666667c0-70.186667-57.813333-128-128-128z" fill="#000000" p-id="47148527"/><path d="M256 213.333333C185.813333 213.333333 128 271.146667 128 341.333333v256c0 70.186667 57.813333 128 128 128h512c70.186667 0 128-57.813333 128-128V341.333333c0-70.186667-57.813333-128-128-128z m0 85.333334h512c24.362667 0 42.666667 18.304 42.666667 42.666666v256c0 24.362667-18.304 42.666667-42.666667 42.666667H256c-24.362667 0-42.666667-18.304-42.666667-42.666667V341.333333c0-24.362667 18.304-42.666667 42.666667-42.666666z" fill="#000000" p-id="47148528"/></svg>