<?xml version="1.0" encoding="UTF-8"?>
<svg class="icon" viewBox="0 0 1024 1024" version="1.1" xmlns="http://www.w3.org/2000/svg" p-id="5670" width="1024" height="1024"><path d="M213.312 275.904a128 128 0 0 0-128 128V768a128 128 0 0 0 128 128h597.376a128 128 0 0 0 128-128V403.84a128 128 0 0 0-128-128H213.312z m725.312 196.48h-296.256v57.28c0 44.16-37.12 80.064-82.944 80.064H464.64c-45.824 0-82.944-35.84-82.944-80.064v-57.216h-296.32V403.776h853.248v68.672z m-485.824 0h118.464v57.28a11.648 11.648 0 0 1-11.84 11.392H464.64a11.648 11.648 0 0 1-11.84-11.392v-57.216z" fill="#383838" p-id="5671"></path><path d="M376.96 208a16 16 0 0 0-16 16v51.904h-96V224c0-61.824 50.112-112 112-112h270.144c61.888 0 112 50.176 112 112v51.904h-96V224a16 16 0 0 0-16-16H376.96z" fill="#383838" p-id="5672"></path></svg>