<?xml version="1.0" encoding="UTF-8"?>
<svg class="icon" viewBox="0 0 1024 1024" version="1.1" xmlns="http://www.w3.org/2000/svg" p-id="5004" width="1024" height="1024"><path d="M160 224a64 64 0 0 0-64 64v512a64 64 0 0 0 64 64h704a64 64 0 0 0 64-64v-512a64 64 0 0 0-64-64h-115.584l-46.464-92.672a64 64 0 0 0-57.216-35.328H379.328a64 64 0 0 0-57.216 35.392L275.776 224H160zM512 659.2a115.2 115.2 0 1 0 0-230.4 115.2 115.2 0 0 0 0 230.4z m0 140.8a256 256 0 1 1 0-512 256 256 0 0 1 0 512z" fill="#383838" p-id="5005"></path></svg>