<?xml version="1.0" standalone="no"?><!DOCTYPE svg PUBLIC "-//W3C//DTD SVG 1.1//EN" "http://www.w3.org/Graphics/SVG/1.1/DTD/svg11.dtd"><svg viewBox="0 0 1024 1024" version="1.1" xmlns="http://www.w3.org/2000/svg" width="200" height="200" t="1775110619621" class="icon" p-id="47149256" xmlns:xlink="http://www.w3.org/1999/xlink"><path d="M448 170.666667a42.666667 42.666667 0 0 0-42.666667 42.666666 42.666667 42.666667 0 0 0 42.666667 42.666667H810.666667c24.064 0 42.666667 18.602667 42.666666 42.666667v362.666666a42.666667 42.666667 0 0 0 42.666667 42.666667 42.666667 42.666667 0 0 0 42.666667-42.666667V298.666667c0-70.186667-57.813333-128-128-128z" fill="#000000" p-id="47149257"/><path d="M704 426.666667a42.666667 42.666667 0 0 0-42.666667 42.666666 42.666667 42.666667 0 0 0 42.666667 42.666667h21.333333a42.666667 42.666667 0 0 0 42.666667-42.666667 42.666667 42.666667 0 0 0-42.666667-42.666666zM213.333333 170.666667C143.146667 170.666667 85.333333 228.48 85.333333 298.666667v426.666666c0 70.186667 57.813333 128 128 128h597.333334a42.666667 42.666667 0 0 0 42.666666-42.666666 42.666667 42.666667 0 0 0-42.666666-42.666667H213.333333c-24.064 0-42.666667-18.602667-42.666666-42.666667V298.666667c0-24.064 18.602667-42.666667 42.666666-42.666667a42.666667 42.666667 0 0 0 42.666667-42.666667 42.666667 42.666667 0 0 0-42.666667-42.666666z" fill="#000000" p-id="47149258"/><path d="M55.168 55.168a42.666667 42.666667 0 0 0 0 60.330667l853.333333 853.333333a42.666667 42.666667 0 0 0 60.330667 0 42.666667 42.666667 0 0 0 0-60.330667l-853.333333-853.333333a42.666667 42.666667 0 0 0-60.330667 0z" fill="#000000" p-id="47149259"/><path d="M298.666667 426.666667a42.666667 42.666667 0 0 0-42.666667 42.666666 42.666667 42.666667 0 0 0 42.666667 42.666667h170.666666a42.666667 42.666667 0 0 0 42.666667-42.666667 42.666667 42.666667 0 0 0-42.666667-42.666666zM298.666667 597.333333a42.666667 42.666667 0 0 0-42.666667 42.666667 42.666667 42.666667 0 0 0 42.666667 42.666667h106.666666a42.666667 42.666667 0 0 0 42.666667-42.666667 42.666667 42.666667 0 0 0-42.666667-42.666667z" fill="#000000" p-id="47149260"/></svg>