<?xml version="1.0" standalone="no"?><!DOCTYPE svg PUBLIC "-//W3C//DTD SVG 1.1//EN" "http://www.w3.org/Graphics/SVG/1.1/DTD/svg11.dtd"><svg viewBox="0 0 1024 1024" version="1.1" xmlns="http://www.w3.org/2000/svg" width="200" height="200" t="1775110619623" class="icon" p-id="47149478" xmlns:xlink="http://www.w3.org/1999/xlink"><path d="M128 85.333333a42.666667 42.666667 0 0 0-42.666667 42.666667v682.666667c0 70.186667 57.813333 128 128 128h682.666667a42.666667 42.666667 0 0 0 42.666667-42.666667 42.666667 42.666667 0 0 0-42.666667-42.666667H213.333333c-24.064 0-42.666667-18.602667-42.666666-42.666666V128a42.666667 42.666667 0 0 0-42.666667-42.666667z" fill="#000000" p-id="47149479"/><path d="M780.501333 353.834667L597.333333 537.002667l-140.501333-140.501334a42.666667 42.666667 0 0 0-60.330667 0l-128 128a42.666667 42.666667 0 0 0 0 60.330667 42.666667 42.666667 0 0 0 60.330667 0L426.666667 486.997333l140.501333 140.501334a42.666667 42.666667 0 0 0 60.330667 0l213.333333-213.333334a42.666667 42.666667 0 0 0 0-60.330666 42.666667 42.666667 0 0 0-60.330667 0z" fill="#000000" p-id="47149480"/></svg>