<?xml version="1.0" standalone="no"?><!DOCTYPE svg PUBLIC "-//W3C//DTD SVG 1.1//EN" "http://www.w3.org/Graphics/SVG/1.1/DTD/svg11.dtd"><svg viewBox="0 0 1024 1024" version="1.1" xmlns="http://www.w3.org/2000/svg" width="200" height="200" t="1775110619623" class="icon" p-id="47149479" xmlns:xlink="http://www.w3.org/1999/xlink"><path d="M535.68 291.498667a42.666667 42.666667 0 0 0-11.861333 59.178666l76.032 114.005334a42.666667 42.666667 0 0 0 59.136 11.818666 42.666667 42.666667 0 0 0 11.861333-59.178666L594.773333 303.36a42.666667 42.666667 0 0 0-59.136-11.818667zM587.434667 506.453333l-141.866667 60.714667a42.666667 42.666667 0 0 0-22.4 55.978667 42.666667 42.666667 0 0 0 56.064 22.442666l141.866667-60.757333a42.666667 42.666667 0 0 0 22.4-55.978667 42.666667 42.666667 0 0 0-56.064-22.442666zM843.008 129.28l-258.56 64.64a42.666667 42.666667 0 0 0-31.018667 51.754667 42.666667 42.666667 0 0 0 51.626667 30.976l258.602667-64.554667a42.666667 42.666667 0 0 0 31.104-51.754667 42.666667 42.666667 0 0 0-51.754667-31.104z" fill="#000000" p-id="47149480"/><path d="M128 85.333333a42.666667 42.666667 0 0 0-42.666667 42.666667v682.666667c0 70.186667 57.813333 128 128 128h682.666667a42.666667 42.666667 0 0 0 42.666667-42.666667 42.666667 42.666667 0 0 0-42.666667-42.666667H213.333333c-24.064 0-42.666667-18.602667-42.666666-42.666666V128a42.666667 42.666667 0 0 0-42.666667-42.666667zM512 128c-70.186667 0-128 57.813333-128 128s57.813333 128 128 128 128-57.813333 128-128-57.813333-128-128-128z m0 85.333333c24.064 0 42.666667 18.602667 42.666667 42.666667 0 24.064-18.602667 42.666667-42.666667 42.666667-24.064 0-42.666667-18.602667-42.666667-42.666667 0-24.064 18.602667-42.666667 42.666667-42.666667z" fill="#000000" p-id="47149481"/><path d="M682.666667 384c-70.186667 0-128 57.813333-128 128s57.813333 128 128 128 128-57.813333 128-128-57.813333-128-128-128z m0 85.333333c24.064 0 42.666667 18.602667 42.666666 42.666667 0 24.064-18.602667 42.666667-42.666666 42.666667-24.064 0-42.666667-18.602667-42.666667-42.666667 0-24.064 18.602667-42.666667 42.666667-42.666667zM384 512c-70.186667 0-128 57.813333-128 128s57.813333 128 128 128 128-57.813333 128-128-57.813333-128-128-128z m0 85.333333c24.064 0 42.666667 18.602667 42.666667 42.666667 0 24.064-18.602667 42.666667-42.666667 42.666667-24.064 0-42.666667-18.602667-42.666667-42.666667 0-24.064 18.602667-42.666667 42.666667-42.666667z" fill="#000000" p-id="47149482"/></svg>