<?xml version="1.0" standalone="no"?><!DOCTYPE svg PUBLIC "-//W3C//DTD SVG 1.1//EN" "http://www.w3.org/Graphics/SVG/1.1/DTD/svg11.dtd"><svg viewBox="0 0 1024 1024" version="1.1" xmlns="http://www.w3.org/2000/svg" width="200" height="200" t="1775110619623" class="icon" p-id="47149472" xmlns:xlink="http://www.w3.org/1999/xlink"><path d="M298.666667 512a42.666667 42.666667 0 0 0-42.666667 42.666667 42.666667 42.666667 0 0 0 42.666667 42.666666h170.666666a42.666667 42.666667 0 0 0 42.666667-42.666666 42.666667 42.666667 0 0 0-42.666667-42.666667zM640 341.333333a42.666667 42.666667 0 0 0-42.666667 42.666667 42.666667 42.666667 0 0 0 42.666667 42.666667h170.666667a42.666667 42.666667 0 0 0 42.666666-42.666667 42.666667 42.666667 0 0 0-42.666666-42.666667z" fill="#000000" p-id="47149473"/><path d="M128 85.333333a42.666667 42.666667 0 0 0-42.666667 42.666667v682.666667c0 70.186667 57.813333 128 128 128h682.666667a42.666667 42.666667 0 0 0 42.666667-42.666667 42.666667 42.666667 0 0 0-42.666667-42.666667H213.333333c-24.064 0-42.666667-18.602667-42.666666-42.666666V128a42.666667 42.666667 0 0 0-42.666667-42.666667z" fill="#000000" p-id="47149474"/><path d="M682.666667 170.666667c-46.506667 0-85.333333 38.826667-85.333334 85.333333v426.666667c0 46.506667 38.826667 85.333333 85.333334 85.333333h85.333333c46.506667 0 85.333333-38.826667 85.333333-85.333333V256c0-46.506667-38.826667-85.333333-85.333333-85.333333z m0 85.333333h85.333333v426.666667h-85.333333zM341.333333 298.666667c-46.506667 0-85.333333 38.826667-85.333333 85.333333v298.666667c0 46.506667 38.826667 85.333333 85.333333 85.333333h85.333334c46.506667 0 85.333333-38.826667 85.333333-85.333333V384c0-46.506667-38.826667-85.333333-85.333333-85.333333z m0 85.333333h85.333334v298.666667H341.333333z" fill="#000000" p-id="47149475"/></svg>