<?xml version="1.0" encoding="UTF-8"?>
<svg class="icon" viewBox="0 0 1024 1024" version="1.1" xmlns="http://www.w3.org/2000/svg" p-id="2622" width="1024" height="1024"><path d="M174.72 855.68l130.048-43.392 23.424 11.392c54.208 26.304 116.16 40.32 183.808 40.32 223.744 0 384-159.872 384-352 0-192.832-159.104-352-384-352S128 319.168 128 512a341.12 341.12 0 0 0 69.248 204.288l21.632 28.8-44.16 110.528v0.064z m-45.248 82.56A32 32 0 0 1 89.6 896l56.512-141.248A405.12 405.12 0 0 1 64 512c0-212.096 171.648-416 448-416s448 203.904 448 416-173.44 416-448 416c-79.68 0-150.848-17.152-211.712-46.72l-170.88 56.96h0.064z" fill="#383838" p-id="2623"></path></svg>