<?xml version="1.0" encoding="UTF-8"?>
<svg class="icon" viewBox="0 0 1024 1024" version="1.1" xmlns="http://www.w3.org/2000/svg" p-id="2574" width="1024" height="1024"><path d="M160 826.88l113.536-90.88H800a64 64 0 0 0 64-64V256a64 64 0 0 0-64-64h-576a64 64 0 0 0-64 64v570.88z m136-26.88l-148.032 118.4a32 32 0 0 1-51.968-24.96V256a128 128 0 0 1 128-128h576a128 128 0 0 1 128 128v416a128 128 0 0 1-128 128H296z" fill="#383838" p-id="2575"></path><path d="M352 512h320c21.312 0 32 10.688 32 32 0 21.312-10.688 32-32 32h-320c-21.312 0-32-10.688-32-32 0-21.312 10.688-32 32-32z m0-192h320c21.312 0 32 10.688 32 32 0 21.312-10.688 32-32 32h-320c-21.312 0-32-10.688-32-32 0-21.312 10.688-32 32-32z" fill="#383838" p-id="2576"></path></svg>