<?xml version="1.0" encoding="UTF-8"?>
<svg class="icon" viewBox="0 0 1024 1024" version="1.1" xmlns="http://www.w3.org/2000/svg" p-id="2597" width="1024" height="1024"><path d="M273.536 736H800a64 64 0 0 0 64-64V256a64 64 0 0 0-64-64h-576a64 64 0 0 0-64 64v570.88l113.536-90.88z m22.464 64l-148.032 118.4a32 32 0 0 1-51.968-24.96V256a128 128 0 0 1 128-128h576a128 128 0 0 1 128 128v416a128 128 0 0 1-128 128H296z" fill="#383838" p-id="2598"></path><path d="M512 499.2a51.2 51.2 0 1 1 0-102.4 51.2 51.2 0 0 1 0 102.4z m192 0a51.2 51.2 0 1 1 0-102.4 51.2 51.2 0 0 1 0 102.4z m-384 0a51.2 51.2 0 1 1 0-102.4 51.2 51.2 0 0 1 0 102.4z" fill="#383838" p-id="2599"></path></svg>