<?xml version="1.0" standalone="no"?><!DOCTYPE svg PUBLIC "-//W3C//DTD SVG 1.1//EN" "http://www.w3.org/Graphics/SVG/1.1/DTD/svg11.dtd"><svg viewBox="0 0 1024 1024" version="1.1" xmlns="http://www.w3.org/2000/svg" width="200" height="200" t="1775110619623" class="icon" p-id="47149486" xmlns:xlink="http://www.w3.org/1999/xlink"><path d="M823.168 140.501333l-469.333333 469.333334a42.666667 42.666667 0 0 0 0 60.330666 42.666667 42.666667 0 0 0 60.330666 0l469.333334-469.333333a42.666667 42.666667 0 0 0 0-60.330667 42.666667 42.666667 0 0 0-60.330667 0zM128 768a42.666667 42.666667 0 0 0-42.666667 42.666667 42.666667 42.666667 0 0 0 42.666667 42.666666h768a42.666667 42.666667 0 0 0 42.666667-42.666666 42.666667 42.666667 0 0 0-42.666667-42.666667z" fill="#000000" p-id="47149487"/><path d="M170.666667 384a42.666667 42.666667 0 0 0-30.165334 12.501333 42.666667 42.666667 0 0 0 0 60.330667l213.333334 213.333333a42.666667 42.666667 0 0 0 60.330666 0 42.666667 42.666667 0 0 0 0-60.330666l-213.333333-213.333334A42.666667 42.666667 0 0 0 170.666667 384z" fill="#000000" p-id="47149488"/></svg>