<?xml version="1.0" standalone="no"?><!DOCTYPE svg PUBLIC "-//W3C//DTD SVG 1.1//EN" "http://www.w3.org/Graphics/SVG/1.1/DTD/svg11.dtd"><svg viewBox="0 0 1024 1024" version="1.1" xmlns="http://www.w3.org/2000/svg" width="200" height="200" t="1775110619626" class="icon" p-id="47149543" xmlns:xlink="http://www.w3.org/1999/xlink"><path d="M469.333333 256a42.666667 42.666667 0 0 0-30.165333 12.501333l-213.333333 213.333334a42.666667 42.666667 0 0 0 0 60.330666l213.333333 213.333334a42.666667 42.666667 0 0 0 60.330667 0 42.666667 42.666667 0 0 0 0-60.330667L316.330667 512l183.168-183.168a42.666667 42.666667 0 0 0 0-60.330667A42.666667 42.666667 0 0 0 469.333333 256z" fill="#000000" p-id="47149544"/><path d="M737.834667 268.501333l-213.333334 213.333334a42.666667 42.666667 0 0 0 0 60.330666l213.333334 213.333334a42.666667 42.666667 0 0 0 60.330666 0 42.666667 42.666667 0 0 0 0-60.330667L614.997333 512l183.168-183.168a42.666667 42.666667 0 0 0 0-60.330667 42.666667 42.666667 0 0 0-60.330666 0z" fill="#000000" p-id="47149545"/></svg>