<?xml version="1.0" standalone="no"?><!DOCTYPE svg PUBLIC "-//W3C//DTD SVG 1.1//EN" "http://www.w3.org/Graphics/SVG/1.1/DTD/svg11.dtd"><svg viewBox="0 0 1024 1024" version="1.1" xmlns="http://www.w3.org/2000/svg" width="200" height="200" t="1775110619624" class="icon" p-id="47149509" xmlns:xlink="http://www.w3.org/1999/xlink"><path d="M481.834667 609.834667l-213.333334 213.333333a42.666667 42.666667 0 0 0 0 60.330667 42.666667 42.666667 0 0 0 60.330667 0L512 700.330667l183.168 183.168a42.666667 42.666667 0 0 0 60.330667 0 42.666667 42.666667 0 0 0 0-60.330667l-213.333334-213.333333a42.666667 42.666667 0 0 0-60.330666 0zM298.666667 128a42.666667 42.666667 0 0 0-30.165334 12.501333 42.666667 42.666667 0 0 0 0 60.330667l213.333334 213.333333a42.666667 42.666667 0 0 0 60.330666 0l213.333334-213.333333a42.666667 42.666667 0 0 0 0-60.330667 42.666667 42.666667 0 0 0-60.330667 0L512 323.669333 328.832 140.501333A42.666667 42.666667 0 0 0 298.666667 128z" fill="#000000" p-id="47149510"/></svg>