<?xml version="1.0" standalone="no"?><!DOCTYPE svg PUBLIC "-//W3C//DTD SVG 1.1//EN" "http://www.w3.org/Graphics/SVG/1.1/DTD/svg11.dtd"><svg viewBox="0 0 1024 1024" version="1.1" xmlns="http://www.w3.org/2000/svg" width="200" height="200" t="1775110619623" class="icon" p-id="47149488" xmlns:xlink="http://www.w3.org/1999/xlink"><path d="M298.666667 213.333333a42.666667 42.666667 0 0 0-30.165334 12.501334 42.666667 42.666667 0 0 0 0 60.330666L494.336 512l-225.834667 225.834667a42.666667 42.666667 0 0 0 0 60.330666 42.666667 42.666667 0 0 0 60.330667 0l256-256a42.666667 42.666667 0 0 0 0-60.330666l-256-256A42.666667 42.666667 0 0 0 298.666667 213.333333zM725.333333 213.333333a42.666667 42.666667 0 0 0-42.666666 42.666667v512a42.666667 42.666667 0 0 0 42.666666 42.666667 42.666667 42.666667 0 0 0 42.666667-42.666667V256a42.666667 42.666667 0 0 0-42.666667-42.666667z" fill="#000000" p-id="47149489"/></svg>