<?xml version="1.0" standalone="no"?><!DOCTYPE svg PUBLIC "-//W3C//DTD SVG 1.1//EN" "http://www.w3.org/Graphics/SVG/1.1/DTD/svg11.dtd"><svg viewBox="0 0 1024 1024" version="1.1" xmlns="http://www.w3.org/2000/svg" width="200" height="200" t="1775110619624" class="icon" p-id="47149503" xmlns:xlink="http://www.w3.org/1999/xlink"><path d="M512 469.333333a42.666667 42.666667 0 0 0-42.666667 42.666667 42.666667 42.666667 0 0 0 42.666667 42.666667h0.426667a42.666667 42.666667 0 0 0 42.666666-42.666667 42.666667 42.666667 0 0 0-42.666666-42.666667zM682.666667 469.333333a42.666667 42.666667 0 0 0-42.666667 42.666667 42.666667 42.666667 0 0 0 42.666667 42.666667h0.426666a42.666667 42.666667 0 0 0 42.666667-42.666667 42.666667 42.666667 0 0 0-42.666667-42.666667z" fill="#000000" p-id="47149504"/><path d="M695.168 268.501333a42.666667 42.666667 0 0 0 0 60.330667L878.336 512l-183.168 183.168a42.666667 42.666667 0 0 0 0 60.330667 42.666667 42.666667 0 0 0 60.330667 0l213.333333-213.333334a42.666667 42.666667 0 0 0 0-60.330666l-213.333333-213.333334a42.666667 42.666667 0 0 0-60.330667 0zM298.666667 256a42.666667 42.666667 0 0 0-30.165334 12.501333l-213.333333 213.333334a42.666667 42.666667 0 0 0 0 60.330666l213.333333 213.333334a42.666667 42.666667 0 0 0 60.330667 0 42.666667 42.666667 0 0 0 0-60.330667L145.664 512l183.168-183.168a42.666667 42.666667 0 0 0 0-60.330667A42.666667 42.666667 0 0 0 298.666667 256z" fill="#000000" p-id="47149505"/><path d="M341.333333 469.333333a42.666667 42.666667 0 0 0-42.666666 42.666667 42.666667 42.666667 0 0 0 42.666666 42.666667h0.426667a42.666667 42.666667 0 0 0 42.666667-42.666667 42.666667 42.666667 0 0 0-42.666667-42.666667z" fill="#000000" p-id="47149506"/></svg>