<?xml version="1.0" standalone="no"?><!DOCTYPE svg PUBLIC "-//W3C//DTD SVG 1.1//EN" "http://www.w3.org/Graphics/SVG/1.1/DTD/svg11.dtd"><svg viewBox="0 0 1024 1024" version="1.1" xmlns="http://www.w3.org/2000/svg" width="200" height="200" t="1775110619624" class="icon" p-id="47149505" xmlns:xlink="http://www.w3.org/1999/xlink"><path d="M256 256a42.666667 42.666667 0 0 0-30.165333 12.501333 42.666667 42.666667 0 0 0 0 60.330667L409.002667 512l-183.168 183.168a42.666667 42.666667 0 0 0 0 60.330667 42.666667 42.666667 0 0 0 60.330666 0l213.333334-213.333334a42.666667 42.666667 0 0 0 0-60.330666l-213.333334-213.333334A42.666667 42.666667 0 0 0 256 256z" fill="#000000" p-id="47149506"/><path d="M554.666667 256a42.666667 42.666667 0 0 0-30.165334 12.501333 42.666667 42.666667 0 0 0 0 60.330667L707.669333 512l-183.168 183.168a42.666667 42.666667 0 0 0 0 60.330667 42.666667 42.666667 0 0 0 60.330667 0l213.333333-213.333334a42.666667 42.666667 0 0 0 0-60.330666l-213.333333-213.333334A42.666667 42.666667 0 0 0 554.666667 256z" fill="#000000" p-id="47149507"/></svg>