<?xml version="1.0" encoding="UTF-8"?>
<svg class="icon" viewBox="0 0 1024 1024" version="1.1" xmlns="http://www.w3.org/2000/svg" p-id="5180" width="1024" height="1024"><path d="M938.688 512c0-44.608-6.848-87.616-19.584-128h-236.416c27.776 36.928 42.752 81.856 42.688 128a212.352 212.352 0 0 1-30.464 109.888L512 938.688A426.688 426.688 0 0 0 938.688 512z" fill="#383838" p-id="5181"></path><path d="M576.768 401.6A127.936 127.936 0 0 0 400 573.888l1.28 2.112a127.872 127.872 0 0 0 220.544 1.92L622.848 576a128 128 0 0 0-46.08-174.4z" fill="#383838" p-id="5182"></path><path d="M394.432 333.952A213.312 213.312 0 0 1 512 298.688h369.6A426.496 426.496 0 0 0 512 85.312a425.6 425.6 0 0 0-314.368 138.24L315.776 428.16c16.448-38.4 43.776-71.168 78.72-94.208zM512 938.688z m-97.28-236.736a213.312 213.312 0 0 1-89.536-86.784L142.464 298.624a426.88 426.88 0 0 0 276.8 629.952h0.064L537.6 723.84c-42.24 5.12-84.928-2.56-122.752-21.888z" fill="#383838" p-id="5183"></path></svg>