<?xml version="1.0" encoding="UTF-8"?>
<svg class="icon" viewBox="0 0 1024 1024" version="1.1" xmlns="http://www.w3.org/2000/svg" p-id="2609" width="1024" height="1024"><path d="M352 480h320a32 32 0 0 1 0 64h-320a32 32 0 1 1 0-64z" fill="#383838" p-id="2610"></path><path d="M480 672v-320a32 32 0 1 1 64 0v320a32 32 0 0 1-64 0z" fill="#383838" p-id="2611"></path><path d="M512 896A384 384 0 1 0 512 127.936 384 384 0 0 0 512 896z m0 64A448 448 0 1 1 512 64a448 448 0 0 1 0 896z" fill="#383838" p-id="2612"></path></svg>