<?xml version="1.0" standalone="no"?><!DOCTYPE svg PUBLIC "-//W3C//DTD SVG 1.1//EN" "http://www.w3.org/Graphics/SVG/1.1/DTD/svg11.dtd"><svg viewBox="0 0 1024 1024" version="1.1" xmlns="http://www.w3.org/2000/svg" width="200" height="200" t="1775110619627" class="icon" p-id="47149554" xmlns:xlink="http://www.w3.org/1999/xlink"><path d="M512 42.666667C253.312 42.666667 42.666667 253.312 42.666667 512s210.645333 469.333333 469.333333 469.333333 469.333333-210.645333 469.333333-469.333333S770.688 42.666667 512 42.666667z m0 85.333333c212.565333 0 384 171.434667 384 384s-171.434667 384-384 384-384-171.434667-384-384 171.434667-384 384-384z" fill="#000000" p-id="47149555"/><path d="M426.666667 341.333333c-46.506667 0-85.333333 38.826667-85.333334 85.333334v170.666666c0 46.506667 38.826667 85.333333 85.333334 85.333334h170.666666c46.506667 0 85.333333-38.826667 85.333334-85.333334v-170.666666c0-46.506667-38.826667-85.333333-85.333334-85.333334z m0 85.333334h170.666666v170.666666h-170.666666z" fill="#000000" p-id="47149556"/></svg>