<?xml version="1.0" standalone="no"?><!DOCTYPE svg PUBLIC "-//W3C//DTD SVG 1.1//EN" "http://www.w3.org/Graphics/SVG/1.1/DTD/svg11.dtd"><svg viewBox="0 0 1024 1024" version="1.1" xmlns="http://www.w3.org/2000/svg" width="200" height="200" t="1775110619625" class="icon" p-id="47149517" xmlns:xlink="http://www.w3.org/1999/xlink"><path d="M460.416 45.226667a477.226667 477.226667 0 0 0-128 33.194666C169.557333 145.834667 42.666667 304.725333 42.666667 512a42.666667 42.666667 0 0 0 42.666666 42.666667 42.666667 42.666667 0 0 0 42.666667-42.666667c0-172.885333 102.954667-299.178667 237.098667-354.730667 134.101333-55.552 296.192-38.997333 418.389333 83.2 122.24 122.24 138.794667 284.330667 83.242667 418.432C811.178667 793.045333 684.885333 896 512 896a42.666667 42.666667 0 0 0-42.666667 42.666667 42.666667 42.666667 0 0 0 42.666667 42.666666c207.274667 0 366.122667-126.890667 433.578667-289.749333 67.413333-162.858667 44.8-364.885333-101.76-511.402667-109.909333-109.909333-251.008-150.144-383.402667-134.912z" fill="#000000" p-id="47149518"/><path d="M512 469.333333a42.666667 42.666667 0 0 0-30.165333 12.501334l-426.666667 426.666666a42.666667 42.666667 0 0 0 0 60.330667 42.666667 42.666667 0 0 0 60.330667 0l426.666666-426.666667a42.666667 42.666667 0 0 0 0-60.330666A42.666667 42.666667 0 0 0 512 469.333333z" fill="#000000" p-id="47149519"/><path d="M85.333333 640a42.666667 42.666667 0 0 0-42.666666 42.666667v256a42.666667 42.666667 0 0 0 42.666666 42.666666h256a42.666667 42.666667 0 0 0 42.666667-42.666666 42.666667 42.666667 0 0 0-42.666667-42.666667H128v-213.333333a42.666667 42.666667 0 0 0-42.666667-42.666667z" fill="#000000" p-id="47149520"/></svg>