<?xml version="1.0" standalone="no"?><!DOCTYPE svg PUBLIC "-//W3C//DTD SVG 1.1//EN" "http://www.w3.org/Graphics/SVG/1.1/DTD/svg11.dtd"><svg viewBox="0 0 1024 1024" version="1.1" xmlns="http://www.w3.org/2000/svg" width="200" height="200" t="1775110619625" class="icon" p-id="47149516" xmlns:xlink="http://www.w3.org/1999/xlink"><path d="M512 42.666667C304.725333 42.666667 145.877333 169.557333 78.421333 332.416c-67.413333 162.858667-44.8 364.885333 101.76 511.402667 146.517333 146.56 348.586667 169.216 511.402667 101.76C854.442667 878.165333 981.333333 719.274667 981.333333 512a42.666667 42.666667 0 0 0-42.666666-42.666667 42.666667 42.666667 0 0 0-42.666667 42.666667c0 172.885333-102.954667 299.178667-237.098667 354.730667-134.101333 55.552-296.192 38.997333-418.389333-83.2-122.24-122.24-138.794667-284.330667-83.242667-418.432C212.821333 230.954667 339.114667 128 512 128a42.666667 42.666667 0 0 0 42.666667-42.666667 42.666667 42.666667 0 0 0-42.666667-42.666666z" fill="#000000" p-id="47149517"/><path d="M908.501333 55.168l-426.666666 426.666667a42.666667 42.666667 0 0 0 0 60.330666 42.666667 42.666667 0 0 0 60.330666 0l426.666667-426.666666a42.666667 42.666667 0 0 0 0-60.330667 42.666667 42.666667 0 0 0-60.330667 0z" fill="#000000" p-id="47149518"/><path d="M682.666667 42.666667a42.666667 42.666667 0 0 0-42.666667 42.666666 42.666667 42.666667 0 0 0 42.666667 42.666667h213.333333v213.333333a42.666667 42.666667 0 0 0 42.666667 42.666667 42.666667 42.666667 0 0 0 42.666666-42.666667V85.333333a42.666667 42.666667 0 0 0-42.666666-42.666666z" fill="#000000" p-id="47149519"/></svg>