<?xml version="1.0" standalone="no"?><!DOCTYPE svg PUBLIC "-//W3C//DTD SVG 1.1//EN" "http://www.w3.org/Graphics/SVG/1.1/DTD/svg11.dtd"><svg viewBox="0 0 1024 1024" version="1.1" xmlns="http://www.w3.org/2000/svg" width="200" height="200" t="1775110619624" class="icon" p-id="47149508" xmlns:xlink="http://www.w3.org/1999/xlink"><path d="M512 42.666667C253.312 42.666667 42.666667 253.312 42.666667 512s210.645333 469.333333 469.333333 469.333333 469.333333-210.645333 469.333333-469.333333S770.688 42.666667 512 42.666667z m0 85.333333c212.565333 0 384 171.434667 384 384s-171.434667 384-384 384-384-171.434667-384-384 171.434667-384 384-384z" fill="#000000" p-id="47149509"/><path d="M512 298.666667a42.666667 42.666667 0 0 0-42.666667 42.666666v341.333334a42.666667 42.666667 0 0 0 42.666667 42.666666 42.666667 42.666667 0 0 0 42.666667-42.666666V341.333333a42.666667 42.666667 0 0 0-42.666667-42.666666z" fill="#000000" p-id="47149510"/><path d="M341.333333 469.333333a42.666667 42.666667 0 0 0-30.165333 12.501334 42.666667 42.666667 0 0 0 0 60.330666l170.666667 170.666667a42.666667 42.666667 0 0 0 60.330666 0l170.666667-170.666667a42.666667 42.666667 0 0 0 0-60.330666 42.666667 42.666667 0 0 0-60.330667 0L512 622.336l-140.501333-140.501333A42.666667 42.666667 0 0 0 341.333333 469.333333z" fill="#000000" p-id="47149511"/></svg>