<?xml version="1.0" standalone="no"?><!DOCTYPE svg PUBLIC "-//W3C//DTD SVG 1.1//EN" "http://www.w3.org/Graphics/SVG/1.1/DTD/svg11.dtd"><svg viewBox="0 0 1024 1024" version="1.1" xmlns="http://www.w3.org/2000/svg" width="200" height="200" t="1775110619626" class="icon" p-id="47149538" xmlns:xlink="http://www.w3.org/1999/xlink"><path d="M539.989333 256a42.666667 42.666667 0 0 0-42.666666 42.666667 42.666667 42.666667 0 0 0 42.666666 42.666666H554.666667a84.565333 84.565333 0 0 1 84.821333 94.08 42.666667 42.666667 0 0 0 38.101333 46.762667 42.666667 42.666667 0 0 0 46.848-37.973333C734.677333 344.192 655.146667 256 554.666667 256zM384 512a42.666667 42.666667 0 0 0-42.666667 42.666667 42.666667 42.666667 0 0 0 42.666667 42.666666h170.666667a42.666667 42.666667 0 0 0 42.666666-42.666666 42.666667 42.666667 0 0 0-42.666666-42.666667z" fill="#000000" p-id="47149539"/><path d="M180.181333 180.181333c-182.912 182.912-182.912 480.725333 0 663.637334 182.912 182.912 480.725333 182.912 663.637334 0a42.666667 42.666667 0 0 0 0-60.330667 42.666667 42.666667 0 0 0-60.330667 0 383.317333 383.317333 0 0 1-542.976 0 383.317333 383.317333 0 0 1 0-542.976 42.666667 42.666667 0 0 0 0-60.330667 42.666667 42.666667 0 0 0-60.330667 0z" fill="#000000" p-id="47149540"/><path d="M55.168 55.168a42.666667 42.666667 0 0 0 0 60.330667l853.333333 853.333333a42.666667 42.666667 0 0 0 60.330667 0 42.666667 42.666667 0 0 0 0-60.330667l-853.333333-853.333333a42.666667 42.666667 0 0 0-60.330667 0zM482.090667 42.922667c-46.421333 3.2-93.866667 13.525333-141.098667 32a42.666667 42.666667 0 0 0-24.149333 55.253333 42.666667 42.666667 0 0 0 55.253333 24.234667c157.44-61.610667 310.485333-14.976 411.477333 86.016s147.626667 254.037333 86.016 411.477333a42.666667 42.666667 0 0 0 24.234667 55.253333 42.666667 42.666667 0 0 0 55.253333-24.149333c73.941333-189.013333 17.493333-380.245333-105.173333-502.912-91.989333-92.032-222.549333-146.773333-361.813333-137.173333z" fill="#000000" p-id="47149541"/><path d="M384 341.333333a42.666667 42.666667 0 0 0-42.666667 42.666667v341.333333a42.666667 42.666667 0 0 0 42.666667 42.666667 42.666667 42.666667 0 0 0 42.666667-42.666667V384a42.666667 42.666667 0 0 0-42.666667-42.666667z" fill="#000000" p-id="47149542"/></svg>