<?xml version="1.0" standalone="no"?><!DOCTYPE svg PUBLIC "-//W3C//DTD SVG 1.1//EN" "http://www.w3.org/Graphics/SVG/1.1/DTD/svg11.dtd"><svg viewBox="0 0 1024 1024" version="1.1" xmlns="http://www.w3.org/2000/svg" width="200" height="200" t="1775110619625" class="icon" p-id="47149526" xmlns:xlink="http://www.w3.org/1999/xlink"><path d="M512 42.666667C253.312 42.666667 42.666667 253.312 42.666667 512s210.645333 469.333333 469.333333 469.333333 469.333333-210.645333 469.333333-469.333333S770.688 42.666667 512 42.666667z m0 85.333333c212.565333 0 384 171.434667 384 384s-171.434667 384-384 384-384-171.434667-384-384 171.434667-384 384-384z" fill="#000000" p-id="47149527"/><path d="M597.333333 298.666667a42.666667 42.666667 0 0 0-30.165333 12.501333l-170.666667 170.666667a42.666667 42.666667 0 0 0 0 60.330666l170.666667 170.666667a42.666667 42.666667 0 0 0 60.330667 0 42.666667 42.666667 0 0 0 0-60.330667L486.997333 512l140.501334-140.501333a42.666667 42.666667 0 0 0 0-60.330667A42.666667 42.666667 0 0 0 597.333333 298.666667z" fill="#000000" p-id="47149528"/></svg>