<?xml version="1.0" standalone="no"?><!DOCTYPE svg PUBLIC "-//W3C//DTD SVG 1.1//EN" "http://www.w3.org/Graphics/SVG/1.1/DTD/svg11.dtd"><svg viewBox="0 0 1024 1024" version="1.1" xmlns="http://www.w3.org/2000/svg" width="200" height="200" t="1775110619626" class="icon" p-id="47149545" xmlns:xlink="http://www.w3.org/1999/xlink"><path d="M512 682.666667c-70.186667 0-128 57.813333-128 128s57.813333 128 128 128 128-57.813333 128-128-57.813333-128-128-128z m0 85.333333c24.064 0 42.666667 18.602667 42.666667 42.666667 0 24.064-18.602667 42.666667-42.666667 42.666666-24.064 0-42.666667-18.602667-42.666667-42.666666 0-24.064 18.602667-42.666667 42.666667-42.666667zM512 85.333333c-70.186667 0-128 57.813333-128 128s57.813333 128 128 128 128-57.813333 128-128-57.813333-128-128-128z m0 85.333334c24.064 0 42.666667 18.602667 42.666667 42.666666 0 24.064-18.602667 42.666667-42.666667 42.666667-24.064 0-42.666667-18.602667-42.666667-42.666667 0-24.064 18.602667-42.666667 42.666667-42.666666zM682.666667 384c-70.186667 0-128 57.813333-128 128s57.813333 128 128 128 128-57.813333 128-128-57.813333-128-128-128z m0 85.333333c24.064 0 42.666667 18.602667 42.666666 42.666667 0 24.064-18.602667 42.666667-42.666666 42.666667-24.064 0-42.666667-18.602667-42.666667-42.666667 0-24.064 18.602667-42.666667 42.666667-42.666667zM853.333333 682.666667c-70.186667 0-128 57.813333-128 128s57.813333 128 128 128 128-57.813333 128-128-57.813333-128-128-128z m0 85.333333c24.064 0 42.666667 18.602667 42.666667 42.666667 0 24.064-18.602667 42.666667-42.666667 42.666666-24.064 0-42.666667-18.602667-42.666666-42.666666 0-24.064 18.602667-42.666667 42.666666-42.666667zM170.666667 682.666667c-70.186667 0-128 57.813333-128 128s57.813333 128 128 128 128-57.813333 128-128-57.813333-128-128-128z m0 85.333333c24.064 0 42.666667 18.602667 42.666666 42.666667 0 24.064-18.602667 42.666667-42.666666 42.666666-24.064 0-42.666667-18.602667-42.666667-42.666666 0-24.064 18.602667-42.666667 42.666667-42.666667zM341.333333 384c-70.186667 0-128 57.813333-128 128s57.813333 128 128 128 128-57.813333 128-128-57.813333-128-128-128z m0 85.333333c24.064 0 42.666667 18.602667 42.666667 42.666667 0 24.064-18.602667 42.666667-42.666667 42.666667-24.064 0-42.666667-18.602667-42.666666-42.666667 0-24.064 18.602667-42.666667 42.666666-42.666667z" fill="#000000" p-id="47149546"/></svg>