<?xml version="1.0" standalone="no"?><!DOCTYPE svg PUBLIC "-//W3C//DTD SVG 1.1//EN" "http://www.w3.org/Graphics/SVG/1.1/DTD/svg11.dtd"><svg viewBox="0 0 1024 1024" version="1.1" xmlns="http://www.w3.org/2000/svg" width="200" height="200" t="1775110619627" class="icon" p-id="47149555" xmlns:xlink="http://www.w3.org/1999/xlink"><path d="M512 554.666667c-164.437333 0-298.666667 134.229333-298.666667 298.666666a42.666667 42.666667 0 0 0 42.666667 42.666667 42.666667 42.666667 0 0 0 42.666667-42.666667c0-118.314667 95.018667-213.333333 213.333333-213.333333s213.333333 95.018667 213.333333 213.333333a42.666667 42.666667 0 0 0 42.666667 42.666667 42.666667 42.666667 0 0 0 42.666667-42.666667c0-164.437333-134.229333-298.666667-298.666667-298.666666z" fill="#000000" p-id="47149556"/><path d="M512 213.333333c-117.333333 0-213.333333 96-213.333333 213.333334s96 213.333333 213.333333 213.333333 213.333333-96 213.333333-213.333333-96-213.333333-213.333333-213.333334z m0 85.333334c71.210667 0 128 56.789333 128 128s-56.789333 128-128 128-128-56.789333-128-128 56.789333-128 128-128z" fill="#000000" p-id="47149557"/><path d="M512 42.666667C253.312 42.666667 42.666667 253.312 42.666667 512s210.645333 469.333333 469.333333 469.333333 469.333333-210.645333 469.333333-469.333333S770.688 42.666667 512 42.666667z m0 85.333333c212.565333 0 384 171.434667 384 384s-171.434667 384-384 384-384-171.434667-384-384 171.434667-384 384-384z" fill="#000000" p-id="47149558"/></svg>