<?xml version="1.0" standalone="no"?><!DOCTYPE svg PUBLIC "-//W3C//DTD SVG 1.1//EN" "http://www.w3.org/Graphics/SVG/1.1/DTD/svg11.dtd"><svg viewBox="0 0 1024 1024" version="1.1" xmlns="http://www.w3.org/2000/svg" width="200" height="200" t="1775110619627" class="icon" p-id="47149562" xmlns:xlink="http://www.w3.org/1999/xlink"><path d="M469.333333 554.666667a42.666667 42.666667 0 0 0-42.666666 42.666666 42.666667 42.666667 0 0 0 42.666666 42.666667h426.666667a42.666667 42.666667 0 0 0 42.666667-42.666667 42.666667 42.666667 0 0 0-42.666667-42.666666zM682.666667 128a42.666667 42.666667 0 0 0-42.666667 42.666667 42.666667 42.666667 0 0 0 42.666667 42.666666h85.333333c24.064 0 42.666667 18.602667 42.666667 42.666667v57.344a42.666667 42.666667 0 0 0 42.666666 42.666667 42.666667 42.666667 0 0 0 42.666667-42.666667V256c0-70.186667-57.813333-128-128-128z" fill="#000000" p-id="47149563"/><path d="M695.168 396.501333a42.666667 42.666667 0 0 0 0 60.330667L835.669333 597.333333l-140.501333 140.501334a42.666667 42.666667 0 0 0 0 60.330666 42.666667 42.666667 0 0 0 60.330667 0l170.666666-170.666666a42.666667 42.666667 0 0 0 0-60.330667l-170.666666-170.666667a42.666667 42.666667 0 0 0-60.330667 0z" fill="#000000" p-id="47149564"/><path d="M256 128C185.813333 128 128 185.813333 128 256v597.333333c0 70.186667 57.813333 128 128 128h512c48.597333 0 93.184-27.733333 114.773333-71.253333a42.666667 42.666667 0 0 0-19.370666-57.173333 42.666667 42.666667 0 0 0-57.173334 19.328A42.453333 42.453333 0 0 1 768 896H256c-24.064 0-42.666667-18.602667-42.666667-42.666667V256c0-24.064 18.602667-42.666667 42.666667-42.666667h85.333333a42.666667 42.666667 0 0 0 42.666667-42.666666 42.666667 42.666667 0 0 0-42.666667-42.666667z" fill="#000000" p-id="47149565"/><path d="M384 42.666667c-46.506667 0-85.333333 38.826667-85.333333 85.333333v85.333333c0 46.506667 38.826667 85.333333 85.333333 85.333334h256c46.506667 0 85.333333-38.826667 85.333333-85.333334V128c0-46.506667-38.826667-85.333333-85.333333-85.333333z m0 85.333333h256v85.333333H384z" fill="#000000" p-id="47149566"/></svg>