<?xml version="1.0" standalone="no"?><!DOCTYPE svg PUBLIC "-//W3C//DTD SVG 1.1//EN" "http://www.w3.org/Graphics/SVG/1.1/DTD/svg11.dtd"><svg viewBox="0 0 1024 1024" version="1.1" xmlns="http://www.w3.org/2000/svg" width="200" height="200" t="1775110619628" class="icon" p-id="47149592" xmlns:xlink="http://www.w3.org/1999/xlink"><path d="M512 213.333333a42.666667 42.666667 0 0 0-42.666667 42.666667v256a42.666667 42.666667 0 0 0 23.594667 38.186667l155.477333 77.738666a42.666667 42.666667 0 0 0 57.258667-19.072 42.666667 42.666667 0 0 0-19.072-57.258666L554.666667 485.674667V256a42.666667 42.666667 0 0 0-42.666667-42.666667zM682.666667 768a42.666667 42.666667 0 0 0-42.666667 42.666667 42.666667 42.666667 0 0 0 42.666667 42.666666h256a42.666667 42.666667 0 0 0 42.666666-42.666666 42.666667 42.666667 0 0 0-42.666666-42.666667z" fill="#000000" p-id="47149593"/><path d="M810.666667 640a42.666667 42.666667 0 0 0-42.666667 42.666667v256a42.666667 42.666667 0 0 0 42.666667 42.666666 42.666667 42.666667 0 0 0 42.666666-42.666666v-256a42.666667 42.666667 0 0 0-42.666666-42.666667z" fill="#000000" p-id="47149594"/><path d="M445.866667 46.165333c-94.293333 13.013333-187.434667 55.722667-265.685334 133.973334-156.586667 156.586667-171.093333 372.352-89.514666 538.624 81.578667 166.229333 261.162667 286.848 480.853333 258.816a42.666667 42.666667 0 0 0 36.906667-47.744 42.666667 42.666667 0 0 0-47.786667-36.906667c-183.893333 23.466667-325.973333-74.581333-393.301333-211.754667C100.053333 544 109.44 371.584 240.512 240.512c131.072-131.072 303.488-140.458667 440.661333-73.173333 137.173333 67.285333 235.221333 209.408 211.754667 393.344a42.666667 42.666667 0 0 0 36.906667 47.744 42.666667 42.666667 0 0 0 47.786666-36.906667c27.989333-219.690667-92.586667-399.274667-258.858666-480.853333a474.709333 474.709333 0 0 0-272.938667-44.501334z" fill="#000000" p-id="47149595"/></svg>