<?xml version="1.0" standalone="no"?><!DOCTYPE svg PUBLIC "-//W3C//DTD SVG 1.1//EN" "http://www.w3.org/Graphics/SVG/1.1/DTD/svg11.dtd"><svg viewBox="0 0 1024 1024" version="1.1" xmlns="http://www.w3.org/2000/svg" width="200" height="200" t="1775110619630" class="icon" p-id="47149617" xmlns:xlink="http://www.w3.org/1999/xlink"><path d="M488.746667 49.578667l-426.666667 277.333333A42.666667 42.666667 0 0 0 42.666667 362.666667v298.666666a42.666667 42.666667 0 0 0 19.413333 35.754667l426.666667 277.333333a42.666667 42.666667 0 0 0 46.506666 0l426.666667-277.333333A42.666667 42.666667 0 0 0 981.333333 661.333333v-298.666666a42.666667 42.666667 0 0 0-19.413333-35.754667l-426.666667-277.333333a42.666667 42.666667 0 0 0-46.506666 0zM512 136.192l384 249.642667v252.330666l-384 249.6-384-249.6V385.834667z" fill="#000000" p-id="47149618"/><path d="M512 618.666667a42.666667 42.666667 0 0 0-42.666667 42.666666V938.666667a42.666667 42.666667 0 0 0 42.666667 42.666666 42.666667 42.666667 0 0 0 42.666667-42.666666v-277.333334a42.666667 42.666667 0 0 0-42.666667-42.666666z" fill="#000000" p-id="47149619"/><path d="M946.090667 320.682667a42.666667 42.666667 0 0 0-31.914667 7.082666L512 609.237333 109.824 327.765333a42.666667 42.666667 0 0 0-59.392 10.410667 42.666667 42.666667 0 0 0 10.410667 59.392l426.666666 298.666667a42.666667 42.666667 0 0 0 48.981334 0l426.666666-298.666667a42.666667 42.666667 0 0 0 10.410667-59.392 42.666667 42.666667 0 0 0-27.477333-17.493333z" fill="#000000" p-id="47149620"/><path d="M487.509333 327.765333l-426.666666 298.666667a42.666667 42.666667 0 0 0-10.410667 59.392 42.666667 42.666667 0 0 0 59.392 10.410667L512 414.762667l402.176 281.472a42.666667 42.666667 0 0 0 59.392-10.410667 42.666667 42.666667 0 0 0-10.410667-59.392l-426.666666-298.666667a42.666667 42.666667 0 0 0-48.981334 0z" fill="#000000" p-id="47149621"/><path d="M512 42.666667a42.666667 42.666667 0 0 0-42.666667 42.666666v277.333334a42.666667 42.666667 0 0 0 42.666667 42.666666 42.666667 42.666667 0 0 0 42.666667-42.666666V85.333333a42.666667 42.666667 0 0 0-42.666667-42.666666z" fill="#000000" p-id="47149622"/></svg>