<?xml version="1.0" encoding="UTF-8"?>
<svg class="icon" viewBox="0 0 1024 1024" version="1.1" xmlns="http://www.w3.org/2000/svg" p-id="3915" width="1024" height="1024"><path d="M768 192a192 192 0 1 1-8 383.808A256.128 256.128 0 0 1 512 768H320a256 256 0 0 1-256-256V160a32 32 0 0 1 32-32h640a32 32 0 0 1 32 32V192z m0 64v256a128 128 0 0 0 0-256zM96 832h640a32 32 0 0 1 0 64h-640a32 32 0 0 1 0-64zM128 192v320a192 192 0 0 0 192 192h192a192 192 0 0 0 192-192V192H128z" fill="#383838" p-id="3916"></path></svg>