<?xml version="1.0" encoding="UTF-8"?>
<svg class="icon" viewBox="0 0 1024 1024" version="1.1" xmlns="http://www.w3.org/2000/svg" p-id="2320" width="1024" height="1024"><path d="M384 576v64h192a192 192 0 0 0 192-192V320a192 192 0 0 0-192-192H256a192 192 0 0 0-192 192v128a192.064 192.064 0 0 0 128 181.12V558.848A128 128 0 0 1 128 448V320a128 128 0 0 1 128-128h320a128 128 0 0 1 128 128v128a128 128 0 0 1-128 128H384z m256-128V384H448a192 192 0 0 0-192 192v127.936a192 192 0 0 0 192 192h320a192 192 0 0 0 192-192v-128a192.064 192.064 0 0 0-128-181.056v70.272A128 128 0 0 1 896 576v128a128 128 0 0 1-128 128H448a128 128 0 0 1-128-128V576a128 128 0 0 1 128-128h192z" fill="#383838" p-id="2321"></path></svg>