<?xml version="1.0" standalone="no"?><!DOCTYPE svg PUBLIC "-//W3C//DTD SVG 1.1//EN" "http://www.w3.org/Graphics/SVG/1.1/DTD/svg11.dtd"><svg viewBox="0 0 1024 1024" version="1.1" xmlns="http://www.w3.org/2000/svg" width="200" height="200" t="1775110619631" class="icon" p-id="47149635" xmlns:xlink="http://www.w3.org/1999/xlink"><path d="M128 213.333333c-46.506667 0-85.333333 38.826667-85.333333 85.333334v256c0 46.506667 38.826667 85.333333 85.333333 85.333333h768c46.506667 0 85.333333-38.826667 85.333333-85.333333V298.666667c0-46.506667-38.826667-85.333333-85.333333-85.333334z m0 85.333334h768v256H128z" fill="#000000" p-id="47149636"/><path d="M725.333333 554.666667a42.666667 42.666667 0 0 0-42.666666 42.666666v298.666667a42.666667 42.666667 0 0 0 42.666666 42.666667 42.666667 42.666667 0 0 0 42.666667-42.666667v-298.666667a42.666667 42.666667 0 0 0-42.666667-42.666666zM298.666667 554.666667a42.666667 42.666667 0 0 0-42.666667 42.666666v298.666667a42.666667 42.666667 0 0 0 42.666667 42.666667 42.666667 42.666667 0 0 0 42.666666-42.666667v-298.666667a42.666667 42.666667 0 0 0-42.666666-42.666666zM725.333333 85.333333a42.666667 42.666667 0 0 0-42.666666 42.666667v128a42.666667 42.666667 0 0 0 42.666666 42.666667 42.666667 42.666667 0 0 0 42.666667-42.666667V128a42.666667 42.666667 0 0 0-42.666667-42.666667zM298.666667 85.333333a42.666667 42.666667 0 0 0-42.666667 42.666667v128a42.666667 42.666667 0 0 0 42.666667 42.666667 42.666667 42.666667 0 0 0 42.666666-42.666667V128a42.666667 42.666667 0 0 0-42.666666-42.666667zM68.010667 238.677333a42.666667 42.666667 0 0 0 0 60.330667l328.490666 328.490667a42.666667 42.666667 0 0 0 60.330667 0 42.666667 42.666667 0 0 0 0-60.330667l-328.533333-328.533333a42.666667 42.666667 0 0 0-60.288 0zM597.333333 213.333333a42.666667 42.666667 0 0 0-30.165333 12.501334 42.666667 42.666667 0 0 0 0 60.330666l328.533333 328.533334a42.666667 42.666667 0 0 0 60.288 0 42.666667 42.666667 0 0 0 0-60.373334l-328.490666-328.490666A42.666667 42.666667 0 0 0 597.333333 213.333333z" fill="#000000" p-id="47149637"/><path d="M341.333333 213.333333a42.666667 42.666667 0 0 0-30.165333 12.501334 42.666667 42.666667 0 0 0 0 60.330666l341.333333 341.333334a42.666667 42.666667 0 0 0 60.330667 0 42.666667 42.666667 0 0 0 0-60.330667l-341.333333-341.333333A42.666667 42.666667 0 0 0 341.333333 213.333333z" fill="#000000" p-id="47149638"/></svg>