<?xml version="1.0" encoding="UTF-8"?>
<svg class="icon" viewBox="0 0 1024 1024" version="1.1" xmlns="http://www.w3.org/2000/svg" p-id="3793" width="1024" height="1024"><path d="M768 832a128 128 0 0 1-128 128H192a128 128 0 0 1-128-128V384a128 128 0 0 1 128-128v64a64 64 0 0 0-64 64v448a64 64 0 0 0 64 64h448a64 64 0 0 0 64-64h64z" fill="#383838" p-id="3794"></path><path d="M384 128a64 64 0 0 0-64 64v448a64 64 0 0 0 64 64h448a64 64 0 0 0 64-64V192a64 64 0 0 0-64-64H384z m0-64h448a128 128 0 0 1 128 128v448a128 128 0 0 1-128 128H384a128 128 0 0 1-128-128V192a128 128 0 0 1 128-128z" fill="#383838" p-id="3795"></path></svg>