<?xml version="1.0" standalone="no"?><!DOCTYPE svg PUBLIC "-//W3C//DTD SVG 1.1//EN" "http://www.w3.org/Graphics/SVG/1.1/DTD/svg11.dtd"><svg viewBox="0 0 1024 1024" version="1.1" xmlns="http://www.w3.org/2000/svg" width="200" height="200" t="1775110619632" class="icon" p-id="47149652" xmlns:xlink="http://www.w3.org/1999/xlink"><path d="M512 42.666667C253.312 42.666667 42.666667 253.312 42.666667 512s210.645333 469.333333 469.333333 469.333333 469.333333-210.645333 469.333333-469.333333S770.688 42.666667 512 42.666667z m0 85.333333c212.565333 0 384 171.434667 384 384s-171.434667 384-384 384-384-171.434667-384-384 171.434667-384 384-384z" fill="#000000" p-id="47149653"/><path d="M549.546667 301.824a215.424 215.424 0 0 0-119.125334 13.098667C356.693333 345.472 298.837333 418.816 298.837333 512c0 93.184 57.856 166.528 131.584 197.12 73.728 30.549333 166.570667 19.626667 232.533334-46.208a42.666667 42.666667 0 0 0 0-60.330667 42.666667 42.666667 0 0 0-60.373334 0c-41.6 41.557333-94.464 46.336-139.52 27.648-45.013333-18.645333-78.933333-59.434667-78.933333-118.229333s33.92-99.584 78.933333-118.229333c45.056-18.688 97.92-13.909333 139.52 27.648a42.666667 42.666667 0 0 0 60.330667 0 42.666667 42.666667 0 0 0 0-60.330667 211.029333 211.029333 0 0 0-113.322667-59.264z" fill="#000000" p-id="47149654"/></svg>