<?xml version="1.0" standalone="no"?><!DOCTYPE svg PUBLIC "-//W3C//DTD SVG 1.1//EN" "http://www.w3.org/Graphics/SVG/1.1/DTD/svg11.dtd"><svg viewBox="0 0 1024 1024" version="1.1" xmlns="http://www.w3.org/2000/svg" width="200" height="200" t="1775110619631" class="icon" p-id="47149651" xmlns:xlink="http://www.w3.org/1999/xlink"><path d="M853.333333 128a42.666667 42.666667 0 0 0-42.666666 42.666667v298.666666c0 71.210667-56.789333 128-128 128H170.666667a42.666667 42.666667 0 0 0-42.666667 42.666667 42.666667 42.666667 0 0 0 42.666667 42.666667h512c117.333333 0 213.333333-96 213.333333-213.333334V170.666667a42.666667 42.666667 0 0 0-42.666667-42.666667z" fill="#000000" p-id="47149652"/><path d="M384 384a42.666667 42.666667 0 0 0-30.165333 12.501333l-213.333334 213.333334a42.666667 42.666667 0 0 0 0 60.330666l213.333334 213.333334a42.666667 42.666667 0 0 0 60.330666 0 42.666667 42.666667 0 0 0 0-60.330667L230.997333 640l183.168-183.168a42.666667 42.666667 0 0 0 0-60.330667A42.666667 42.666667 0 0 0 384 384z" fill="#000000" p-id="47149653"/></svg>