<?xml version="1.0" standalone="no"?><!DOCTYPE svg PUBLIC "-//W3C//DTD SVG 1.1//EN" "http://www.w3.org/Graphics/SVG/1.1/DTD/svg11.dtd"><svg viewBox="0 0 1024 1024" version="1.1" xmlns="http://www.w3.org/2000/svg" width="200" height="200" t="1775110619632" class="icon" p-id="47149659" xmlns:xlink="http://www.w3.org/1999/xlink"><path d="M426.666667 597.333333a42.666667 42.666667 0 0 0-30.165334 12.501334 42.666667 42.666667 0 0 0 0 60.330666l213.333334 213.333334a42.666667 42.666667 0 0 0 60.330666 0l213.333334-213.333334a42.666667 42.666667 0 0 0 0-60.330666 42.666667 42.666667 0 0 0-60.330667 0L640 793.002667l-183.168-183.168A42.666667 42.666667 0 0 0 426.666667 597.333333z" fill="#000000" p-id="47149660"/><path d="M170.666667 128a42.666667 42.666667 0 0 0-42.666667 42.666667 42.666667 42.666667 0 0 0 42.666667 42.666666h298.666666c71.210667 0 128 56.789333 128 128v512a42.666667 42.666667 0 0 0 42.666667 42.666667 42.666667 42.666667 0 0 0 42.666667-42.666667V341.333333c0-117.333333-96-213.333333-213.333334-213.333333z" fill="#000000" p-id="47149661"/></svg>