<?xml version="1.0" standalone="no"?><!DOCTYPE svg PUBLIC "-//W3C//DTD SVG 1.1//EN" "http://www.w3.org/Graphics/SVG/1.1/DTD/svg11.dtd"><svg viewBox="0 0 1024 1024" version="1.1" xmlns="http://www.w3.org/2000/svg" width="200" height="200" t="1775110619631" class="icon" p-id="47149650" xmlns:xlink="http://www.w3.org/1999/xlink"><path d="M640 384a42.666667 42.666667 0 0 0-30.165333 12.501333 42.666667 42.666667 0 0 0 0 60.330667L793.002667 640l-183.168 183.168a42.666667 42.666667 0 0 0 0 60.330667 42.666667 42.666667 0 0 0 60.330666 0l213.333334-213.333334a42.666667 42.666667 0 0 0 0-60.330666l-213.333334-213.333334A42.666667 42.666667 0 0 0 640 384z" fill="#000000" p-id="47149651"/><path d="M170.666667 128a42.666667 42.666667 0 0 0-42.666667 42.666667v298.666666c0 117.333333 96 213.333333 213.333333 213.333334h512a42.666667 42.666667 0 0 0 42.666667-42.666667 42.666667 42.666667 0 0 0-42.666667-42.666667H341.333333c-71.210667 0-128-56.789333-128-128V170.666667a42.666667 42.666667 0 0 0-42.666666-42.666667z" fill="#000000" p-id="47149652"/></svg>