<?xml version="1.0" standalone="no"?><!DOCTYPE svg PUBLIC "-//W3C//DTD SVG 1.1//EN" "http://www.w3.org/Graphics/SVG/1.1/DTD/svg11.dtd"><svg viewBox="0 0 1024 1024" version="1.1" xmlns="http://www.w3.org/2000/svg" width="200" height="200" t="1775110619632" class="icon" p-id="47149657" xmlns:xlink="http://www.w3.org/1999/xlink"><path d="M353.834667 140.501333l-213.333334 213.333334a42.666667 42.666667 0 0 0 0 60.330666 42.666667 42.666667 0 0 0 60.330667 0L384 230.997333l183.168 183.168a42.666667 42.666667 0 0 0 60.330667 0 42.666667 42.666667 0 0 0 0-60.330666l-213.333334-213.333334a42.666667 42.666667 0 0 0-60.330666 0z" fill="#000000" p-id="47149658"/><path d="M384 128a42.666667 42.666667 0 0 0-42.666667 42.666667v512c0 117.333333 96 213.333333 213.333334 213.333333h298.666666a42.666667 42.666667 0 0 0 42.666667-42.666667 42.666667 42.666667 0 0 0-42.666667-42.666666h-298.666666c-71.210667 0-128-56.789333-128-128V170.666667a42.666667 42.666667 0 0 0-42.666667-42.666667z" fill="#000000" p-id="47149659"/></svg>