<?xml version="1.0" standalone="no"?><!DOCTYPE svg PUBLIC "-//W3C//DTD SVG 1.1//EN" "http://www.w3.org/Graphics/SVG/1.1/DTD/svg11.dtd"><svg viewBox="0 0 1024 1024" version="1.1" xmlns="http://www.w3.org/2000/svg" width="200" height="200" t="1775110619632" class="icon" p-id="47149667" xmlns:xlink="http://www.w3.org/1999/xlink"><path d="M256 42.666667a42.666667 42.666667 0 0 0-42.666667 42.666666v597.333334c0 70.186667 57.813333 128 128 128h597.333334a42.666667 42.666667 0 0 0 42.666666-42.666667 42.666667 42.666667 0 0 0-42.666666-42.666667H341.333333c-24.064 0-42.666667-18.602667-42.666666-42.666666V85.333333a42.666667 42.666667 0 0 0-42.666667-42.666666z" fill="#000000" p-id="47149668"/><path d="M85.333333 213.333333a42.666667 42.666667 0 0 0-42.666666 42.666667 42.666667 42.666667 0 0 0 42.666666 42.666667h597.333334c24.064 0 42.666667 18.602667 42.666666 42.666666v597.333334a42.666667 42.666667 0 0 0 42.666667 42.666666 42.666667 42.666667 0 0 0 42.666667-42.666666V341.333333c0-70.186667-57.813333-128-128-128z" fill="#000000" p-id="47149669"/></svg>