<?xml version="1.0" standalone="no"?><!DOCTYPE svg PUBLIC "-//W3C//DTD SVG 1.1//EN" "http://www.w3.org/Graphics/SVG/1.1/DTD/svg11.dtd"><svg viewBox="0 0 1024 1024" version="1.1" xmlns="http://www.w3.org/2000/svg" width="200" height="200" t="1775110619632" class="icon" p-id="47149665" xmlns:xlink="http://www.w3.org/1999/xlink"><path d="M512 128c-211.584 0-384 172.416-384 384s172.416 384 384 384 384-172.416 384-384-172.416-384-384-384z m0 85.333333c165.461333 0 298.666667 133.205333 298.666667 298.666667s-133.205333 298.666667-298.666667 298.666667-298.666667-133.205333-298.666667-298.666667 133.205333-298.666667 298.666667-298.666667z" fill="#000000" p-id="47149666"/><path d="M97.834667 97.834667a42.666667 42.666667 0 0 0 0 60.330666l128 128a42.666667 42.666667 0 0 0 60.330666 0 42.666667 42.666667 0 0 0 0-60.330666l-128-128a42.666667 42.666667 0 0 0-60.330666 0zM865.834667 97.834667l-128 128a42.666667 42.666667 0 0 0 0 60.330666 42.666667 42.666667 0 0 0 60.330666 0l128-128a42.666667 42.666667 0 0 0 0-60.330666 42.666667 42.666667 0 0 0-60.330666 0zM256 725.333333a42.666667 42.666667 0 0 0-30.165333 12.501334l-128 128a42.666667 42.666667 0 0 0 0 60.330666 42.666667 42.666667 0 0 0 60.330666 0l128-128a42.666667 42.666667 0 0 0 0-60.330666A42.666667 42.666667 0 0 0 256 725.333333zM737.834667 737.834667a42.666667 42.666667 0 0 0 0 60.330666l128 128a42.666667 42.666667 0 0 0 60.330666 0 42.666667 42.666667 0 0 0 0-60.330666l-128-128a42.666667 42.666667 0 0 0-60.330666 0z" fill="#000000" p-id="47149667"/></svg>