<?xml version="1.0" encoding="UTF-8"?>
<svg class="icon" viewBox="0 0 1024 1024" version="1.1" xmlns="http://www.w3.org/2000/svg" p-id="5694" width="1024" height="1024"><path d="M959.488 501.12c0-291.456-145.664-437.12-437.12-437.12C231.04 64 85.376 209.664 85.376 501.12c0 291.328 145.728 437.056 437.12 437.056s437.056-145.728 437.056-437.12zM480 361.6a41.6 41.6 0 1 1 83.2 0v161.216l81.92 81.92a41.6 41.6 0 0 1-58.816 58.88L492.8 569.984a41.472 41.472 0 0 1-12.16-28.8 42.112 42.112 0 0 1-0.576-6.784v-172.8z" fill="#383838" p-id="5695"></path></svg>