<?xml version="1.0" encoding="UTF-8"?>
<svg class="icon" viewBox="0 0 1024 1024" version="1.1" xmlns="http://www.w3.org/2000/svg" p-id="3052" width="1024" height="1024"><path d="M452.992 148.992a30.592 30.592 0 0 1 20.992-8c8 0 14.976 2.688 20.992 8l331.008 340.992c6.016 6.016 8.96 13.312 8.96 22.016 0 8.704-2.944 16-8.96 22.016l-331.008 340.992a30.592 30.592 0 0 1-20.992 8 28.8 28.8 0 0 1-20.992-8.96 28.8 28.8 0 0 1 0-41.984l312-320-312-320a28.8 28.8 0 0 1-8.96-21.056c0-8 2.944-15.36 8.96-22.016z m-256 0a30.592 30.592 0 0 1 20.992-8c8 0 14.976 2.688 20.992 8l331.008 340.992c6.016 6.016 8.96 13.312 8.96 22.016 0 8.704-2.944 16-8.96 22.016l-331.008 340.992a30.592 30.592 0 0 1-20.992 8 28.8 28.8 0 0 1-20.992-8.96 28.8 28.8 0 0 1 0-41.984l312-320-312-320a28.8 28.8 0 0 1-8.96-21.056c0-8 2.944-15.36 8.96-22.016z" fill="#383838" p-id="3053"></path></svg>