<?xml version="1.0" encoding="UTF-8"?>
<svg class="icon" viewBox="0 0 1024 1024" version="1.1" xmlns="http://www.w3.org/2000/svg" p-id="5193" width="1024" height="1024"><path d="M352 192V95.936a32 32 0 0 1 32-32h256a32 32 0 0 1 32 32V192h256a32 32 0 0 1 0 64h-832a32 32 0 1 1 0-64h256z m64 0h192V128h-192v64zM192 960a32 32 0 0 1-32-32V256h704v672a32 32 0 0 1-32 32H192z m224-192a32 32 0 0 0 32-32v-320a32 32 0 0 0-64 0v320a32 32 0 0 0 32 32z m192 0a32 32 0 0 0 32-32v-320a32 32 0 0 0-64 0v320a32 32 0 0 0 32 32z" fill="#383838" p-id="5194"></path></svg>