<?xml version="1.0" standalone="no"?><!DOCTYPE svg PUBLIC "-//W3C//DTD SVG 1.1//EN" "http://www.w3.org/Graphics/SVG/1.1/DTD/svg11.dtd"><svg viewBox="0 0 1024 1024" version="1.1" xmlns="http://www.w3.org/2000/svg" width="200" height="200" t="1775110619634" class="icon" p-id="47149694" xmlns:xlink="http://www.w3.org/1999/xlink"><path d="M512 170.666667c-46.634667 0-85.333333 38.698667-85.333333 85.333333s38.698667 85.333333 85.333333 85.333333 85.333333-38.698667 85.333333-85.333333-38.698667-85.333333-85.333333-85.333333zM213.333333 469.333333a42.666667 42.666667 0 0 0-42.666666 42.666667 42.666667 42.666667 0 0 0 42.666666 42.666667h597.333334a42.666667 42.666667 0 0 0 42.666666-42.666667 42.666667 42.666667 0 0 0-42.666666-42.666667zM512 682.666667c-46.634667 0-85.333333 38.698667-85.333333 85.333333s38.698667 85.333333 85.333333 85.333333 85.333333-38.698667 85.333333-85.333333-38.698667-85.333333-85.333333-85.333333z" fill="#000000" p-id="47149695"/></svg>