<?xml version="1.0" standalone="no"?><!DOCTYPE svg PUBLIC "-//W3C//DTD SVG 1.1//EN" "http://www.w3.org/Graphics/SVG/1.1/DTD/svg11.dtd"><svg viewBox="0 0 1024 1024" version="1.1" xmlns="http://www.w3.org/2000/svg" width="200" height="200" t="1775110619635" class="icon" p-id="47149717" xmlns:xlink="http://www.w3.org/1999/xlink"><path d="M512 85.333333a42.666667 42.666667 0 0 0-41.813333 34.346667c-19.2 95.701333-78.293333 190.549333-155.52 252.330667C221.866667 446.250667 170.666667 540.458667 170.666667 640c0 187.989333 153.344 341.333333 341.333333 341.333333 187.989333 0 341.333333-153.344 341.333333-341.333333 0-99.541333-51.2-193.792-144-267.989333-77.226667-61.781333-136.362667-156.586667-155.52-252.330667A42.666667 42.666667 0 0 0 512 85.333333z m0 155.904c34.261333 75.562667 79.872 146.133333 144 197.418667C733.866667 500.949333 768 568.874667 768 640c0 141.909333-114.090667 256-256 256s-256-114.090667-256-256c0-71.125333 34.133333-139.008 112-201.344C432.128 387.413333 477.738667 316.8 512 241.237333z" fill="#000000" p-id="47149718"/></svg>