<?xml version="1.0" standalone="no"?><!DOCTYPE svg PUBLIC "-//W3C//DTD SVG 1.1//EN" "http://www.w3.org/Graphics/SVG/1.1/DTD/svg11.dtd"><svg viewBox="0 0 1024 1024" version="1.1" xmlns="http://www.w3.org/2000/svg" width="200" height="200" t="1775110619635" class="icon" p-id="47149723" xmlns:xlink="http://www.w3.org/1999/xlink"><path d="M512 42.666667C405.333333 42.666667 310.698667 118.4 241.834667 221.653333 172.970667 324.949333 128 459.861333 128 597.333333c0 211.584 172.416 384 384 384s384-172.416 384-384c0-137.472-44.970667-272.384-113.834667-375.68C713.301333 118.4 618.666667 42.666667 512 42.666667z m0 85.333333c64 0 140.032 52.266667 199.168 141.013333C770.304 357.717333 810.666667 478.805333 810.666667 597.333333c0 165.461333-133.205333 298.666667-298.666667 298.666667s-298.666667-133.205333-298.666667-298.666667c0-118.528 40.362667-239.616 99.498667-328.32C371.968 180.266667 448 128 512 128z" fill="#000000" p-id="47149724"/></svg>