<?xml version="1.0" standalone="no"?><!DOCTYPE svg PUBLIC "-//W3C//DTD SVG 1.1//EN" "http://www.w3.org/Graphics/SVG/1.1/DTD/svg11.dtd"><svg viewBox="0 0 1024 1024" version="1.1" xmlns="http://www.w3.org/2000/svg" width="200" height="200" t="1775110619636" class="icon" p-id="47149734" xmlns:xlink="http://www.w3.org/1999/xlink"><path d="M512 213.333333c-124.757333 0-238.250667 29.866667-323.669333 81.066667C102.912 345.685333 42.666667 422.101333 42.666667 512c0 89.898667 60.245333 166.314667 145.664 217.6C273.749333 780.8 387.242667 810.666667 512 810.666667c124.757333 0 238.250667-29.866667 323.669333-81.066667C921.088 678.314667 981.333333 601.898667 981.333333 512c0-89.898667-60.245333-166.314667-145.664-217.6C750.250667 243.2 636.757333 213.333333 512 213.333333z m0 85.333334c110.933333 0 210.773333 27.52 279.765333 68.906666S896 460.544 896 512s-35.242667 102.997333-104.234667 144.426667C722.730667 697.813333 622.890667 725.333333 512 725.333333c-110.933333 0-210.773333-27.52-279.765333-68.906666S128 563.456 128 512s35.242667-102.997333 104.234667-144.426667C301.269333 326.186667 401.109333 298.666667 512 298.666667z" fill="#000000" p-id="47149735"/></svg>