<?xml version="1.0" standalone="no"?><!DOCTYPE svg PUBLIC "-//W3C//DTD SVG 1.1//EN" "http://www.w3.org/Graphics/SVG/1.1/DTD/svg11.dtd"><svg viewBox="0 0 1024 1024" version="1.1" xmlns="http://www.w3.org/2000/svg" width="200" height="200" t="1775110619635" class="icon" p-id="47149726" xmlns:xlink="http://www.w3.org/1999/xlink"><path d="M512 426.666667c-46.634667 0-85.333333 38.698667-85.333333 85.333333s38.698667 85.333333 85.333333 85.333333 85.333333-38.698667 85.333333-85.333333-38.698667-85.333333-85.333333-85.333333zM810.666667 426.666667c-46.634667 0-85.333333 38.698667-85.333334 85.333333s38.698667 85.333333 85.333334 85.333333 85.333333-38.698667 85.333333-85.333333-38.698667-85.333333-85.333333-85.333333zM213.333333 426.666667c-46.634667 0-85.333333 38.698667-85.333333 85.333333s38.698667 85.333333 85.333333 85.333333 85.333333-38.698667 85.333334-85.333333-38.698667-85.333333-85.333334-85.333333z" fill="#000000" p-id="47149727"/></svg>