<?xml version="1.0" encoding="UTF-8"?>
<svg class="icon" viewBox="0 0 1024 1024" version="1.1" xmlns="http://www.w3.org/2000/svg" p-id="5579" width="1024" height="1024"><path d="M512 960A448 448 0 1 0 512 64a448 448 0 0 0 0 896z m-45.248-448L375.744 422.016a33.408 33.408 0 0 1-8.96-23.04 30.72 30.72 0 0 1 9.472-22.464 30.72 30.72 0 0 1 22.528-9.536c8.64 0 16.32 3.008 23.04 8.96l89.984 91.072 89.984-91.008a31.168 31.168 0 0 1 31.488-8c11.712 3.328 19.2 10.88 22.528 22.464a31.04 31.04 0 0 1-8 31.488L556.8 512l91.008 89.984c8.64 9.344 11.328 19.84 8 31.488a30.848 30.848 0 0 1-22.528 22.528 31.04 31.04 0 0 1-31.488-8L511.808 556.992 421.76 648a33.408 33.408 0 0 1-22.976 8.96 30.72 30.72 0 0 1-22.528-9.472 30.72 30.72 0 0 1-9.472-22.528c0-8.64 3.008-16.32 8.96-23.04L466.752 512z" fill="#383838" p-id="5580"></path></svg>