<?xml version="1.0" standalone="no"?><!DOCTYPE svg PUBLIC "-//W3C//DTD SVG 1.1//EN" "http://www.w3.org/Graphics/SVG/1.1/DTD/svg11.dtd"><svg viewBox="0 0 1024 1024" version="1.1" xmlns="http://www.w3.org/2000/svg" width="200" height="200" t="1775110619636" class="icon" p-id="47149740" xmlns:xlink="http://www.w3.org/1999/xlink"><path d="M619.989333 130.133333a129.450667 129.450667 0 0 0-71.68 7.637334A128.597333 128.597333 0 0 0 469.333333 256v512c0 55.210667 34.986667 100.010667 79.018667 118.229333a128.597333 128.597333 0 0 0 139.52-27.733333l256-256a128.682667 128.682667 0 0 0 0-180.992l-256-256a126.634667 126.634667 0 0 0-67.84-35.328z m-38.997333 86.442667c15.36-6.357333 31.786667-5.461333 46.506667 9.258667l256 256a42.026667 42.026667 0 0 1 0 60.330666l-256 256c-14.72 14.72-31.146667 15.616-46.506667 9.258667-15.36-6.4-26.325333-18.602667-26.325333-39.424V256c0-20.821333 11.008-33.066667 26.325333-39.424z" fill="#000000" p-id="47149741"/><path d="M193.322667 130.133333a129.450667 129.450667 0 0 0-71.68 7.637334A128.597333 128.597333 0 0 0 42.666667 256v512c0 55.210667 34.986667 100.010667 79.018666 118.229333a128.597333 128.597333 0 0 0 139.52-27.733333l256-256a128.682667 128.682667 0 0 0 0-180.992l-256-256a126.634667 126.634667 0 0 0-67.84-35.328z m-38.997334 86.442667c15.36-6.357333 31.786667-5.461333 46.506667 9.258667l256 256a42.026667 42.026667 0 0 1 0 60.330666l-256 256c-14.72 14.72-31.146667 15.616-46.506667 9.258667C138.965333 801.024 128 788.821333 128 768V256c0-20.821333 11.008-33.066667 26.325333-39.424z" fill="#000000" p-id="47149742"/></svg>