<?xml version="1.0" standalone="no"?><!DOCTYPE svg PUBLIC "-//W3C//DTD SVG 1.1//EN" "http://www.w3.org/Graphics/SVG/1.1/DTD/svg11.dtd"><svg viewBox="0 0 1024 1024" version="1.1" xmlns="http://www.w3.org/2000/svg" width="200" height="200" t="1775110619636" class="icon" p-id="47149742" xmlns:xlink="http://www.w3.org/1999/xlink"><path d="M696.234667 38.186667c-75.861333-4.48-157.141333 23.722667-225.066667 91.648L208.170667 392.832A128.042667 128.042667 0 0 0 170.666667 483.328V768c0 46.634667 38.698667 85.333333 85.333333 85.333333h284.586667c34.005333 0 66.645333-13.610667 90.666666-37.674666l262.485334-263.253334v-0.085333c67.882667-67.882667 96.128-149.12 91.690666-224.981333-4.48-75.904-39.68-145.493333-91.690666-197.504C841.813333 77.866667 772.138667 42.624 696.234667 38.186667z m-4.992 85.162666c52.394667 3.072 103.594667 28.245333 142.165333 66.816 38.570667 38.570667 63.744 89.770667 66.858667 142.165334 3.072 52.394667-14.037333 106.922667-66.858667 159.744a42.666667 42.666667 0 0 0-0.085333 0l-262.570667 263.338666a42.538667 42.538667 0 0 1-30.165333 12.586667H256v-284.672c0-11.306667 4.48-22.186667 12.501333-30.165333l262.997334-262.997334c52.821333-52.821333 107.349333-69.930667 159.744-66.816z" fill="#000000" p-id="47149743"/><path d="M652.501333 311.168l-597.333333 597.333333a42.666667 42.666667 0 0 0 0 60.330667 42.666667 42.666667 0 0 0 60.330667 0l597.333333-597.333333a42.666667 42.666667 0 0 0 0-60.330667 42.666667 42.666667 0 0 0-60.330667 0z" fill="#000000" p-id="47149744"/><path d="M384 597.333333a42.666667 42.666667 0 0 0-42.666667 42.666667 42.666667 42.666667 0 0 0 42.666667 42.666667h362.666667a42.666667 42.666667 0 0 0 42.666666-42.666667 42.666667 42.666667 0 0 0-42.666666-42.666667z" fill="#000000" p-id="47149745"/></svg>