<?xml version="1.0" encoding="UTF-8"?>
<svg class="icon" viewBox="0 0 1024 1024" version="1.1" xmlns="http://www.w3.org/2000/svg" p-id="3107" width="1024" height="1024"><path d="M160 160v704h704v-704h-704z m-32-64h768a32 32 0 0 1 32 32v768a32 32 0 0 1-32 32H128a32 32 0 0 1-32-32V128a32 32 0 0 1 32-32z" fill="#383838" p-id="3108"></path><path d="M320 288V128h64v352h256V128h64v160h160v64H704v128h160v64H704v128h160v64H704V896h-64V544H384V896H320v-160H128v-64h192v-128H128v-64h192v-128H128v-64h192z" fill="#383838" p-id="3109"></path></svg>