<?xml version="1.0" encoding="UTF-8"?>
<svg class="icon" viewBox="0 0 1024 1024" version="1.1" xmlns="http://www.w3.org/2000/svg" p-id="2375" width="1024" height="1024"><path d="M384 523.392V928a32 32 0 0 0 46.336 28.608l192-96A32 32 0 0 0 640 832V523.392l280.768-343.104a31.936 31.936 0 0 0-39.872-48.512 32.064 32.064 0 0 0-9.664 7.936l-288 352A32 32 0 0 0 576 512v300.224l-128 64V512a32 32 0 0 0-7.232-20.288L195.52 192H704a32 32 0 1 0 0-64H128a32 32 0 0 0-24.768 52.288L384 523.392z" fill="#383838" p-id="2376"></path></svg>