<?xml version="1.0" encoding="UTF-8"?>
<svg class="icon" viewBox="0 0 1024 1024" version="1.1" xmlns="http://www.w3.org/2000/svg" p-id="5647" width="1024" height="1024"><path d="M192 704a64 64 0 0 1-64-64V192a64 64 0 0 1 64-64h640a64 64 0 0 1 64 64v448a64 64 0 0 1-64 64H192z m227.712-294.4l128 102.4 236.032-245.376L736 224 540.288 424.192l-128-102.4-180.16 201.792 47.744 42.624L419.712 409.6z" fill="#383838" p-id="5648"></path><path d="M256 800m48 0l416 0q48 0 48 48l0 0q0 48-48 48l-416 0q-48 0-48-48l0 0q0-48 48-48Z" fill="#383838" p-id="5649"></path></svg>