<?xml version="1.0" encoding="UTF-8"?>
<svg class="icon" viewBox="0 0 1024 1024" version="1.1" xmlns="http://www.w3.org/2000/svg" p-id="4175" width="1024" height="1024"><path d="M256 410.304V96a32 32 0 1 1 64 0v314.304a96 96 0 0 0 64-90.56V96a32 32 0 1 1 64 0v223.744a160 160 0 0 1-128 156.8V928a32 32 0 0 1-64 0V476.544a160 160 0 0 1-128-156.8V96a32 32 0 1 1 64 0v223.744a96 96 0 0 0 64 90.56z m416 162.176C581.184 552.128 512 446.848 512 320c0-141.44 85.952-256 192-256s192 114.56 192 256c0 126.848-69.184 232.128-160 252.48V928a32 32 0 0 1-64 0V572.48zM704 512c66.048 0 128-82.56 128-192s-61.952-192-128-192-128 82.56-128 192 61.952 192 128 192z" fill="#383838" p-id="4176"></path></svg>