<?xml version="1.0" standalone="no"?><!DOCTYPE svg PUBLIC "-//W3C//DTD SVG 1.1//EN" "http://www.w3.org/Graphics/SVG/1.1/DTD/svg11.dtd"><svg viewBox="0 0 1024 1024" version="1.1" xmlns="http://www.w3.org/2000/svg" width="200" height="200" t="1775110619641" class="icon" p-id="47149827" xmlns:xlink="http://www.w3.org/1999/xlink"><path d="M652.501333 396.501333l-170.666666 170.666667a42.666667 42.666667 0 0 0 0 60.330667 42.666667 42.666667 0 0 0 60.330666 0l170.666667-170.666667a42.666667 42.666667 0 0 0 0-60.330667 42.666667 42.666667 0 0 0-60.330667 0z" fill="#000000" p-id="47149828"/><path d="M512 128C152.746667 128-74.069333 520.874667 105.6 832a42.666667 42.666667 0 0 0 58.24 15.573333 42.666667 42.666667 0 0 0 15.573333-58.24C30.549333 531.541333 214.357333 213.333333 512 213.333333s481.450667 318.208 332.586667 576a42.666667 42.666667 0 0 0 15.573333 58.24 42.666667 42.666667 0 0 0 58.24-15.573333C1098.026667 520.874667 871.253333 128 512 128z" fill="#000000" p-id="47149829"/></svg>