<?xml version="1.0" standalone="no"?><!DOCTYPE svg PUBLIC "-//W3C//DTD SVG 1.1//EN" "http://www.w3.org/Graphics/SVG/1.1/DTD/svg11.dtd"><svg viewBox="0 0 1024 1024" version="1.1" xmlns="http://www.w3.org/2000/svg" width="200" height="200" t="1775110619641" class="icon" p-id="47149830" xmlns:xlink="http://www.w3.org/1999/xlink"><path d="M479.317333 214.912a353.28 353.28 0 0 0-269.482666 131.669333C18.261333 581.12 187.818667 938.624 490.666667 938.666667a42.666667 42.666667 0 0 0 42.666666-42.666667 42.666667 42.666667 0 0 0-42.666666-42.666667c-236.8-0.042667-364.501333-269.397333-214.741334-452.736 149.76-183.381333 439.210667-112.085333 486.570667 119.893334a42.666667 42.666667 0 0 0 50.346667 33.322666 42.666667 42.666667 0 0 0 33.28-50.346666c-37.888-185.429333-202.154667-292.010667-366.805334-288.554667z" fill="#000000" p-id="47149831"/><path d="M554.666667 85.333333a42.666667 42.666667 0 0 0-42.666667 42.666667v384a42.666667 42.666667 0 0 0 42.666667 42.666667 42.666667 42.666667 0 0 0 42.666666-42.666667V128a42.666667 42.666667 0 0 0-42.666666-42.666667zM170.666667 853.333333a42.666667 42.666667 0 0 0-42.666667 42.666667 42.666667 42.666667 0 0 0 42.666667 42.666667h682.666666a42.666667 42.666667 0 0 0 42.666667-42.666667 42.666667 42.666667 0 0 0-42.666667-42.666667zM384 85.333333a42.666667 42.666667 0 0 0-42.666667 42.666667v384a42.666667 42.666667 0 0 0 42.666667 42.666667 42.666667 42.666667 0 0 0 42.666667-42.666667V128a42.666667 42.666667 0 0 0-42.666667-42.666667z" fill="#000000" p-id="47149832"/></svg>