<?xml version="1.0" standalone="no"?><!DOCTYPE svg PUBLIC "-//W3C//DTD SVG 1.1//EN" "http://www.w3.org/Graphics/SVG/1.1/DTD/svg11.dtd"><svg viewBox="0 0 1024 1024" version="1.1" xmlns="http://www.w3.org/2000/svg" width="200" height="200" t="1775110619641" class="icon" p-id="47149839" xmlns:xlink="http://www.w3.org/1999/xlink"><path d="M512 597.333333c-93.738667 0-170.666667 76.928-170.666667 170.666667s76.928 170.666667 170.666667 170.666667 170.666667-76.928 170.666667-170.666667-76.928-170.666667-170.666667-170.666667z m0 85.333334c47.616 0 85.333333 37.717333 85.333333 85.333333s-37.717333 85.333333-85.333333 85.333333-85.333333-37.717333-85.333333-85.333333 37.717333-85.333333 85.333333-85.333333zM256 85.333333C162.261333 85.333333 85.333333 162.261333 85.333333 256s76.928 170.666667 170.666667 170.666667 170.666667-76.928 170.666667-170.666667-76.928-170.666667-170.666667-170.666667z m0 85.333334c47.616 0 85.333333 37.717333 85.333333 85.333333s-37.717333 85.333333-85.333333 85.333333-85.333333-37.717333-85.333333-85.333333 37.717333-85.333333 85.333333-85.333333zM768 85.333333c-93.738667 0-170.666667 76.928-170.666667 170.666667s76.928 170.666667 170.666667 170.666667 170.666667-76.928 170.666667-170.666667-76.928-170.666667-170.666667-170.666667z m0 85.333334c47.616 0 85.333333 37.717333 85.333333 85.333333s-37.717333 85.333333-85.333333 85.333333-85.333333-37.717333-85.333333-85.333333 37.717333-85.333333 85.333333-85.333333z" fill="#000000" p-id="47149840"/><path d="M256 341.333333a42.666667 42.666667 0 0 0-42.666667 42.666667v85.333333c0 22.272 8.149333 45.013333 24.234667 61.098667 16.085333 16.085333 38.826667 24.234667 61.098667 24.234667h426.666666c22.272 0 45.013333-8.149333 61.098667-24.234667 16.085333-16.085333 24.234667-38.826667 24.234667-61.098667V384a42.666667 42.666667 0 0 0-42.666667-42.666667 42.666667 42.666667 0 0 0-42.666667 42.666667v85.333333H298.666667V384a42.666667 42.666667 0 0 0-42.666667-42.666667z" fill="#000000" p-id="47149841"/><path d="M512 469.333333a42.666667 42.666667 0 0 0-42.666667 42.666667v128a42.666667 42.666667 0 0 0 42.666667 42.666667 42.666667 42.666667 0 0 0 42.666667-42.666667v-128a42.666667 42.666667 0 0 0-42.666667-42.666667z" fill="#000000" p-id="47149842"/></svg>