<?xml version="1.0" standalone="no"?><!DOCTYPE svg PUBLIC "-//W3C//DTD SVG 1.1//EN" "http://www.w3.org/Graphics/SVG/1.1/DTD/svg11.dtd"><svg viewBox="0 0 1024 1024" version="1.1" xmlns="http://www.w3.org/2000/svg" width="200" height="200" t="1775110619642" class="icon" p-id="47149841" xmlns:xlink="http://www.w3.org/1999/xlink"><path d="M213.333333 85.333333C119.594667 85.333333 42.666667 162.261333 42.666667 256s76.928 170.666667 170.666666 170.666667 170.666667-76.928 170.666667-170.666667-76.928-170.666667-170.666667-170.666667z m0 85.333334c47.616 0 85.333333 37.717333 85.333334 85.333333s-37.717333 85.333333-85.333334 85.333333-85.333333-37.717333-85.333333-85.333333 37.717333-85.333333 85.333333-85.333333z" fill="#000000" p-id="47149842"/><path d="M213.333333 341.333333a42.666667 42.666667 0 0 0-42.666666 42.666667v256a42.666667 42.666667 0 0 0 42.666666 42.666667 42.666667 42.666667 0 0 0 42.666667-42.666667V384a42.666667 42.666667 0 0 0-42.666667-42.666667z" fill="#000000" p-id="47149843"/><path d="M213.333333 597.333333c-93.738667 0-170.666667 76.928-170.666666 170.666667s76.928 170.666667 170.666666 170.666667 170.666667-76.928 170.666667-170.666667-76.928-170.666667-170.666667-170.666667z m0 85.333334c47.616 0 85.333333 37.717333 85.333334 85.333333s-37.717333 85.333333-85.333334 85.333333-85.333333-37.717333-85.333333-85.333333 37.717333-85.333333 85.333333-85.333333zM512 85.333333a42.666667 42.666667 0 0 0-42.666667 42.666667v768a42.666667 42.666667 0 0 0 42.666667 42.666667 42.666667 42.666667 0 0 0 42.666667-42.666667V128a42.666667 42.666667 0 0 0-42.666667-42.666667zM810.666667 85.333333c-93.738667 0-170.666667 76.928-170.666667 170.666667s76.928 170.666667 170.666667 170.666667 170.666667-76.928 170.666666-170.666667-76.928-170.666667-170.666666-170.666667z m0 85.333334c47.616 0 85.333333 37.717333 85.333333 85.333333s-37.717333 85.333333-85.333333 85.333333-85.333333-37.717333-85.333334-85.333333 37.717333-85.333333 85.333334-85.333333z" fill="#000000" p-id="47149844"/><path d="M810.666667 341.333333a42.666667 42.666667 0 0 0-42.666667 42.666667 341.205333 341.205333 0 0 1-113.749333 254.08 42.666667 42.666667 0 0 0-3.413334 60.245333 42.666667 42.666667 0 0 0 60.245334 3.328A426.837333 426.837333 0 0 0 853.333333 384a42.666667 42.666667 0 0 0-42.666666-42.666667z" fill="#000000" p-id="47149845"/></svg>