<?xml version="1.0" standalone="no"?><!DOCTYPE svg PUBLIC "-//W3C//DTD SVG 1.1//EN" "http://www.w3.org/Graphics/SVG/1.1/DTD/svg11.dtd"><svg viewBox="0 0 1024 1024" version="1.1" xmlns="http://www.w3.org/2000/svg" width="200" height="200" t="1775110619642" class="icon" p-id="47149849" xmlns:xlink="http://www.w3.org/1999/xlink"><path d="M768 597.333333c-93.738667 0-170.666667 76.928-170.666667 170.666667s76.928 170.666667 170.666667 170.666667 170.666667-76.928 170.666667-170.666667-76.928-170.666667-170.666667-170.666667z m0 85.333334c47.616 0 85.333333 37.717333 85.333333 85.333333s-37.717333 85.333333-85.333333 85.333333-85.333333-37.717333-85.333333-85.333333 37.717333-85.333333 85.333333-85.333333zM256 85.333333C162.261333 85.333333 85.333333 162.261333 85.333333 256s76.928 170.666667 170.666667 170.666667 170.666667-76.928 170.666667-170.666667-76.928-170.666667-170.666667-170.666667z m0 85.333334c47.616 0 85.333333 37.717333 85.333333 85.333333s-37.717333 85.333333-85.333333 85.333333-85.333333-37.717333-85.333333-85.333333 37.717333-85.333333 85.333333-85.333333z" fill="#000000" p-id="47149850"/><path d="M554.666667 213.333333a42.666667 42.666667 0 0 0-42.666667 42.666667 42.666667 42.666667 0 0 0 42.666667 42.666667h128c24.064 0 42.666667 18.602667 42.666666 42.666666v298.666667a42.666667 42.666667 0 0 0 42.666667 42.666667 42.666667 42.666667 0 0 0 42.666667-42.666667V341.333333c0-70.186667-57.813333-128-128-128zM256 341.333333a42.666667 42.666667 0 0 0-42.666667 42.666667v512a42.666667 42.666667 0 0 0 42.666667 42.666667 42.666667 42.666667 0 0 0 42.666667-42.666667V384a42.666667 42.666667 0 0 0-42.666667-42.666667z" fill="#000000" p-id="47149851"/></svg>