<?xml version="1.0" encoding="UTF-8"?>
<svg class="icon" viewBox="0 0 1024 1024" version="1.1" xmlns="http://www.w3.org/2000/svg" p-id="4061" width="1024" height="1024"><path d="M544 638.4V896H640a32 32 0 0 1 0 64H384a32 32 0 0 1 0-64h96V638.4A320 320 0 0 1 192 320c0-85.632 21.312-170.944 64-256h512c42.688 64.32 64 149.632 64 256a320 320 0 0 1-288 318.4zM256 320a256 256 0 0 0 512 0c0-78.592-12.608-142.4-36.928-192H296.832C269.504 192.384 256 256.256 256 320z" fill="#383838" p-id="4062"></path></svg>