<?xml version="1.0" encoding="UTF-8"?>
<svg class="icon" viewBox="0 0 1024 1024" version="1.1" xmlns="http://www.w3.org/2000/svg" p-id="4130" width="1024" height="1024"><path d="M544 638.912V896H640a32 32 0 0 1 0 64H384a32 32 0 0 1 0-64h96V638.848C250.624 623.424 192 442.496 192 319.68V96a32 32 0 0 1 32-32h576a32 32 0 0 1 32 32V320c0 122.816-58.624 303.68-288 318.912zM256 319.68c0 149.568 80 256.192 256 256.256C688.128 576 768 469.568 768 320V128H256v191.68z" fill="#383838" p-id="4131"></path></svg>