<?xml version="1.0" standalone="no"?><!DOCTYPE svg PUBLIC "-//W3C//DTD SVG 1.1//EN" "http://www.w3.org/Graphics/SVG/1.1/DTD/svg11.dtd"><svg viewBox="0 0 1024 1024" version="1.1" xmlns="http://www.w3.org/2000/svg" width="200" height="200" t="1775110619649" class="icon" p-id="47149863" xmlns:xlink="http://www.w3.org/1999/xlink"><path d="M955.008 45.909333a42.666667 42.666667 0 0 0-46.506667 9.258667l-251.306666 251.306667a42.666667 42.666667 0 0 0 0 60.373333 42.666667 42.666667 0 0 0 60.288 0L896 188.330667V213.333333a42.666667 42.666667 0 0 0 42.666667 42.666667 42.666667 42.666667 0 0 0 42.666666-42.666667V85.333333a42.666667 42.666667 0 0 0-26.325333-39.424zM708.266667 507.306667c-93.781333 0-170.666667 76.928-170.666667 170.666666 0 93.781333 76.885333 170.666667 170.666667 170.666667 93.738667 0 170.666667-76.885333 170.666666-170.666667 0-93.738667-76.928-170.666667-170.666666-170.666666z m0 85.333333c47.616 0 85.333333 37.717333 85.333333 85.333333 0 47.658667-37.717333 85.333333-85.333333 85.333334-47.658667 0-85.333333-37.674667-85.333334-85.333334 0-47.616 37.674667-85.333333 85.333334-85.333333zM346.026667 145.066667c-93.781333 0-170.666667 76.928-170.666667 170.666666 0 93.781333 76.885333 170.666667 170.666667 170.666667 93.738667 0 170.666667-76.885333 170.666666-170.666667 0-93.738667-76.928-170.666667-170.666666-170.666666z m0 85.333333c47.616 0 85.333333 37.717333 85.333333 85.333333 0 47.658667-37.717333 85.333333-85.333333 85.333334-47.658667 0-85.333333-37.674667-85.333334-85.333334 0-47.616 37.674667-85.333333 85.333334-85.333333z" fill="#000000" p-id="47149864"/><path d="M526.933333 326.4c-93.781333 0-170.666667 76.928-170.666666 170.666667 0 93.781333 76.885333 170.666667 170.666666 170.666666 93.738667 0 170.666667-76.885333 170.666667-170.666666 0-93.738667-76.928-170.666667-170.666667-170.666667z m0 85.333333c47.616 0 85.333333 37.717333 85.333334 85.333334 0 47.658667-37.717333 85.333333-85.333334 85.333333-47.658667 0-85.333333-37.674667-85.333333-85.333333 0-47.616 37.674667-85.333333 85.333333-85.333334z" fill="#000000" p-id="47149865"/><path d="M593.493333 78.933333c-93.738667 0-170.666667 76.885333-170.666666 170.666667 0 93.738667 76.928 170.666667 170.666666 170.666667s170.666667-76.928 170.666667-170.666667c0-93.781333-76.928-170.666667-170.666667-170.666667z m0 85.333334c47.658667 0 85.333333 37.674667 85.333334 85.333333 0 47.616-37.674667 85.333333-85.333334 85.333333-47.616 0-85.333333-37.717333-85.333333-85.333333 0-47.658667 37.717333-85.333333 85.333333-85.333333z" fill="#000000" p-id="47149866"/><path d="M774.4 259.84c-93.738667 0-170.666667 76.928-170.666667 170.666667s76.928 170.666667 170.666667 170.666666c93.781333 0 170.666667-76.928 170.666667-170.666666s-76.885333-170.666667-170.666667-170.666667z m0 85.333333c47.658667 0 85.333333 37.674667 85.333333 85.333334 0 47.616-37.674667 85.333333-85.333333 85.333333-47.616 0-85.333333-37.717333-85.333333-85.333333 0-47.658667 37.717333-85.333333 85.333333-85.333334zM279.893333 392.533333c-93.738667 0-170.666667 76.885333-170.666666 170.666667 0 93.738667 76.928 170.666667 170.666666 170.666667 93.781333 0 170.666667-76.928 170.666667-170.666667 0-93.781333-76.885333-170.666667-170.666667-170.666667z m0 85.333334c47.658667 0 85.333333 37.674667 85.333334 85.333333 0 47.616-37.674667 85.333333-85.333334 85.333333-47.616 0-85.333333-37.717333-85.333333-85.333333 0-47.658667 37.717333-85.333333 85.333333-85.333333z" fill="#000000" p-id="47149867"/><path d="M460.8 573.44c-93.738667 0-170.666667 76.885333-170.666667 170.666667 0 93.738667 76.928 170.666667 170.666667 170.666666 93.781333 0 170.666667-76.928 170.666667-170.666666 0-93.781333-76.885333-170.666667-170.666667-170.666667z m0 85.333333c47.658667 0 85.333333 37.674667 85.333333 85.333334 0 47.616-37.674667 85.333333-85.333333 85.333333-47.616 0-85.333333-37.717333-85.333333-85.333333 0-47.658667 37.717333-85.333333 85.333333-85.333334z" fill="#000000" p-id="47149868"/><path d="M213.333333 640c-93.738667 0-170.666667 76.928-170.666666 170.666667s76.928 170.666667 170.666666 170.666666 170.666667-76.928 170.666667-170.666666-76.928-170.666667-170.666667-170.666667z m0 85.333333c47.616 0 85.333333 37.717333 85.333334 85.333334s-37.717333 85.333333-85.333334 85.333333-85.333333-37.717333-85.333333-85.333333 37.717333-85.333333 85.333333-85.333334z" fill="#000000" p-id="47149869"/></svg>