<?xml version="1.0" encoding="UTF-8"?>
<svg class="icon" viewBox="0 0 1024 1024" version="1.1" xmlns="http://www.w3.org/2000/svg" p-id="5682" width="1024" height="1024"><path d="M128 128m192 0l384 0q192 0 192 192l0 384q0 192-192 192l-384 0q-192 0-192-192l0-384q0-192 192-192Z" fill="#383838" p-id="5683"></path><path d="M429.12 362.688A32 32 0 1 0 381.568 320l-53.056 58.88-27.392-30.464a32 32 0 0 0-47.552 42.816l51.2 56.896a32 32 0 0 0 47.552 0l76.8-85.376zM533.376 352a32 32 0 1 0 0 64h213.312a32 32 0 1 0 0-64H533.376z m-32 288a32 32 0 0 1 32-32h213.312a32 32 0 1 1 0 64H533.376a32 32 0 0 1-32-32z m-192 0a32 32 0 1 1 64 0 32 32 0 0 1-64 0z m32-96a96 96 0 1 0 0 192 96 96 0 0 0 0-192z" fill="#FFFFFF" p-id="5684"></path></svg>