<?xml version="1.0" standalone="no"?><!DOCTYPE svg PUBLIC "-//W3C//DTD SVG 1.1//EN" "http://www.w3.org/Graphics/SVG/1.1/DTD/svg11.dtd"><svg viewBox="0 0 1024 1024" version="1.1" xmlns="http://www.w3.org/2000/svg" width="200" height="200" t="1775110619651" class="icon" p-id="47149893" xmlns:xlink="http://www.w3.org/1999/xlink"><path d="M221.866667 221.866667a42.666667 42.666667 0 0 0-30.208 12.458666 42.666667 42.666667 0 0 0 0 60.330667l59.733333 59.733333a42.666667 42.666667 0 0 0 60.373333 0 42.666667 42.666667 0 0 0 0-60.288l-59.733333-59.733333a42.666667 42.666667 0 0 0-30.208-12.544zM85.333333 512a42.666667 42.666667 0 0 0-42.666666 42.666667 42.666667 42.666667 0 0 0 42.666666 42.666666h85.333334a42.666667 42.666667 0 0 0 42.666666-42.666666 42.666667 42.666667 0 0 0-42.666666-42.666667zM853.333333 512a42.666667 42.666667 0 0 0-42.666666 42.666667 42.666667 42.666667 0 0 0 42.666666 42.666666h85.333334a42.666667 42.666667 0 0 0 42.666666-42.666666 42.666667 42.666667 0 0 0-42.666666-42.666667zM802.133333 221.866667a42.666667 42.666667 0 0 0-30.122666 12.458666l-59.733334 59.733334a42.666667 42.666667 0 0 0 0 60.373333 42.666667 42.666667 0 0 0 60.288 0l59.733334-59.733333a42.666667 42.666667 0 0 0 0-60.373334 42.666667 42.666667 0 0 0-30.122667-12.501333zM85.333333 682.666667a42.666667 42.666667 0 0 0-42.666666 42.666666 42.666667 42.666667 0 0 0 42.666666 42.666667h853.333334a42.666667 42.666667 0 0 0 42.666666-42.666667 42.666667 42.666667 0 0 0-42.666666-42.666666zM85.333333 853.333333a42.666667 42.666667 0 0 0-42.666666 42.666667 42.666667 42.666667 0 0 0 42.666666 42.666667h853.333334a42.666667 42.666667 0 0 0 42.666666-42.666667 42.666667 42.666667 0 0 0-42.666666-42.666667zM512 341.333333c-52.138667 0-104.874667 17.152-145.664 53.418667S298.666667 487.125333 298.666667 554.666667a42.666667 42.666667 0 0 0 42.666666 42.666666 42.666667 42.666667 0 0 0 42.666667-42.666666c0-46.208 15.786667-75.477333 38.997333-96.085334C446.208 437.973333 478.805333 426.666667 512 426.666667c33.194667 0 65.792 11.306667 89.002667 31.914666 23.210667 20.608 38.997333 49.877333 38.997333 96.085334a42.666667 42.666667 0 0 0 42.666667 42.666666 42.666667 42.666667 0 0 0 42.666666-42.666666c0-67.541333-26.88-123.648-67.669333-159.914667C616.874667 358.485333 564.138667 341.333333 512 341.333333zM512 64a42.666667 42.666667 0 0 0-42.666667 42.666667V213.333333a42.666667 42.666667 0 0 0 42.666667 42.666667 42.666667 42.666667 0 0 0 42.666667-42.666667V106.666667a42.666667 42.666667 0 0 0-42.666667-42.666667z" fill="#000000" p-id="47149894"/></svg>