<?xml version="1.0" standalone="no"?><!DOCTYPE svg PUBLIC "-//W3C//DTD SVG 1.1//EN" "http://www.w3.org/Graphics/SVG/1.1/DTD/svg11.dtd"><svg viewBox="0 0 1024 1024" version="1.1" xmlns="http://www.w3.org/2000/svg" width="200" height="200" t="1775110619651" class="icon" p-id="47149901" xmlns:xlink="http://www.w3.org/1999/xlink"><path d="M838.656 554.666667a42.666667 42.666667 0 0 0-42.666667 42.666666 42.666667 42.666667 0 0 0 42.666667 42.666667H896a42.666667 42.666667 0 0 0 42.666667-42.666667 42.666667 42.666667 0 0 0-42.666667-42.666666z" fill="#000000" p-id="47149902"/><path d="M479.104 86.485333a426.538667 426.538667 0 0 0-103.253333 21.077334 42.666667 42.666667 0 0 0-26.88 54.101333 42.666667 42.666667 0 0 0 54.101333 26.837333C625.493333 113.621333 853.333333 277.290667 853.333333 512v142.677333a42.666667 42.666667 0 0 0 42.666667 42.666667 42.666667 42.666667 0 0 0 42.666667-42.666667V512c0-254.208-220.117333-444.074667-459.562667-425.514667zM55.168 55.168a42.666667 42.666667 0 0 0 0 60.330667l853.333333 853.333333a42.666667 42.666667 0 0 0 60.330667 0 42.666667 42.666667 0 0 0 0-60.330667l-853.333333-853.333333a42.666667 42.666667 0 0 0-60.330667 0z" fill="#000000" p-id="47149903"/><path d="M682.666667 640a42.666667 42.666667 0 0 0-42.666667 42.666667v128c0 70.186667 57.813333 128 128 128h42.666667c33.92 0 66.517333-13.525333 90.496-37.504a42.666667 42.666667 0 0 0 0-60.330667 42.666667 42.666667 0 0 0-60.330667 0A42.624 42.624 0 0 1 810.666667 853.333333h-42.666667c-24.064 0-42.666667-18.602667-42.666667-42.666666v-128a42.666667 42.666667 0 0 0-42.666666-42.666667zM210.346667 210.346667A426.666667 426.666667 0 0 0 85.333333 512v298.666667c0 70.186667 57.813333 128 128 128h42.666667c70.186667 0 128-57.813333 128-128v-128c0-70.186667-57.813333-128-128-128H170.666667v-42.666667c0-90.538667 35.968-177.322667 100.010666-241.322667a42.666667 42.666667 0 0 0 0-60.330666 42.666667 42.666667 0 0 0-60.330666 0zM170.666667 640h85.333333c24.064 0 42.666667 18.602667 42.666667 42.666667v128c0 24.064-18.602667 42.666667-42.666667 42.666666H213.333333c-24.064 0-42.666667-18.602667-42.666666-42.666666z" fill="#000000" p-id="47149904"/></svg>