<?xml version="1.0" standalone="no"?><!DOCTYPE svg PUBLIC "-//W3C//DTD SVG 1.1//EN" "http://www.w3.org/Graphics/SVG/1.1/DTD/svg11.dtd"><svg viewBox="0 0 1024 1024" version="1.1" xmlns="http://www.w3.org/2000/svg" width="200" height="200" t="1775110619651" class="icon" p-id="47149904" xmlns:xlink="http://www.w3.org/1999/xlink"><path d="M512 85.333333C276.864 85.333333 85.333333 276.864 85.333333 512v298.666667c0 70.186667 57.813333 128 128 128h42.666667c70.186667 0 128-57.813333 128-128v-128c0-70.186667-57.813333-128-128-128H170.666667v-42.666667c0-189.013333 152.32-341.333333 341.333333-341.333333s341.333333 152.32 341.333333 341.333333v42.666667h-85.333333c-70.186667 0-128 57.813333-128 128v128c0 70.186667 57.813333 128 128 128h42.666667c70.186667 0 128-57.813333 128-128v-298.666667c0-235.136-191.530667-426.666667-426.666667-426.666667zM170.666667 640h85.333333c24.064 0 42.666667 18.602667 42.666667 42.666667v128c0 24.064-18.602667 42.666667-42.666667 42.666666H213.333333c-24.064 0-42.666667-18.602667-42.666666-42.666666z m597.333333 0h85.333333v170.666667c0 24.064-18.602667 42.666667-42.666666 42.666666h-42.666667c-24.064 0-42.666667-18.602667-42.666667-42.666666v-128c0-24.064 18.602667-42.666667 42.666667-42.666667z" fill="#000000" p-id="47149905"/></svg>