<?xml version="1.0" standalone="no"?><!DOCTYPE svg PUBLIC "-//W3C//DTD SVG 1.1//EN" "http://www.w3.org/Graphics/SVG/1.1/DTD/svg11.dtd"><svg viewBox="0 0 1024 1024" version="1.1" xmlns="http://www.w3.org/2000/svg" width="200" height="200" t="1775110619651" class="icon" p-id="47149900" xmlns:xlink="http://www.w3.org/1999/xlink"><path d="M170.666667 469.333333a42.666667 42.666667 0 0 0-42.666667 42.666667 42.666667 42.666667 0 0 0 42.666667 42.666667h341.333333a42.666667 42.666667 0 0 0 42.666667-42.666667 42.666667 42.666667 0 0 0-42.666667-42.666667z" fill="#000000" p-id="47149901"/><path d="M170.666667 213.333333a42.666667 42.666667 0 0 0-42.666667 42.666667v512a42.666667 42.666667 0 0 0 42.666667 42.666667 42.666667 42.666667 0 0 0 42.666666-42.666667V256a42.666667 42.666667 0 0 0-42.666666-42.666667zM512 213.333333a42.666667 42.666667 0 0 0-42.666667 42.666667v512a42.666667 42.666667 0 0 0 42.666667 42.666667 42.666667 42.666667 0 0 0 42.666667-42.666667V256a42.666667 42.666667 0 0 0-42.666667-42.666667zM810.666667 554.666667c-70.186667 0-128 57.813333-128 128s57.813333 128 128 128 128-57.813333 128-128-57.813333-128-128-128z m0 85.333333c24.064 0 42.666667 18.602667 42.666666 42.666667 0 24.064-18.602667 42.666667-42.666666 42.666666-24.064 0-42.666667-18.602667-42.666667-42.666666 0-24.064 18.602667-42.666667 42.666667-42.666667z" fill="#000000" p-id="47149902"/><path d="M823.168 396.501333C735.317333 484.352 682.666667 564.608 682.666667 682.666667a42.666667 42.666667 0 0 0 42.666666 42.666666 42.666667 42.666667 0 0 0 42.666667-42.666666c0-95.274667 32.682667-143.018667 115.498667-225.834667a42.666667 42.666667 0 0 0 0-60.330667 42.666667 42.666667 0 0 0-60.330667 0z" fill="#000000" p-id="47149903"/></svg>