<?xml version="1.0" standalone="no"?><!DOCTYPE svg PUBLIC "-//W3C//DTD SVG 1.1//EN" "http://www.w3.org/Graphics/SVG/1.1/DTD/svg11.dtd"><svg viewBox="0 0 1024 1024" version="1.1" xmlns="http://www.w3.org/2000/svg" width="200" height="200" t="1775110619651" class="icon" p-id="47149895" xmlns:xlink="http://www.w3.org/1999/xlink"><path d="M170.666667 469.333333a42.666667 42.666667 0 0 0-42.666667 42.666667 42.666667 42.666667 0 0 0 42.666667 42.666667h341.333333a42.666667 42.666667 0 0 0 42.666667-42.666667 42.666667 42.666667 0 0 0-42.666667-42.666667z" fill="#000000" p-id="47149896"/><path d="M170.666667 213.333333a42.666667 42.666667 0 0 0-42.666667 42.666667v512a42.666667 42.666667 0 0 0 42.666667 42.666667 42.666667 42.666667 0 0 0 42.666666-42.666667V256a42.666667 42.666667 0 0 0-42.666666-42.666667zM512 213.333333a42.666667 42.666667 0 0 0-42.666667 42.666667v512a42.666667 42.666667 0 0 0 42.666667 42.666667 42.666667 42.666667 0 0 0 42.666667-42.666667V256a42.666667 42.666667 0 0 0-42.666667-42.666667zM873.514667 389.12a42.666667 42.666667 0 0 0-43.861334 2.048l-128 85.333333a42.666667 42.666667 0 0 0-11.818666 59.178667 42.666667 42.666667 0 0 0 59.178666 11.818667L810.666667 506.410667V768a42.666667 42.666667 0 0 0 42.666666 42.666667 42.666667 42.666667 0 0 0 42.666667-42.666667v-341.333333a42.666667 42.666667 0 0 0-22.485333-37.546667z" fill="#000000" p-id="47149897"/></svg>