<?xml version="1.0" standalone="no"?><!DOCTYPE svg PUBLIC "-//W3C//DTD SVG 1.1//EN" "http://www.w3.org/Graphics/SVG/1.1/DTD/svg11.dtd"><svg viewBox="0 0 1024 1024" version="1.1" xmlns="http://www.w3.org/2000/svg" width="200" height="200" t="1775110619652" class="icon" p-id="47149910" xmlns:xlink="http://www.w3.org/1999/xlink"><path d="M493.013333 49.834667a42.666667 42.666667 0 0 0-59.178666 11.818666c-24.96 37.461333-35.072 73.514667-30.848 105.386667 4.266667 31.786667 20.181333 53.973333 30.848 69.973333s16.085333 25.813333 17.152 34.005334c1.109333 8.149333 0.554667 20.096-17.152 46.634666a42.666667 42.666667 0 0 0 11.818666 59.178667 42.666667 42.666667 0 0 0 59.178667-11.818667c24.96-37.461333 35.072-73.514667 30.848-105.386666-4.266667-31.786667-20.181333-53.973333-30.848-69.973334s-16.085333-25.813333-17.152-34.005333c-1.109333-8.149333-0.554667-20.096 17.152-46.634667a42.666667 42.666667 0 0 0-11.818667-59.178666zM653.013333 43.52a42.666667 42.666667 0 0 0-27.178666 18.133333c-24.96 37.461333-35.072 73.514667-30.848 105.386667 4.266667 31.786667 20.181333 53.973333 30.848 69.973333s16.085333 25.813333 17.152 34.005334c1.109333 8.149333 0.554667 20.096-17.152 46.634666a42.666667 42.666667 0 0 0 11.818666 59.178667 42.666667 42.666667 0 0 0 59.178667-11.818667c24.96-37.461333 35.072-73.514667 30.848-105.386666-4.266667-31.786667-20.181333-53.973333-30.848-69.973334s-16.085333-25.813333-17.152-34.005333c-1.109333-8.149333-0.554667-20.096 17.152-46.634667a42.666667 42.666667 0 0 0-11.818667-59.178666 42.666667 42.666667 0 0 0-32-6.314667zM256 384a42.666667 42.666667 0 0 0-42.666667 42.666667 42.666667 42.666667 0 0 0 42.666667 42.666666h0.426667a42.666667 42.666667 0 0 0 42.666666-42.666666 42.666667 42.666667 0 0 0-42.666666-42.666667zM256 554.666667a42.666667 42.666667 0 0 0-42.666667 42.666666 42.666667 42.666667 0 0 0 42.666667 42.666667h0.426667a42.666667 42.666667 0 0 0 42.666666-42.666667 42.666667 42.666667 0 0 0-42.666666-42.666666zM426.666667 469.333333a42.666667 42.666667 0 0 0-42.666667 42.666667v170.666667a42.666667 42.666667 0 0 0 42.666667 42.666666 42.666667 42.666667 0 0 0 42.666666-42.666666v-170.666667a42.666667 42.666667 0 0 0-42.666666-42.666667zM597.333333 469.333333a42.666667 42.666667 0 0 0-42.666666 42.666667v170.666667a42.666667 42.666667 0 0 0 42.666666 42.666666 42.666667 42.666667 0 0 0 42.666667-42.666666v-170.666667a42.666667 42.666667 0 0 0-42.666667-42.666667zM768 469.333333a42.666667 42.666667 0 0 0-42.666667 42.666667v170.666667a42.666667 42.666667 0 0 0 42.666667 42.666666 42.666667 42.666667 0 0 0 42.666667-42.666666v-170.666667a42.666667 42.666667 0 0 0-42.666667-42.666667z" fill="#000000" p-id="47149911"/><path d="M170.666667 213.333333C100.48 213.333333 42.666667 271.146667 42.666667 341.333333v426.666667c0 70.186667 57.813333 128 128 128h682.666666c70.186667 0 128-57.813333 128-128V341.333333c0-70.186667-57.813333-128-128-128a42.666667 42.666667 0 0 0-42.666666 42.666667 42.666667 42.666667 0 0 0 42.666666 42.666667c24.064 0 42.666667 18.602667 42.666667 42.666666v426.666667c0 24.064-18.602667 42.666667-42.666667 42.666667H170.666667c-24.064 0-42.666667-18.602667-42.666667-42.666667V341.333333c0-24.064 18.602667-42.666667 42.666667-42.666666h128a42.666667 42.666667 0 0 0 42.666666-42.666667 42.666667 42.666667 0 0 0-42.666666-42.666667z" fill="#000000" p-id="47149912"/><path d="M213.333333 810.666667a42.666667 42.666667 0 0 0-42.666666 42.666666v85.333334a42.666667 42.666667 0 0 0 42.666666 42.666666 42.666667 42.666667 0 0 0 42.666667-42.666666v-85.333334a42.666667 42.666667 0 0 0-42.666667-42.666666zM810.666667 810.666667a42.666667 42.666667 0 0 0-42.666667 42.666666v85.333334a42.666667 42.666667 0 0 0 42.666667 42.666666 42.666667 42.666667 0 0 0 42.666666-42.666666v-85.333334a42.666667 42.666667 0 0 0-42.666666-42.666666z" fill="#000000" p-id="47149913"/></svg>