<?xml version="1.0" encoding="UTF-8"?>
<svg class="icon" viewBox="0 0 1024 1024" version="1.1" xmlns="http://www.w3.org/2000/svg" p-id="5204" width="1024" height="1024"><path d="M926.784 480h-225.472A192.512 192.512 0 0 0 544 322.688V97.216A416.064 416.064 0 0 1 926.784 480z m0 64A416 416 0 0 1 544 926.784v-225.472A192.512 192.512 0 0 0 701.312 544h225.472zM97.28 544h225.472A192.512 192.512 0 0 0 480 701.312v225.472A416.064 416.064 0 0 1 97.216 544h0.064z m0-64A416.064 416.064 0 0 1 480 97.216v225.472A192.512 192.512 0 0 0 322.688 480H97.216h0.064z" fill="#383838" p-id="5205"></path></svg>