<?xml version="1.0" encoding="UTF-8"?>
<svg class="icon" viewBox="0 0 1024 1024" version="1.1" xmlns="http://www.w3.org/2000/svg" p-id="5636" width="1024" height="1024"><path d="M93.312 481.728L495.552 92.16a23.36 23.36 0 0 1 32.896 0l402.24 389.632c16.448 16 5.76 44.992-16.448 44.992h-56.384v308.48c0 57.152-43.712 103.424-97.536 103.424H263.68c-53.824 0-97.536-46.272-97.536-103.424V526.72h-56.32c-22.336 0-32.896-29.056-16.512-44.992z m382.08 172.16c-26.88 0-48.704 23.168-48.704 51.776v180.992h170.688v-180.992c0-28.608-21.824-51.776-48.768-51.776H475.456z" fill="#383838" p-id="5637"></path></svg>