<?xml version="1.0" standalone="no"?><!DOCTYPE svg PUBLIC "-//W3C//DTD SVG 1.1//EN" "http://www.w3.org/Graphics/SVG/1.1/DTD/svg11.dtd"><svg viewBox="0 0 1024 1024" version="1.1" xmlns="http://www.w3.org/2000/svg" width="200" height="200" t="1775110619652" class="icon" p-id="47149920" xmlns:xlink="http://www.w3.org/1999/xlink"><path d="M213.333333 896a42.666667 42.666667 0 0 0-42.666666 42.666667 42.666667 42.666667 0 0 0 42.666666 42.666666h597.333334a42.666667 42.666667 0 0 0 42.666666-42.666666 42.666667 42.666667 0 0 0-42.666666-42.666667zM213.333333 42.666667a42.666667 42.666667 0 0 0-42.666666 42.666666 42.666667 42.666667 0 0 0 42.666666 42.666667h597.333334a42.666667 42.666667 0 0 0 42.666666-42.666667 42.666667 42.666667 0 0 0-42.666666-42.666666z" fill="#000000" p-id="47149921"/><path d="M481.834667 481.834667l-188.330667 188.330666A128.042667 128.042667 0 0 0 256 760.661333V938.666667a42.666667 42.666667 0 0 0 42.666667 42.666666 42.666667 42.666667 0 0 0 42.666666-42.666666v-178.005334c0-11.306667 4.48-22.186667 12.501334-30.165333L512 572.330667l158.165333 158.165333a42.624 42.624 0 0 1 12.501334 30.165333V938.666667a42.666667 42.666667 0 0 0 42.666666 42.666666 42.666667 42.666667 0 0 0 42.666667-42.666666v-178.005334c0-33.92-13.525333-66.517333-37.504-90.496l-188.330667-188.330666a42.666667 42.666667 0 0 0-60.330666 0z" fill="#000000" p-id="47149922"/><path d="M298.666667 42.666667a42.666667 42.666667 0 0 0-42.666667 42.666666v178.005334c0 33.92 13.525333 66.517333 37.504 90.496l188.330667 188.330666a42.666667 42.666667 0 0 0 60.330666 0l188.330667-188.330666A128.042667 128.042667 0 0 0 768 263.338667V85.333333a42.666667 42.666667 0 0 0-42.666667-42.666666 42.666667 42.666667 0 0 0-42.666666 42.666666v178.005334c0 11.306667-4.48 22.186667-12.501334 30.165333L512 451.669333 353.834667 293.504A42.624 42.624 0 0 1 341.333333 263.338667V85.333333a42.666667 42.666667 0 0 0-42.666666-42.666666z" fill="#000000" p-id="47149923"/></svg>