<?xml version="1.0" standalone="no"?><!DOCTYPE svg PUBLIC "-//W3C//DTD SVG 1.1//EN" "http://www.w3.org/Graphics/SVG/1.1/DTD/svg11.dtd"><svg viewBox="0 0 1024 1024" version="1.1" xmlns="http://www.w3.org/2000/svg" width="200" height="200" t="1775110619654" class="icon" p-id="47149942" xmlns:xlink="http://www.w3.org/1999/xlink"><path d="M256 85.333333a42.666667 42.666667 0 0 0-42.666667 42.666667 42.666667 42.666667 0 0 0 42.666667 42.666667h512a42.666667 42.666667 0 0 0 42.666667-42.666667 42.666667 42.666667 0 0 0-42.666667-42.666667zM256 298.666667a42.666667 42.666667 0 0 0-42.666667 42.666666 42.666667 42.666667 0 0 0 42.666667 42.666667h512a42.666667 42.666667 0 0 0 42.666667-42.666667 42.666667 42.666667 0 0 0-42.666667-42.666666zM285.269333 523.562667a42.666667 42.666667 0 0 0-60.373333 1.834666 42.666667 42.666667 0 0 0 1.834667 60.373334l362.666666 341.333333a42.666667 42.666667 0 0 0 60.373334-1.834667 42.666667 42.666667 0 0 0-1.834667-60.373333z" fill="#000000" p-id="47149943"/><path d="M256 512a42.666667 42.666667 0 0 0-42.666667 42.666667 42.666667 42.666667 0 0 0 42.666667 42.666666h128a42.666667 42.666667 0 0 0 42.666667-42.666666 42.666667 42.666667 0 0 0-42.666667-42.666667z" fill="#000000" p-id="47149944"/><path d="M384 85.333333a42.666667 42.666667 0 0 0-42.666667 42.666667 42.666667 42.666667 0 0 0 42.666667 42.666667c60.458667 0 100.352 21.12 128.085333 52.352 27.733333 31.146667 42.581333 74.453333 42.581334 118.314666s-14.848 87.125333-42.581334 118.314667C484.352 490.88 444.458667 512 384 512a42.666667 42.666667 0 0 0-42.666667 42.666667 42.666667 42.666667 0 0 0 42.666667 42.666666c81.792 0 148.522667-32.213333 191.914667-80.981333C619.306667 467.541333 640 404.138667 640 341.333333c0-62.805333-20.693333-126.208-64.085333-175.018666C532.522667 117.546667 465.792 85.333333 384 85.333333z" fill="#000000" p-id="47149945"/></svg>