<?xml version="1.0" standalone="no"?><!DOCTYPE svg PUBLIC "-//W3C//DTD SVG 1.1//EN" "http://www.w3.org/Graphics/SVG/1.1/DTD/svg11.dtd"><svg viewBox="0 0 1024 1024" version="1.1" xmlns="http://www.w3.org/2000/svg" width="200" height="200" t="1775110619654" class="icon" p-id="47149948" xmlns:xlink="http://www.w3.org/1999/xlink"><path d="M213.333333 597.333333c-70.186667 0-128 57.813333-128 128v85.333334c0 70.186667 57.813333 128 128 128h597.333334c70.186667 0 128-57.813333 128-128v-85.333334c0-70.186667-57.813333-128-128-128z m0 85.333334h597.333334c24.064 0 42.666667 18.602667 42.666666 42.666666v85.333334c0 24.064-18.602667 42.666667-42.666666 42.666666H213.333333c-24.064 0-42.666667-18.602667-42.666666-42.666666v-85.333334c0-24.064 18.602667-42.666667 42.666666-42.666666z" fill="#000000" p-id="47149949"/><path d="M256 512a42.666667 42.666667 0 0 0-42.666667 42.666667v85.333333a42.666667 42.666667 0 0 0 42.666667 42.666667 42.666667 42.666667 0 0 0 42.666667-42.666667v-85.333333a42.666667 42.666667 0 0 0-42.666667-42.666667zM512 341.333333a42.666667 42.666667 0 0 0-42.666667 42.666667v256a42.666667 42.666667 0 0 0 42.666667 42.666667 42.666667 42.666667 0 0 0 42.666667-42.666667V384a42.666667 42.666667 0 0 0-42.666667-42.666667z" fill="#000000" p-id="47149950"/><path d="M512 85.333333C418.261333 85.333333 341.333333 162.261333 341.333333 256s76.928 170.666667 170.666667 170.666667 170.666667-76.928 170.666667-170.666667-76.928-170.666667-170.666667-170.666667z m0 85.333334c47.616 0 85.333333 37.717333 85.333333 85.333333s-37.717333 85.333333-85.333333 85.333333-85.333333-37.717333-85.333333-85.333333 37.717333-85.333333 85.333333-85.333333z" fill="#000000" p-id="47149951"/></svg>