<?xml version="1.0" standalone="no"?><!DOCTYPE svg PUBLIC "-//W3C//DTD SVG 1.1//EN" "http://www.w3.org/Graphics/SVG/1.1/DTD/svg11.dtd"><svg viewBox="0 0 1024 1024" version="1.1" xmlns="http://www.w3.org/2000/svg" width="200" height="200" t="1775110619654" class="icon" p-id="47149957" xmlns:xlink="http://www.w3.org/1999/xlink"><path d="M512 384a42.666667 42.666667 0 0 0-42.666667 42.666667v512a42.666667 42.666667 0 0 0 42.666667 42.666666 42.666667 42.666667 0 0 0 42.666667-42.666666V426.666667a42.666667 42.666667 0 0 0-42.666667-42.666667z" fill="#000000" p-id="47149958"/><path d="M384 42.666667c-34.773333 0-66.346667 21.376-79.232 53.674666l-85.333333 213.333334C197.546667 364.330667 239.786667 426.624 298.666667 426.666667h426.666666c58.88 0 101.12-62.293333 79.232-116.992l-85.418666-213.333334h0.085333A85.674667 85.674667 0 0 0 640 42.666667z m0 85.333333h256l85.333333 213.333333H298.666667zM384 896a42.666667 42.666667 0 0 0-42.666667 42.666667 42.666667 42.666667 0 0 0 42.666667 42.666666h256a42.666667 42.666667 0 0 0 42.666667-42.666666 42.666667 42.666667 0 0 0-42.666667-42.666667z" fill="#000000" p-id="47149959"/></svg>