<?xml version="1.0" standalone="no"?><!DOCTYPE svg PUBLIC "-//W3C//DTD SVG 1.1//EN" "http://www.w3.org/Graphics/SVG/1.1/DTD/svg11.dtd"><svg viewBox="0 0 1024 1024" version="1.1" xmlns="http://www.w3.org/2000/svg" width="200" height="200" t="1775110619656" class="icon" p-id="47149983" xmlns:xlink="http://www.w3.org/1999/xlink"><path d="M450.432 42.666667a85.504 85.504 0 0 0-70.357333 38.229333 42.666667 42.666667 0 0 0-0.554667 0.938667 810.794667 810.794667 0 0 0 0 860.330666 42.666667 42.666667 0 0 0 0.554667 0.938667c15.616 23.552 42.069333 37.973333 70.357333 38.229333a42.666667 42.666667 0 0 0 0.426667 0h122.325333a42.666667 42.666667 0 0 0 0.426667 0 85.504 85.504 0 0 0 70.314666-38.229333 42.666667 42.666667 0 0 0 0.597334-0.938667 810.794667 810.794667 0 0 0 0-860.330666 42.666667 42.666667 0 0 0-0.597334-0.938667A85.504 85.504 0 0 0 573.568 42.666667a42.666667 42.666667 0 0 0-0.426667 0h-122.325333a42.666667 42.666667 0 0 0-0.426667 0z m0.981333 85.333333h121.173334a724.992 724.992 0 0 1 0 768h-121.173334a724.992 724.992 0 0 1 0-768z" fill="#000000" p-id="47149984"/></svg>