<?xml version="1.0" standalone="no"?><!DOCTYPE svg PUBLIC "-//W3C//DTD SVG 1.1//EN" "http://www.w3.org/Graphics/SVG/1.1/DTD/svg11.dtd"><svg viewBox="0 0 1024 1024" version="1.1" xmlns="http://www.w3.org/2000/svg" width="200" height="200" t="1775110619656" class="icon" p-id="47149988" xmlns:xlink="http://www.w3.org/1999/xlink"><path d="M512 42.666667C253.312 42.666667 42.666667 253.312 42.666667 512s210.645333 469.333333 469.333333 469.333333 469.333333-210.645333 469.333333-469.333333S770.688 42.666667 512 42.666667z m0 85.333333c212.565333 0 384 171.434667 384 384s-171.434667 384-384 384-384-171.434667-384-384 171.434667-384 384-384z" fill="#000000" p-id="47149989"/><path d="M210.346667 167.68a42.666667 42.666667 0 0 0-30.165334 12.501333 42.666667 42.666667 0 0 0 0 60.330667l180.906667 180.906667a42.666667 42.666667 0 0 0 60.330667 0 42.666667 42.666667 0 0 0 0-60.330667l-180.906667-180.906667a42.666667 42.666667 0 0 0-30.165333-12.501333zM783.488 180.181333l-180.906667 180.906667a42.666667 42.666667 0 0 0 0 60.330667 42.666667 42.666667 0 0 0 60.330667 0l180.906667-180.906667a42.666667 42.666667 0 0 0 0-60.330667 42.666667 42.666667 0 0 0-60.330667 0zM632.746667 590.08a42.666667 42.666667 0 0 0-30.165334 12.501333 42.666667 42.666667 0 0 0 0 60.330667l180.906667 180.906667a42.666667 42.666667 0 0 0 60.330667 0 42.666667 42.666667 0 0 0 0-60.330667l-180.906667-180.906667a42.666667 42.666667 0 0 0-30.165333-12.501333zM391.253333 590.08a42.666667 42.666667 0 0 0-30.165333 12.501333l-180.906667 180.906667a42.666667 42.666667 0 0 0 0 60.330667 42.666667 42.666667 0 0 0 60.330667 0l180.906667-180.906667a42.666667 42.666667 0 0 0 0-60.330667 42.666667 42.666667 0 0 0-30.165334-12.501333z" fill="#000000" p-id="47149990"/><path d="M512 298.666667c-117.333333 0-213.333333 96-213.333333 213.333333s96 213.333333 213.333333 213.333333 213.333333-96 213.333333-213.333333-96-213.333333-213.333333-213.333333z m0 85.333333c71.210667 0 128 56.789333 128 128s-56.789333 128-128 128-128-56.789333-128-128 56.789333-128 128-128z" fill="#000000" p-id="47149991"/></svg>