<?xml version="1.0" standalone="no"?><!DOCTYPE svg PUBLIC "-//W3C//DTD SVG 1.1//EN" "http://www.w3.org/Graphics/SVG/1.1/DTD/svg11.dtd"><svg viewBox="0 0 1024 1024" version="1.1" xmlns="http://www.w3.org/2000/svg" width="200" height="200" t="1775110619657" class="icon" p-id="47150013" xmlns:xlink="http://www.w3.org/1999/xlink"><path d="M128 170.666667a42.666667 42.666667 0 0 0-42.666667 42.666666 42.666667 42.666667 0 0 0 42.666667 42.666667h768a42.666667 42.666667 0 0 0 42.666667-42.666667 42.666667 42.666667 0 0 0-42.666667-42.666666zM128 469.333333a42.666667 42.666667 0 0 0-42.666667 42.666667 42.666667 42.666667 0 0 0 42.666667 42.666667h170.666667a42.666667 42.666667 0 0 0 42.666666-42.666667 42.666667 42.666667 0 0 0-42.666666-42.666667zM128 768a42.666667 42.666667 0 0 0-42.666667 42.666667 42.666667 42.666667 0 0 0 42.666667 42.666666h170.666667a42.666667 42.666667 0 0 0 42.666666-42.666666 42.666667 42.666667 0 0 0-42.666666-42.666667zM704 405.333333a248.32 248.32 0 0 0-175.658667 72.661334l-89.173333 89.173333a42.666667 42.666667 0 0 0 0 60.330667 42.666667 42.666667 0 0 0 60.330667 0l89.173333-89.173334A162.56 162.56 0 0 1 704 490.666667c82.986667 0 149.333333 66.346667 149.333333 149.333333 0 84.394667-51.498667 140.202667-116.650666 161.92-65.194667 21.76-139.861333 8.021333-190.506667-59.52a42.666667 42.666667 0 0 0-59.733333-8.533333 42.666667 42.666667 0 0 0-8.618667 59.733333c72.362667 96.469333 189.696 121.258667 285.738667 89.216C859.648 850.816 938.666667 760.618667 938.666667 640c0-129.109333-105.557333-234.666667-234.666667-234.666667z" fill="#000000" p-id="47150014"/><path d="M469.333333 384a42.666667 42.666667 0 0 0-42.666666 42.666667v170.666666a42.666667 42.666667 0 0 0 42.666666 42.666667h170.666667a42.666667 42.666667 0 0 0 42.666667-42.666667 42.666667 42.666667 0 0 0-42.666667-42.666666h-128v-128a42.666667 42.666667 0 0 0-42.666667-42.666667z" fill="#000000" p-id="47150015"/></svg>