<?xml version="1.0" standalone="no"?><!DOCTYPE svg PUBLIC "-//W3C//DTD SVG 1.1//EN" "http://www.w3.org/Graphics/SVG/1.1/DTD/svg11.dtd"><svg viewBox="0 0 1024 1024" version="1.1" xmlns="http://www.w3.org/2000/svg" width="200" height="200" t="1775110619657" class="icon" p-id="47150003" xmlns:xlink="http://www.w3.org/1999/xlink"><path d="M128 170.666667a42.666667 42.666667 0 0 0-42.666667 42.666666 42.666667 42.666667 0 0 0 42.666667 42.666667h554.666667a42.666667 42.666667 0 0 0 42.666666-42.666667 42.666667 42.666667 0 0 0-42.666666-42.666666zM128 469.333333a42.666667 42.666667 0 0 0-42.666667 42.666667 42.666667 42.666667 0 0 0 42.666667 42.666667h554.666667a42.666667 42.666667 0 0 0 42.666666-42.666667 42.666667 42.666667 0 0 0-42.666666-42.666667zM128 768a42.666667 42.666667 0 0 0-42.666667 42.666667 42.666667 42.666667 0 0 0 42.666667 42.666666h256a42.666667 42.666667 0 0 0 42.666667-42.666666 42.666667 42.666667 0 0 0-42.666667-42.666667zM652.501333 652.501333l-128 128a42.666667 42.666667 0 0 0 0 60.330667l128 128a42.666667 42.666667 0 0 0 60.330667 0 42.666667 42.666667 0 0 0 0-60.330667L614.997333 810.666667l97.834667-97.834667a42.666667 42.666667 0 0 0 0-60.330667 42.666667 42.666667 0 0 0-60.330667 0z" fill="#000000" p-id="47150004"/><path d="M896 170.666667a42.666667 42.666667 0 0 0-42.666667 42.666666v512c0 24.064-18.602667 42.666667-42.666666 42.666667h-256a42.666667 42.666667 0 0 0-42.666667 42.666667 42.666667 42.666667 0 0 0 42.666667 42.666666h256c70.186667 0 128-57.813333 128-128V213.333333a42.666667 42.666667 0 0 0-42.666667-42.666666z" fill="#000000" p-id="47150005"/></svg>