<?xml version="1.0" standalone="no"?><!DOCTYPE svg PUBLIC "-//W3C//DTD SVG 1.1//EN" "http://www.w3.org/Graphics/SVG/1.1/DTD/svg11.dtd"><svg viewBox="0 0 1024 1024" version="1.1" xmlns="http://www.w3.org/2000/svg" width="200" height="200" t="1775110619658" class="icon" p-id="47150033" xmlns:xlink="http://www.w3.org/1999/xlink"><path d="M128 170.666667a42.666667 42.666667 0 0 0-42.666667 42.666666 42.666667 42.666667 0 0 0 42.666667 42.666667h554.666667a42.666667 42.666667 0 0 0 42.666666-42.666667 42.666667 42.666667 0 0 0-42.666666-42.666666zM128 469.333333a42.666667 42.666667 0 0 0-42.666667 42.666667 42.666667 42.666667 0 0 0 42.666667 42.666667h341.333333a42.666667 42.666667 0 0 0 42.666667-42.666667 42.666667 42.666667 0 0 0-42.666667-42.666667zM128 768a42.666667 42.666667 0 0 0-42.666667 42.666667 42.666667 42.666667 0 0 0 42.666667 42.666666h554.666667a42.666667 42.666667 0 0 0 42.666666-42.666666 42.666667 42.666667 0 0 0-42.666666-42.666667zM631.168 375.168a42.666667 42.666667 0 0 0 0 60.330667l213.333333 213.333333a42.666667 42.666667 0 0 0 60.330667 0 42.666667 42.666667 0 0 0 0-60.330667l-213.333333-213.333333a42.666667 42.666667 0 0 0-60.330667 0z" fill="#000000" p-id="47150034"/><path d="M844.501333 375.168l-213.333333 213.333333a42.666667 42.666667 0 0 0 0 60.330667 42.666667 42.666667 0 0 0 60.330667 0l213.333333-213.333333a42.666667 42.666667 0 0 0 0-60.330667 42.666667 42.666667 0 0 0-60.330667 0z" fill="#000000" p-id="47150035"/></svg>