<?xml version="1.0" standalone="no"?><!DOCTYPE svg PUBLIC "-//W3C//DTD SVG 1.1//EN" "http://www.w3.org/Graphics/SVG/1.1/DTD/svg11.dtd"><svg viewBox="0 0 1024 1024" version="1.1" xmlns="http://www.w3.org/2000/svg" width="200" height="200" t="1775110619657" class="icon" p-id="47150004" xmlns:xlink="http://www.w3.org/1999/xlink"><path d="M85.333333 170.666667a42.666667 42.666667 0 0 0-42.666666 42.666666 42.666667 42.666667 0 0 0 42.666666 42.666667h426.666667a42.666667 42.666667 0 0 0 42.666667-42.666667 42.666667 42.666667 0 0 0-42.666667-42.666666zM256 469.333333a42.666667 42.666667 0 0 0-42.666667 42.666667 42.666667 42.666667 0 0 0 42.666667 42.666667h512a42.666667 42.666667 0 0 0 42.666667-42.666667 42.666667 42.666667 0 0 0-42.666667-42.666667zM384 768a42.666667 42.666667 0 0 0-42.666667 42.666667 42.666667 42.666667 0 0 0 42.666667 42.666666h256a42.666667 42.666667 0 0 0 42.666667-42.666666 42.666667 42.666667 0 0 0-42.666667-42.666667zM682.666667 170.666667a42.666667 42.666667 0 0 0-42.666667 42.666666 42.666667 42.666667 0 0 0 42.666667 42.666667h256a42.666667 42.666667 0 0 0 42.666666-42.666667 42.666667 42.666667 0 0 0-42.666666-42.666666z" fill="#000000" p-id="47150005"/><path d="M810.666667 42.666667a42.666667 42.666667 0 0 0-42.666667 42.666666v256a42.666667 42.666667 0 0 0 42.666667 42.666667 42.666667 42.666667 0 0 0 42.666666-42.666667V85.333333a42.666667 42.666667 0 0 0-42.666666-42.666666z" fill="#000000" p-id="47150006"/></svg>