<?xml version="1.0" standalone="no"?><!DOCTYPE svg PUBLIC "-//W3C//DTD SVG 1.1//EN" "http://www.w3.org/Graphics/SVG/1.1/DTD/svg11.dtd"><svg viewBox="0 0 1024 1024" version="1.1" xmlns="http://www.w3.org/2000/svg" width="200" height="200" t="1775110619657" class="icon" p-id="47150008" xmlns:xlink="http://www.w3.org/1999/xlink"><path d="M469.333333 170.666667a42.666667 42.666667 0 0 0-42.666666 42.666666 42.666667 42.666667 0 0 0 42.666666 42.666667h426.666667a42.666667 42.666667 0 0 0 42.666667-42.666667 42.666667 42.666667 0 0 0-42.666667-42.666666zM469.333333 469.333333a42.666667 42.666667 0 0 0-42.666666 42.666667 42.666667 42.666667 0 0 0 42.666666 42.666667h426.666667a42.666667 42.666667 0 0 0 42.666667-42.666667 42.666667 42.666667 0 0 0-42.666667-42.666667zM469.333333 768a42.666667 42.666667 0 0 0-42.666666 42.666667 42.666667 42.666667 0 0 0 42.666666 42.666666h426.666667a42.666667 42.666667 0 0 0 42.666667-42.666666 42.666667 42.666667 0 0 0-42.666667-42.666667zM97.834667 311.168a42.666667 42.666667 0 0 0 0 60.330667L238.336 512l-140.501333 140.501333a42.666667 42.666667 0 0 0 0 60.330667 42.666667 42.666667 0 0 0 60.330666 0l170.666667-170.666667a42.666667 42.666667 0 0 0 0-60.330666l-170.666667-170.666667a42.666667 42.666667 0 0 0-60.330666 0z" fill="#000000" p-id="47150009"/></svg>