<?xml version="1.0" standalone="no"?><!DOCTYPE svg PUBLIC "-//W3C//DTD SVG 1.1//EN" "http://www.w3.org/Graphics/SVG/1.1/DTD/svg11.dtd"><svg viewBox="0 0 1024 1024" version="1.1" xmlns="http://www.w3.org/2000/svg" width="200" height="200" t="1775110619657" class="icon" p-id="47150015" xmlns:xlink="http://www.w3.org/1999/xlink"><path d="M341.333333 170.666667a42.666667 42.666667 0 0 0-42.666666 42.666666 42.666667 42.666667 0 0 0 42.666666 42.666667h554.666667a42.666667 42.666667 0 0 0 42.666667-42.666667 42.666667 42.666667 0 0 0-42.666667-42.666666zM554.666667 469.333333a42.666667 42.666667 0 0 0-42.666667 42.666667 42.666667 42.666667 0 0 0 42.666667 42.666667h341.333333a42.666667 42.666667 0 0 0 42.666667-42.666667 42.666667 42.666667 0 0 0-42.666667-42.666667zM554.666667 768a42.666667 42.666667 0 0 0-42.666667 42.666667 42.666667 42.666667 0 0 0 42.666667 42.666666h341.333333a42.666667 42.666667 0 0 0 42.666667-42.666666 42.666667 42.666667 0 0 0-42.666667-42.666667zM128 384a42.666667 42.666667 0 0 0-42.666667 42.666667c0 70.186667 57.813333 128 128 128h128a42.666667 42.666667 0 0 0 42.666667-42.666667 42.666667 42.666667 0 0 0-42.666667-42.666667H213.333333c-24.064 0-42.666667-18.602667-42.666666-42.666666a42.666667 42.666667 0 0 0-42.666667-42.666667z" fill="#000000" p-id="47150016"/><path d="M128 170.666667a42.666667 42.666667 0 0 0-42.666667 42.666666v512c0 70.186667 57.813333 128 128 128h128a42.666667 42.666667 0 0 0 42.666667-42.666666 42.666667 42.666667 0 0 0-42.666667-42.666667H213.333333c-24.064 0-42.666667-18.602667-42.666666-42.666667V213.333333a42.666667 42.666667 0 0 0-42.666667-42.666666z" fill="#000000" p-id="47150017"/></svg>