<?xml version="1.0" encoding="UTF-8"?>
<svg class="icon" viewBox="0 0 1024 1024" version="1.1" xmlns="http://www.w3.org/2000/svg" p-id="3421" width="1024" height="1024"><path d="M288 896h448c21.312 0 32 10.688 32 32 0 21.312-10.688 32-32 32h-448c-21.312 0-32-10.688-32-32 0-21.312 10.688-32 32-32z" fill="#383838" p-id="3422"></path><path d="M800 416a288 288 0 1 0-576 0c0 118.144 94.528 272.128 288 456.576 193.472-184.448 288-338.432 288-456.576zM512 960c-234.688-213.312-352-394.688-352-544a352 352 0 1 1 704 0c0 149.312-117.312 330.688-352 544z" fill="#383838" p-id="3423"></path><path d="M512 512a96 96 0 1 0 0-192 96 96 0 0 0 0 192z m0 64a160 160 0 1 1 0-320 160 160 0 0 1 0 320z" fill="#383838" p-id="3424"></path></svg>