<?xml version="1.0" standalone="no"?><!DOCTYPE svg PUBLIC "-//W3C//DTD SVG 1.1//EN" "http://www.w3.org/Graphics/SVG/1.1/DTD/svg11.dtd"><svg viewBox="0 0 1024 1024" version="1.1" xmlns="http://www.w3.org/2000/svg" width="200" height="200" t="1775110619657" class="icon" p-id="47150005" xmlns:xlink="http://www.w3.org/1999/xlink"><path d="M85.333333 469.333333a42.666667 42.666667 0 0 0-42.666666 42.666667 42.666667 42.666667 0 0 0 42.666666 42.666667h128a42.666667 42.666667 0 0 0 42.666667-42.666667 42.666667 42.666667 0 0 0-42.666667-42.666667zM810.666667 469.333333a42.666667 42.666667 0 0 0-42.666667 42.666667 42.666667 42.666667 0 0 0 42.666667 42.666667h128a42.666667 42.666667 0 0 0 42.666666-42.666667 42.666667 42.666667 0 0 0-42.666666-42.666667zM512 42.666667a42.666667 42.666667 0 0 0-42.666667 42.666666v128a42.666667 42.666667 0 0 0 42.666667 42.666667 42.666667 42.666667 0 0 0 42.666667-42.666667V85.333333a42.666667 42.666667 0 0 0-42.666667-42.666666zM512 768a42.666667 42.666667 0 0 0-42.666667 42.666667v128a42.666667 42.666667 0 0 0 42.666667 42.666666 42.666667 42.666667 0 0 0 42.666667-42.666666v-128a42.666667 42.666667 0 0 0-42.666667-42.666667z" fill="#000000" p-id="47150006"/><path d="M512 170.666667c-187.989333 0-341.333333 153.344-341.333333 341.333333 0 187.989333 153.344 341.333333 341.333333 341.333333 187.989333 0 341.333333-153.344 341.333333-341.333333 0-187.989333-153.344-341.333333-341.333333-341.333333z m0 85.333333c141.909333 0 256 114.090667 256 256s-114.090667 256-256 256-256-114.090667-256-256 114.090667-256 256-256z" fill="#000000" p-id="47150007"/><path d="M512 341.333333c-93.738667 0-170.666667 76.928-170.666667 170.666667s76.928 170.666667 170.666667 170.666667 170.666667-76.928 170.666667-170.666667-76.928-170.666667-170.666667-170.666667z m0 85.333334c47.616 0 85.333333 37.717333 85.333333 85.333333s-37.717333 85.333333-85.333333 85.333333-85.333333-37.717333-85.333333-85.333333 37.717333-85.333333 85.333333-85.333333z" fill="#000000" p-id="47150008"/></svg>