<?xml version="1.0" encoding="UTF-8"?>
<svg class="icon" viewBox="0 0 1024 1024" version="1.1" xmlns="http://www.w3.org/2000/svg" p-id="5147" width="1024" height="1024"><path d="M512 928c23.936 0 117.504-68.352 192.064-153.152C803.456 661.888 864 535.808 864 416c0-189.632-155.84-320-352-320s-352 130.368-352 320c0 120.32 60.544 246.4 159.936 359.232C394.432 859.84 488 928 512 928z m0-435.2a64 64 0 1 0 0-128 64 64 0 0 0 0 128z m0 140.8a204.8 204.8 0 1 1 0-409.6 204.8 204.8 0 0 1 0 409.6z" fill="#383838" p-id="5148"></path></svg>