<?xml version="1.0" standalone="no"?><!DOCTYPE svg PUBLIC "-//W3C//DTD SVG 1.1//EN" "http://www.w3.org/Graphics/SVG/1.1/DTD/svg11.dtd"><svg viewBox="0 0 1024 1024" version="1.1" xmlns="http://www.w3.org/2000/svg" width="200" height="200" t="1775110619658" class="icon" p-id="47150032" xmlns:xlink="http://www.w3.org/1999/xlink"><path d="M256 213.333333C185.813333 213.333333 128 271.146667 128 341.333333v426.666667c0 70.186667 57.813333 128 128 128a42.666667 42.666667 0 0 0 42.666667-42.666667 42.666667 42.666667 0 0 0-42.666667-42.666666c-24.064 0-42.666667-18.602667-42.666667-42.666667V341.333333c0-24.064 18.602667-42.666667 42.666667-42.666666h512c24.064 0 42.666667 18.602667 42.666667 42.666666v426.666667c0 24.064-18.602667 42.666667-42.666667 42.666667a42.666667 42.666667 0 0 0-42.666667 42.666666 42.666667 42.666667 0 0 0 42.666667 42.666667c70.186667 0 128-57.813333 128-128V341.333333c0-70.186667-57.813333-128-128-128z" fill="#000000" p-id="47150033"/><path d="M426.666667 42.666667C356.48 42.666667 298.666667 100.48 298.666667 170.666667v597.333333a42.666667 42.666667 0 0 0 42.666666 42.666667 42.666667 42.666667 0 0 0 42.666667-42.666667V170.666667c0-24.064 18.602667-42.666667 42.666667-42.666667h170.666666c24.064 0 42.666667 18.602667 42.666667 42.666667v597.333333a42.666667 42.666667 0 0 0 42.666667 42.666667 42.666667 42.666667 0 0 0 42.666666-42.666667V170.666667c0-70.186667-57.813333-128-128-128zM426.666667 810.666667a42.666667 42.666667 0 0 0-42.666667 42.666666 42.666667 42.666667 0 0 0 42.666667 42.666667h170.666666a42.666667 42.666667 0 0 0 42.666667-42.666667 42.666667 42.666667 0 0 0-42.666667-42.666666z" fill="#000000" p-id="47150034"/><path d="M682.666667 725.333333c-70.186667 0-128 57.813333-128 128s57.813333 128 128 128 128-57.813333 128-128-57.813333-128-128-128z m0 85.333334c24.064 0 42.666667 18.602667 42.666666 42.666666 0 24.064-18.602667 42.666667-42.666666 42.666667-24.064 0-42.666667-18.602667-42.666667-42.666667 0-24.064 18.602667-42.666667 42.666667-42.666666zM341.333333 725.333333c-70.186667 0-128 57.813333-128 128s57.813333 128 128 128 128-57.813333 128-128-57.813333-128-128-128z m0 85.333334c24.064 0 42.666667 18.602667 42.666667 42.666666 0 24.064-18.602667 42.666667-42.666667 42.666667-24.064 0-42.666667-18.602667-42.666666-42.666667 0-24.064 18.602667-42.666667 42.666666-42.666666z" fill="#000000" p-id="47150035"/></svg>