<?xml version="1.0" encoding="UTF-8"?>
<svg class="icon" viewBox="0 0 1024 1024" version="1.1" xmlns="http://www.w3.org/2000/svg" p-id="3141" width="1024" height="1024"><path d="M800 416a288 288 0 1 0-576 0c0 118.144 94.528 272.128 288 456.576 193.472-184.448 288-338.432 288-456.576zM512 960c-234.688-213.312-352-394.688-352-544a352 352 0 1 1 704 0c0 149.312-117.312 330.688-352 544z" fill="#383838" p-id="3142"></path><path d="M512 448a64 64 0 1 0 0-128 64 64 0 0 0 0 128z m0 64a128 128 0 1 1 0-256 128 128 0 0 1 0 256z m345.6 192l102.4 256h-288v-64h-320v64H64l102.4-256h691.2z m-68.928 0H235.328l-76.8 192h706.944l-76.8-192z" fill="#383838" p-id="3143"></path></svg>