<?xml version="1.0" standalone="no"?><!DOCTYPE svg PUBLIC "-//W3C//DTD SVG 1.1//EN" "http://www.w3.org/Graphics/SVG/1.1/DTD/svg11.dtd"><svg viewBox="0 0 1024 1024" version="1.1" xmlns="http://www.w3.org/2000/svg" width="200" height="200" t="1775110619660" class="icon" p-id="47150064" xmlns:xlink="http://www.w3.org/1999/xlink"><path d="M682.666667 85.333333a42.666667 42.666667 0 0 0-42.666667 42.666667 42.666667 42.666667 0 0 0 42.666667 42.666667h170.666666v170.666666a42.666667 42.666667 0 0 0 42.666667 42.666667 42.666667 42.666667 0 0 0 42.666667-42.666667V128a42.666667 42.666667 0 0 0-42.666667-42.666667z" fill="#000000" p-id="47150065"/><path d="M865.834667 97.834667l-288 288a42.666667 42.666667 0 0 0 0 60.330666 42.666667 42.666667 0 0 0 60.330666 0l288-288a42.666667 42.666667 0 0 0 0-60.330666 42.666667 42.666667 0 0 0-60.330666 0z" fill="#000000" p-id="47150066"/><path d="M426.666667 298.666667c-164.437333 0-298.666667 134.229333-298.666667 298.666666s134.229333 298.666667 298.666667 298.666667 298.666667-134.229333 298.666666-298.666667-134.229333-298.666667-298.666666-298.666666z m0 85.333333c118.314667 0 213.333333 95.018667 213.333333 213.333333s-95.018667 213.333333-213.333333 213.333334-213.333333-95.018667-213.333334-213.333334 95.018667-213.333333 213.333334-213.333333z" fill="#000000" p-id="47150067"/></svg>