<?xml version="1.0" standalone="no"?><!DOCTYPE svg PUBLIC "-//W3C//DTD SVG 1.1//EN" "http://www.w3.org/Graphics/SVG/1.1/DTD/svg11.dtd"><svg viewBox="0 0 1024 1024" version="1.1" xmlns="http://www.w3.org/2000/svg" width="200" height="200" t="1775110619660" class="icon" p-id="47150063" xmlns:xlink="http://www.w3.org/1999/xlink"><path d="M597.333333 213.333333a42.666667 42.666667 0 0 0-30.165333 12.501334 42.666667 42.666667 0 0 0 0 60.330666l170.666667 170.666667a42.666667 42.666667 0 0 0 60.330666 0 42.666667 42.666667 0 0 0 0-60.330667l-170.666666-170.666666A42.666667 42.666667 0 0 0 597.333333 213.333333zM725.333333 85.333333a42.666667 42.666667 0 0 0-42.666666 42.666667 42.666667 42.666667 0 0 0 42.666666 42.666667h128v128a42.666667 42.666667 0 0 0 42.666667 42.666666 42.666667 42.666667 0 0 0 42.666667-42.666666V128a42.666667 42.666667 0 0 0-42.666667-42.666667z" fill="#000000" p-id="47150064"/><path d="M865.834667 97.834667l-330.666667 330.666666a42.666667 42.666667 0 0 0 0 60.330667 42.666667 42.666667 0 0 0 60.330667 0l330.666666-330.666667a42.666667 42.666667 0 0 0 0-60.330666 42.666667 42.666667 0 0 0-60.330666 0z" fill="#000000" p-id="47150065"/><path d="M384 341.333333c-164.437333 0-298.666667 134.229333-298.666667 298.666667s134.229333 298.666667 298.666667 298.666667 298.666667-134.229333 298.666667-298.666667-134.229333-298.666667-298.666667-298.666667z m0 85.333334c118.314667 0 213.333333 95.018667 213.333333 213.333333s-95.018667 213.333333-213.333333 213.333333-213.333333-95.018667-213.333333-213.333333 95.018667-213.333333 213.333333-213.333333z" fill="#000000" p-id="47150066"/></svg>