<?xml version="1.0" standalone="no"?><!DOCTYPE svg PUBLIC "-//W3C//DTD SVG 1.1//EN" "http://www.w3.org/Graphics/SVG/1.1/DTD/svg11.dtd"><svg viewBox="0 0 1024 1024" version="1.1" xmlns="http://www.w3.org/2000/svg" width="200" height="200" t="1775110619660" class="icon" p-id="47150065" xmlns:xlink="http://www.w3.org/1999/xlink"><path d="M341.333333 896a42.666667 42.666667 0 0 0-42.666666 42.666667 42.666667 42.666667 0 0 0 42.666666 42.666666h341.333334a42.666667 42.666667 0 0 0 42.666666-42.666666 42.666667 42.666667 0 0 0-42.666666-42.666667z" fill="#000000" p-id="47150066"/><path d="M512 426.666667a42.666667 42.666667 0 0 0-42.666667 42.666666v469.333334a42.666667 42.666667 0 0 0 42.666667 42.666666 42.666667 42.666667 0 0 0 42.666667-42.666666V469.333333a42.666667 42.666667 0 0 0-42.666667-42.666666z" fill="#000000" p-id="47150067"/><path d="M213.333333 85.333333a42.666667 42.666667 0 0 0-32.085333 70.741334l298.666667 341.333333a42.666667 42.666667 0 0 0 64.170666 0l298.666667-341.333333A42.666667 42.666667 0 0 0 810.666667 85.333333z m93.994667 85.333334h409.344L512 404.565333z" fill="#000000" p-id="47150068"/></svg>