<?xml version="1.0" standalone="no"?><!DOCTYPE svg PUBLIC "-//W3C//DTD SVG 1.1//EN" "http://www.w3.org/Graphics/SVG/1.1/DTD/svg11.dtd"><svg viewBox="0 0 1024 1024" version="1.1" xmlns="http://www.w3.org/2000/svg" width="200" height="200" t="1775110619660" class="icon" p-id="47150067" xmlns:xlink="http://www.w3.org/1999/xlink"><path d="M640 85.333333a42.666667 42.666667 0 0 0-42.666667 42.666667 42.666667 42.666667 0 0 0 42.666667 42.666667h213.333333v213.333333a42.666667 42.666667 0 0 0 42.666667 42.666667 42.666667 42.666667 0 0 0 42.666667-42.666667V128a42.666667 42.666667 0 0 0-42.666667-42.666667z" fill="#000000" p-id="47150068"/><path d="M865.834667 97.834667l-298.666667 298.666666a42.666667 42.666667 0 0 0 0 60.330667 42.666667 42.666667 0 0 0 60.330667 0l298.666666-298.666667a42.666667 42.666667 0 0 0 0-60.330666 42.666667 42.666667 0 0 0-60.330666 0zM426.666667 554.666667a42.666667 42.666667 0 0 0-30.165334 12.501333l-298.666666 298.666667a42.666667 42.666667 0 0 0 0 60.330666 42.666667 42.666667 0 0 0 60.330666 0l298.666667-298.666666a42.666667 42.666667 0 0 0 0-60.330667A42.666667 42.666667 0 0 0 426.666667 554.666667z" fill="#000000" p-id="47150069"/><path d="M128 597.333333a42.666667 42.666667 0 0 0-42.666667 42.666667v256a42.666667 42.666667 0 0 0 42.666667 42.666667h256a42.666667 42.666667 0 0 0 42.666667-42.666667 42.666667 42.666667 0 0 0-42.666667-42.666667H170.666667v-213.333333a42.666667 42.666667 0 0 0-42.666667-42.666667z" fill="#000000" p-id="47150070"/></svg>