<?xml version="1.0" standalone="no"?><!DOCTYPE svg PUBLIC "-//W3C//DTD SVG 1.1//EN" "http://www.w3.org/Graphics/SVG/1.1/DTD/svg11.dtd"><svg t="1775112029047" class="icon" viewBox="0 0 1024 1024" version="1.1" xmlns="http://www.w3.org/2000/svg" p-id="18609" xmlns:xlink="http://www.w3.org/1999/xlink" width="200" height="200"><path d="M213.333333 85.333333C143.146667 85.333333 85.333333 143.146667 85.333333 213.333333v128a42.666667 42.666667 0 0 0 42.666667 42.666667 42.666667 42.666667 0 0 0 42.666667-42.666667V213.333333c0-24.064 18.602667-42.666667 42.666666-42.666666h128a42.666667 42.666667 0 0 0 42.666667-42.666667 42.666667 42.666667 0 0 0-42.666667-42.666667zM682.666667 85.333333a42.666667 42.666667 0 0 0-42.666667 42.666667 42.666667 42.666667 0 0 0 42.666667 42.666667h128c24.064 0 42.666667 18.602667 42.666666 42.666666v128a42.666667 42.666667 0 0 0 42.666667 42.666667 42.666667 42.666667 0 0 0 42.666667-42.666667V213.333333c0-70.186667-57.813333-128-128-128zM128 640a42.666667 42.666667 0 0 0-42.666667 42.666667v128c0 70.186667 57.813333 128 128 128h128a42.666667 42.666667 0 0 0 42.666667-42.666667 42.666667 42.666667 0 0 0-42.666667-42.666667H213.333333c-24.064 0-42.666667-18.602667-42.666666-42.666666v-128a42.666667 42.666667 0 0 0-42.666667-42.666667zM896 640a42.666667 42.666667 0 0 0-42.666667 42.666667v128c0 24.064-18.602667 42.666667-42.666666 42.666666h-128a42.666667 42.666667 0 0 0-42.666667 42.666667 42.666667 42.666667 0 0 0 42.666667 42.666667h128c70.186667 0 128-57.813333 128-128v-128a42.666667 42.666667 0 0 0-42.666667-42.666667z" p-id="18610"></path></svg>