<?xml version="1.0" standalone="no"?><!DOCTYPE svg PUBLIC "-//W3C//DTD SVG 1.1//EN" "http://www.w3.org/Graphics/SVG/1.1/DTD/svg11.dtd"><svg viewBox="0 0 1024 1024" version="1.1" xmlns="http://www.w3.org/2000/svg" width="200" height="200" t="1775110619660" class="icon" p-id="47150074" xmlns:xlink="http://www.w3.org/1999/xlink"><path d="M512 384a42.666667 42.666667 0 0 0-42.666667 42.666667v85.333333a42.666667 42.666667 0 0 0 42.666667 42.666667 42.666667 42.666667 0 0 0 42.666667-42.666667v-85.333333a42.666667 42.666667 0 0 0-42.666667-42.666667zM512 640a42.666667 42.666667 0 0 0-42.666667 42.666667v85.333333a42.666667 42.666667 0 0 0 42.666667 42.666667 42.666667 42.666667 0 0 0 42.666667-42.666667v-85.333333a42.666667 42.666667 0 0 0-42.666667-42.666667zM682.666667 384a42.666667 42.666667 0 0 0-42.666667 42.666667v85.333333a42.666667 42.666667 0 0 0 42.666667 42.666667 42.666667 42.666667 0 0 0 42.666666-42.666667v-85.333333a42.666667 42.666667 0 0 0-42.666666-42.666667zM682.666667 640a42.666667 42.666667 0 0 0-42.666667 42.666667v85.333333a42.666667 42.666667 0 0 0 42.666667 42.666667 42.666667 42.666667 0 0 0 42.666666-42.666667v-85.333333a42.666667 42.666667 0 0 0-42.666666-42.666667zM85.333333 426.666667a42.666667 42.666667 0 0 0-42.666666 42.666666 42.666667 42.666667 0 0 0 42.666666 42.666667h64a42.666667 42.666667 0 0 0 42.666667-42.666667 42.666667 42.666667 0 0 0-42.666667-42.666666zM853.333333 640a42.666667 42.666667 0 0 0-42.666666 42.666667v85.333333a42.666667 42.666667 0 0 0 42.666666 42.666667 42.666667 42.666667 0 0 0 42.666667-42.666667v-85.333333a42.666667 42.666667 0 0 0-42.666667-42.666667zM874.666667 426.666667a42.666667 42.666667 0 0 0-42.666667 42.666666 42.666667 42.666667 0 0 0 42.666667 42.666667H938.666667a42.666667 42.666667 0 0 0 42.666666-42.666667 42.666667 42.666667 0 0 0-42.666666-42.666666zM170.666667 640a42.666667 42.666667 0 0 0-42.666667 42.666667v85.333333a42.666667 42.666667 0 0 0 42.666667 42.666667 42.666667 42.666667 0 0 0 42.666666-42.666667v-85.333333a42.666667 42.666667 0 0 0-42.666666-42.666667zM341.333333 384a42.666667 42.666667 0 0 0-42.666666 42.666667v85.333333a42.666667 42.666667 0 0 0 42.666666 42.666667 42.666667 42.666667 0 0 0 42.666667-42.666667v-85.333333a42.666667 42.666667 0 0 0-42.666667-42.666667zM341.333333 640a42.666667 42.666667 0 0 0-42.666666 42.666667v85.333333a42.666667 42.666667 0 0 0 42.666666 42.666667 42.666667 42.666667 0 0 0 42.666667-42.666667v-85.333333a42.666667 42.666667 0 0 0-42.666667-42.666667z" fill="#000000" p-id="47150075"/><path d="M170.666667 213.333333C100.48 213.333333 42.666667 271.146667 42.666667 341.333333v256c0 70.186667 57.813333 128 128 128h682.666666c70.186667 0 128-57.813333 128-128V341.333333c0-70.186667-57.813333-128-128-128z m0 85.333334h682.666666c24.362667 0 42.666667 18.304 42.666667 42.666666v256c0 24.362667-18.304 42.666667-42.666667 42.666667H170.666667c-24.362667 0-42.666667-18.304-42.666667-42.666667V341.333333c0-24.362667 18.304-42.666667 42.666667-42.666666z" fill="#000000" p-id="47150076"/></svg>