<?xml version="1.0" encoding="UTF-8"?>
<svg class="icon" viewBox="0 0 1024 1024" version="1.1" xmlns="http://www.w3.org/2000/svg" p-id="5535" width="1024" height="1024"><path d="M160 448a32 32 0 0 1-32-32V160.064a32 32 0 0 1 32-32h256a32 32 0 0 1 32 32V416a32 32 0 0 1-32 32h-256z m448 0a32 32 0 0 1-32-32V160.064a32 32 0 0 1 32-32h255.936a32 32 0 0 1 32 32V416a32 32 0 0 1-32 32H608z m-448 448a32 32 0 0 1-32-32v-256a32 32 0 0 1 32-32h256a32 32 0 0 1 32 32v256a32 32 0 0 1-32 32h-256z m448 0a32 32 0 0 1-32-32v-256a32 32 0 0 1 32-32h255.936a32 32 0 0 1 32 32v256a32 32 0 0 1-32 32H608z" fill="#383838" p-id="5536"></path></svg>