<?xml version="1.0" standalone="no"?><!DOCTYPE svg PUBLIC "-//W3C//DTD SVG 1.1//EN" "http://www.w3.org/Graphics/SVG/1.1/DTD/svg11.dtd"><svg viewBox="0 0 1024 1024" version="1.1" xmlns="http://www.w3.org/2000/svg" width="200" height="200" t="1775110619662" class="icon" p-id="47150115" xmlns:xlink="http://www.w3.org/1999/xlink"><path d="M512 768a42.666667 42.666667 0 0 0-42.666667 42.666667v128a42.666667 42.666667 0 0 0 42.666667 42.666666 42.666667 42.666667 0 0 0 42.666667-42.666666v-128a42.666667 42.666667 0 0 0-42.666667-42.666667z" fill="#000000" p-id="47150116"/><path d="M213.333333 384a42.666667 42.666667 0 0 0-42.666666 42.666667v85.333333c0 187.989333 153.344 341.333333 341.333333 341.333333 187.989333 0 341.333333-153.344 341.333333-341.333333v-85.333333a42.666667 42.666667 0 0 0-42.666666-42.666667 42.666667 42.666667 0 0 0-42.666667 42.666667v85.333333c0 141.909333-114.090667 256-256 256s-256-114.090667-256-256v-85.333333a42.666667 42.666667 0 0 0-42.666667-42.666667z" fill="#000000" p-id="47150117"/><path d="M512 42.666667C418.176 42.666667 341.333333 119.509333 341.333333 213.333333v298.666667c0 93.824 76.842667 170.666667 170.666667 170.666667s170.666667-76.842667 170.666667-170.666667V213.333333c0-93.824-76.842667-170.666667-170.666667-170.666666z m0 85.333333c48 0 85.333333 37.333333 85.333333 85.333333v298.666667c0 48-37.333333 85.333333-85.333333 85.333333s-85.333333-37.333333-85.333333-85.333333V213.333333c0-48 37.333333-85.333333 85.333333-85.333333z" fill="#000000" p-id="47150118"/></svg>