<?xml version="1.0" encoding="UTF-8"?>
<svg class="icon" viewBox="0 0 1024 1024" version="1.1" xmlns="http://www.w3.org/2000/svg" p-id="3215" width="1024" height="1024"><path d="M512 128a128 128 0 0 0-128 128v256a128 128 0 1 0 256 0V256a128 128 0 0 0-128-128z m0-64a192 192 0 0 1 192 192v256a192 192 0 0 1-384 0V256a192 192 0 0 1 192-192z m-32 832v-64A288 288 0 0 1 192 544V512a32 32 0 1 1 64 0v32A224 224 0 0 0 480 768h64A224 224 0 0 0 768 544V512a32 32 0 0 1 64 0v32A288 288 0 0 1 544 832v64h64a32 32 0 0 1 0 64h-192a32 32 0 0 1 0-64h64z" fill="#383838" p-id="3216"></path></svg>