<?xml version="1.0" standalone="no"?><!DOCTYPE svg PUBLIC "-//W3C//DTD SVG 1.1//EN" "http://www.w3.org/Graphics/SVG/1.1/DTD/svg11.dtd"><svg t="1775112036061" class="icon" viewBox="0 0 1024 1024" version="1.1" xmlns="http://www.w3.org/2000/svg" p-id="18776" xmlns:xlink="http://www.w3.org/1999/xlink" width="200" height="200"><path d="M341.333333 85.333333a42.666667 42.666667 0 0 0-42.666666 42.666667v128c0 24.064-18.602667 42.666667-42.666667 42.666667H128a42.666667 42.666667 0 0 0-42.666667 42.666666 42.666667 42.666667 0 0 0 42.666667 42.666667h128c70.186667 0 128-57.813333 128-128V128a42.666667 42.666667 0 0 0-42.666667-42.666667zM682.666667 85.333333a42.666667 42.666667 0 0 0-42.666667 42.666667v128c0 70.186667 57.813333 128 128 128h128a42.666667 42.666667 0 0 0 42.666667-42.666667 42.666667 42.666667 0 0 0-42.666667-42.666666h-128c-24.064 0-42.666667-18.602667-42.666667-42.666667V128a42.666667 42.666667 0 0 0-42.666666-42.666667zM128 640a42.666667 42.666667 0 0 0-42.666667 42.666667 42.666667 42.666667 0 0 0 42.666667 42.666666h128c24.064 0 42.666667 18.602667 42.666667 42.666667v128a42.666667 42.666667 0 0 0 42.666666 42.666667 42.666667 42.666667 0 0 0 42.666667-42.666667v-128c0-70.186667-57.813333-128-128-128zM768 640c-70.186667 0-128 57.813333-128 128v128a42.666667 42.666667 0 0 0 42.666667 42.666667 42.666667 42.666667 0 0 0 42.666666-42.666667v-128c0-24.064 18.602667-42.666667 42.666667-42.666667h128a42.666667 42.666667 0 0 0 42.666667-42.666666 42.666667 42.666667 0 0 0-42.666667-42.666667z" fill="#000000" p-id="18777"></path></svg>