<?xml version="1.0" encoding="UTF-8"?>
<svg class="icon" viewBox="0 0 1024 1024" version="1.1" xmlns="http://www.w3.org/2000/svg" p-id="3545" width="1024" height="1024"><path d="M737.216 357.952L704 349.824l-11.776-32a192.064 192.064 0 0 0-367.424 23.04l-8.96 39.04-39.04 8.96A192 192 0 0 0 320 768h368a207.872 207.872 0 0 0 163.328-336.384 208.32 208.32 0 0 0-114.112-73.664z m15.168-62.208a272.32 272.32 0 0 1 127.872 456.512A271.808 271.808 0 0 1 688.256 832H320a256 256 0 0 1-57.536-505.536 256.128 256.128 0 0 1 489.92-30.72z" fill="#383838" p-id="3546"></path></svg>