<?xml version="1.0" standalone="no"?><!DOCTYPE svg PUBLIC "-//W3C//DTD SVG 1.1//EN" "http://www.w3.org/Graphics/SVG/1.1/DTD/svg11.dtd"><svg viewBox="0 0 1024 1024" version="1.1" xmlns="http://www.w3.org/2000/svg" width="200" height="200" t="1775110619664" class="icon" p-id="47150139" xmlns:xlink="http://www.w3.org/1999/xlink"><path d="M512 269.568a42.666667 42.666667 0 0 0-42.666667 42.666667V426.666667a42.666667 42.666667 0 0 0 42.666667 42.666666 42.666667 42.666667 0 0 0 42.666667-42.666666V312.234667a42.666667 42.666667 0 0 0-42.666667-42.666667z" fill="#000000" p-id="47150140"/><path d="M560.64 43.093333a42.666667 42.666667 0 0 0-48.213333 36.266667 42.666667 42.666667 0 0 0 36.266666 48.213333C672.085333 145.237333 768 254.549333 768 384v256c0 141.909333-114.090667 256-256 256s-256-114.090667-256-256v-213.333333a42.666667 42.666667 0 0 0-42.666667-42.666667 42.666667 42.666667 0 0 0-42.666666 42.666667v213.333333c0 187.989333 153.344 341.333333 341.333333 341.333333 187.989333 0 341.333333-153.344 341.333333-341.333333V384c0-171.52-126.677333-317.184-292.693333-340.906667z" fill="#000000" p-id="47150141"/><path d="M298.666667 42.666667C228.48 42.666667 170.666667 100.48 170.666667 170.666667s57.813333 128 128 128 128-57.813333 128-128-57.813333-128-128-128z m0 85.333333c24.064 0 42.666667 18.602667 42.666666 42.666667 0 24.064-18.602667 42.666667-42.666666 42.666666-24.064 0-42.666667-18.602667-42.666667-42.666666 0-24.064 18.602667-42.666667 42.666667-42.666667z" fill="#000000" p-id="47150142"/></svg>