<?xml version="1.0" standalone="no"?><!DOCTYPE svg PUBLIC "-//W3C//DTD SVG 1.1//EN" "http://www.w3.org/Graphics/SVG/1.1/DTD/svg11.dtd"><svg viewBox="0 0 1024 1024" version="1.1" xmlns="http://www.w3.org/2000/svg" width="200" height="200" t="1775110619664" class="icon" p-id="47150145" xmlns:xlink="http://www.w3.org/1999/xlink"><path d="M512 269.568a42.666667 42.666667 0 0 0-42.666667 42.666667V426.666667a42.666667 42.666667 0 0 0 42.666667 42.666666 42.666667 42.666667 0 0 0 42.666667-42.666666V312.234667a42.666667 42.666667 0 0 0-42.666667-42.666667z" fill="#000000" p-id="47150146"/><path d="M463.36 43.093333C297.301333 66.816 170.666667 212.48 170.666667 384v256c0 187.989333 153.344 341.333333 341.333333 341.333333 187.989333 0 341.333333-153.344 341.333333-341.333333v-213.333333a42.666667 42.666667 0 0 0-42.666666-42.666667 42.666667 42.666667 0 0 0-42.666667 42.666667v213.333333c0 141.909333-114.090667 256-256 256s-256-114.090667-256-256V384c0-129.450667 95.872-238.762667 219.306667-256.426667a42.666667 42.666667 0 0 0 36.266666-48.213333 42.666667 42.666667 0 0 0-48.213333-36.266667z" fill="#000000" p-id="47150147"/><path d="M725.333333 42.666667c-70.186667 0-128 57.813333-128 128s57.813333 128 128 128 128-57.813333 128-128-57.813333-128-128-128z m0 85.333333c24.064 0 42.666667 18.602667 42.666667 42.666667 0 24.064-18.602667 42.666667-42.666667 42.666666-24.064 0-42.666667-18.602667-42.666666-42.666666 0-24.064 18.602667-42.666667 42.666666-42.666667z" fill="#000000" p-id="47150148"/></svg>