<?xml version="1.0" standalone="no"?><!DOCTYPE svg PUBLIC "-//W3C//DTD SVG 1.1//EN" "http://www.w3.org/Graphics/SVG/1.1/DTD/svg11.dtd"><svg viewBox="0 0 1024 1024" version="1.1" xmlns="http://www.w3.org/2000/svg" width="200" height="200" t="1775110619664" class="icon" p-id="47150148" xmlns:xlink="http://www.w3.org/1999/xlink"><path d="M810.666667 512a42.666667 42.666667 0 0 0-42.666667 42.666667v213.333333h-213.333333a42.666667 42.666667 0 0 0-42.666667 42.666667 42.666667 42.666667 0 0 0 42.666667 42.666666h256a42.666667 42.666667 0 0 0 42.666666-42.666666v-256a42.666667 42.666667 0 0 0-42.666666-42.666667zM213.333333 170.666667a42.666667 42.666667 0 0 0-42.666666 42.666666v256a42.666667 42.666667 0 0 0 42.666666 42.666667 42.666667 42.666667 0 0 0 42.666667-42.666667V256h213.333333a42.666667 42.666667 0 0 0 42.666667-42.666667 42.666667 42.666667 0 0 0-42.666667-42.666666z" fill="#000000" p-id="47150149"/><path d="M213.333333 170.666667a42.666667 42.666667 0 0 0-30.165333 12.501333 42.666667 42.666667 0 0 0 0 60.330667l597.333333 597.333333a42.666667 42.666667 0 0 0 60.330667 0 42.666667 42.666667 0 0 0 0-60.330667l-597.333333-597.333333A42.666667 42.666667 0 0 0 213.333333 170.666667z" fill="#000000" p-id="47150150"/></svg>