<?xml version="1.0" standalone="no"?><!DOCTYPE svg PUBLIC "-//W3C//DTD SVG 1.1//EN" "http://www.w3.org/Graphics/SVG/1.1/DTD/svg11.dtd"><svg viewBox="0 0 1024 1024" version="1.1" xmlns="http://www.w3.org/2000/svg" width="200" height="200" t="1775110619664" class="icon" p-id="47150150" xmlns:xlink="http://www.w3.org/1999/xlink"><path d="M341.333333 725.333333a42.666667 42.666667 0 0 0-30.165333 12.501334 42.666667 42.666667 0 0 0 0 60.330666l170.666667 170.666667a42.666667 42.666667 0 0 0 60.330666 0l170.666667-170.666667a42.666667 42.666667 0 0 0 0-60.330666 42.666667 42.666667 0 0 0-60.330667 0L512 878.336l-140.501333-140.501333A42.666667 42.666667 0 0 0 341.333333 725.333333z" fill="#000000" p-id="47150151"/><path d="M512 42.666667a42.666667 42.666667 0 0 0-42.666667 42.666666v853.333334a42.666667 42.666667 0 0 0 42.666667 42.666666 42.666667 42.666667 0 0 0 42.666667-42.666666V85.333333a42.666667 42.666667 0 0 0-42.666667-42.666666z" fill="#000000" p-id="47150152"/></svg>