<?xml version="1.0" standalone="no"?><!DOCTYPE svg PUBLIC "-//W3C//DTD SVG 1.1//EN" "http://www.w3.org/Graphics/SVG/1.1/DTD/svg11.dtd"><svg viewBox="0 0 1024 1024" version="1.1" xmlns="http://www.w3.org/2000/svg" width="200" height="200" t="1775110619664" class="icon" p-id="47150147" xmlns:xlink="http://www.w3.org/1999/xlink"><path d="M213.333333 85.333333a42.666667 42.666667 0 0 0-42.666666 42.666667v682.666667a42.666667 42.666667 0 0 0 42.666666 42.666666h682.666667a42.666667 42.666667 0 0 0 42.666667-42.666666 42.666667 42.666667 0 0 0-42.666667-42.666667H256V128a42.666667 42.666667 0 0 0-42.666667-42.666667z" fill="#000000" p-id="47150148"/><path d="M469.333333 512a42.666667 42.666667 0 0 0-30.165333 12.501333l-256 256a42.666667 42.666667 0 0 0 0 60.330667 42.666667 42.666667 0 0 0 60.330667 0l256-256a42.666667 42.666667 0 0 0 0-60.330667A42.666667 42.666667 0 0 0 469.333333 512zM183.168 97.834667l-128 128a42.666667 42.666667 0 0 0 0 60.330666 42.666667 42.666667 0 0 0 60.330667 0L213.333333 188.330667l97.834667 97.834666a42.666667 42.666667 0 0 0 60.330667 0 42.666667 42.666667 0 0 0 0-60.330666l-128-128a42.666667 42.666667 0 0 0-60.330667 0zM737.834667 652.501333a42.666667 42.666667 0 0 0 0 60.330667L835.669333 810.666667l-97.834666 97.834666a42.666667 42.666667 0 0 0 0 60.330667 42.666667 42.666667 0 0 0 60.330666 0l128-128a42.666667 42.666667 0 0 0 0-60.330667l-128-128a42.666667 42.666667 0 0 0-60.330666 0z" fill="#000000" p-id="47150149"/></svg>