<?xml version="1.0" encoding="UTF-8"?>
<svg class="icon" viewBox="0 0 1024 1024" version="1.1" xmlns="http://www.w3.org/2000/svg" p-id="4072" width="1024" height="1024"><path d="M736 800v-640h-576v640a64 64 0 0 0 64 64h448a64 64 0 0 0 64-64z m64-544h63.552a96 96 0 0 1 96 96V576a96 96 0 0 1-96 96H800v128a128 128 0 0 1-128 128h-448a128 128 0 0 1-128-128V128a32 32 0 0 1 32-32h640a32 32 0 0 1 32 32v128z m0 64v288h63.552a32 32 0 0 0 32-32V352a32 32 0 0 0-32-32H800z" fill="#383838" p-id="4073"></path></svg>