<?xml version="1.0" standalone="no"?><!DOCTYPE svg PUBLIC "-//W3C//DTD SVG 1.1//EN" "http://www.w3.org/Graphics/SVG/1.1/DTD/svg11.dtd"><svg viewBox="0 0 1024 1024" version="1.1" xmlns="http://www.w3.org/2000/svg" width="200" height="200" t="1775110619665" class="icon" p-id="47150164" xmlns:xlink="http://www.w3.org/1999/xlink"><path d="M512 554.666667c-117.333333 0-213.333333 96-213.333333 213.333333s96 213.333333 213.333333 213.333333 213.333333-96 213.333333-213.333333-96-213.333333-213.333333-213.333333z m0 85.333333c71.210667 0 128 56.789333 128 128s-56.789333 128-128 128-128-56.789333-128-128 56.789333-128 128-128z" fill="#000000" p-id="47150165"/><path d="M682.666667 42.666667a42.666667 42.666667 0 0 0-42.666667 42.666666v682.666667a42.666667 42.666667 0 0 0 42.666667 42.666667 42.666667 42.666667 0 0 0 42.666666-42.666667V85.333333a42.666667 42.666667 0 0 0-42.666666-42.666666z" fill="#000000" p-id="47150166"/></svg>