<?xml version="1.0" standalone="no"?><!DOCTYPE svg PUBLIC "-//W3C//DTD SVG 1.1//EN" "http://www.w3.org/Graphics/SVG/1.1/DTD/svg11.dtd"><svg viewBox="0 0 1024 1024" version="1.1" xmlns="http://www.w3.org/2000/svg" width="200" height="200" t="1775110619665" class="icon" p-id="47150161" xmlns:xlink="http://www.w3.org/1999/xlink"><path d="M341.333333 554.666667c-117.333333 0-213.333333 96-213.333333 213.333333s96 213.333333 213.333333 213.333333 213.333333-96 213.333334-213.333333-96-213.333333-213.333334-213.333333z m0 85.333333c71.210667 0 128 56.789333 128 128s-56.789333 128-128 128-128-56.789333-128-128 56.789333-128 128-128z" fill="#000000" p-id="47150162"/><path d="M533.162667 48.213333A42.666667 42.666667 0 0 0 469.333333 85.333333v682.666667a42.666667 42.666667 0 0 0 42.666667 42.666667 42.666667 42.666667 0 0 0 42.666667-42.666667V158.933333l234.837333 134.144a42.666667 42.666667 0 0 0 58.24-15.914666 42.666667 42.666667 0 0 0-15.914667-58.24z" fill="#000000" p-id="47150163"/></svg>