<?xml version="1.0" encoding="UTF-8"?>
<svg class="icon" viewBox="0 0 1024 1024" version="1.1" xmlns="http://www.w3.org/2000/svg" p-id="4683" width="1024" height="1024"><path d="M440.256 576H256v128h56.256l-64 64H224a32 32 0 0 1-32-32v-192a32 32 0 0 1 32-32h280.256l-64 64z m143.488 128H704V583.744L775.744 512H928a32 32 0 0 1 32 32v192a32 32 0 0 1-32 32H519.744l64-64zM768 576v128h128V576h-128z m-29.696-207.552l45.248 45.248-497.856 497.856-45.248-45.248 497.856-497.856zM256 64h64v320H256V64zM128 192h64v192H128V192zM64 512h64v256H64V512z" fill="#383838" p-id="4684"></path></svg>