<?xml version="1.0" encoding="UTF-8"?>
<svg class="icon" viewBox="0 0 1024 1024" version="1.1" xmlns="http://www.w3.org/2000/svg" p-id="4198" width="1024" height="1024"><path d="M192 128v768h640V128H192z m-32-64h704a32 32 0 0 1 32 32v832a32 32 0 0 1-32 32h-704a32 32 0 0 1-32-32v-832a32 32 0 0 1 32-32z" fill="#383838" p-id="4199"></path><path d="M672 128h64v768h-64V128z m-576 64h128c21.312 0 32 10.688 32 32 0 21.312-10.688 32-32 32h-128c-21.312 0-32-10.688-32-32 0-21.312 10.688-32 32-32z m0 192h128c21.312 0 32 10.688 32 32 0 21.312-10.688 32-32 32h-128c-21.312 0-32-10.688-32-32 0-21.312 10.688-32 32-32z m0 192h128c21.312 0 32 10.688 32 32 0 21.312-10.688 32-32 32h-128c-21.312 0-32-10.688-32-32 0-21.312 10.688-32 32-32z m0 192h128c21.312 0 32 10.688 32 32 0 21.312-10.688 32-32 32h-128c-21.312 0-32-10.688-32-32 0-21.312 10.688-32 32-32z" fill="#383838" p-id="4200"></path></svg>