<?xml version="1.0" encoding="UTF-8"?>
<svg class="icon" viewBox="0 0 1024 1024" version="1.1" xmlns="http://www.w3.org/2000/svg" p-id="2710" width="1024" height="1024"><path d="M512 896A384 384 0 1 0 512 127.936 384 384 0 0 0 512 896z m0 64A448 448 0 1 1 512 64a448 448 0 0 1 0 896z" fill="#383838" p-id="2711"></path><path d="M192 512a320 320 0 1 1 640 0 32 32 0 0 1-64 0 256 256 0 1 0-512 0 32 32 0 1 1-64 0z" fill="#383838" p-id="2712"></path><path d="M570.432 627.84a96 96 0 1 1-60.864-19.84l60.992-187.776a32 32 0 1 1 60.8 19.776l-60.928 187.776v0.064z m-68.352 106.624a32 32 0 1 0 19.84-60.8 32 32 0 0 0-19.84 60.8z" fill="#383838" p-id="2713"></path></svg>