<?xml version="1.0" standalone="no"?><!DOCTYPE svg PUBLIC "-//W3C//DTD SVG 1.1//EN" "http://www.w3.org/Graphics/SVG/1.1/DTD/svg11.dtd"><svg viewBox="0 0 1024 1024" version="1.1" xmlns="http://www.w3.org/2000/svg" width="200" height="200" t="1775110619666" class="icon" p-id="47150184" xmlns:xlink="http://www.w3.org/1999/xlink"><path d="M315.733333 93.866667S128 237.013333 128 512c0 274.944 187.733333 418.133333 187.733333 418.133333a42.666667 42.666667 0 0 0 59.733334-8.533333 42.666667 42.666667 0 0 0-8.533334-59.733333S213.333333 749.013333 213.333333 512c0-237.056 153.6-349.866667 153.6-349.866667a42.666667 42.666667 0 0 0 8.533334-59.733333 42.666667 42.666667 0 0 0-59.733334-8.533333zM676.693333 85.76a42.666667 42.666667 0 0 0-28.16 16.64 42.666667 42.666667 0 0 0 8.533334 59.733333S810.666667 274.986667 810.666667 512c0 237.056-153.6 349.866667-153.6 349.866667a42.666667 42.666667 0 0 0-8.533334 59.733333 42.666667 42.666667 0 0 0 59.733334 8.533333S896 786.986667 896 512c0-274.944-187.733333-418.133333-187.733333-418.133333a42.666667 42.666667 0 0 0-31.573334-8.106667z" fill="#000000" p-id="47150185"/></svg>