<?xml version="1.0" standalone="no"?><!DOCTYPE svg PUBLIC "-//W3C//DTD SVG 1.1//EN" "http://www.w3.org/Graphics/SVG/1.1/DTD/svg11.dtd"><svg viewBox="0 0 1024 1024" version="1.1" xmlns="http://www.w3.org/2000/svg" width="200" height="200" t="1775110619666" class="icon" p-id="47150185" xmlns:xlink="http://www.w3.org/1999/xlink"><path d="M640 85.333333c-46.506667 0-85.333333 38.826667-85.333333 85.333334v682.666666c0 46.506667 38.826667 85.333333 85.333333 85.333334h128c46.506667 0 85.333333-38.826667 85.333333-85.333334V170.666667c0-46.506667-38.826667-85.333333-85.333333-85.333334z m0 85.333334h128v682.666666h-128zM256 85.333333c-46.506667 0-85.333333 38.826667-85.333333 85.333334v682.666666c0 46.506667 38.826667 85.333333 85.333333 85.333334h128c46.506667 0 85.333333-38.826667 85.333333-85.333334V170.666667c0-46.506667-38.826667-85.333333-85.333333-85.333334z m0 85.333334h128v682.666666H256z" fill="#000000" p-id="47150186"/></svg>