<?xml version="1.0" standalone="no"?><!DOCTYPE svg PUBLIC "-//W3C//DTD SVG 1.1//EN" "http://www.w3.org/Graphics/SVG/1.1/DTD/svg11.dtd"><svg viewBox="0 0 1024 1024" version="1.1" xmlns="http://www.w3.org/2000/svg" width="200" height="200" t="1775110619666" class="icon" p-id="47150198" xmlns:xlink="http://www.w3.org/1999/xlink"><path d="M512 128c-46.634667 0-85.333333 38.698667-85.333333 85.333333s38.698667 85.333333 85.333333 85.333334 85.333333-38.698667 85.333333-85.333334-38.698667-85.333333-85.333333-85.333333zM512 554.666667a42.666667 42.666667 0 0 0-38.186667 23.594666l-128 256a42.666667 42.666667 0 0 0 19.114667 57.258667 42.666667 42.666667 0 0 0 57.258667-19.114667L512 692.778667l89.813333 179.626666a42.666667 42.666667 0 0 0 57.258667 19.114667 42.666667 42.666667 0 0 0 19.114667-57.258667l-128-256A42.666667 42.666667 0 0 0 512 554.666667z" fill="#000000" p-id="47150199"/><path d="M269.482667 300.8a42.666667 42.666667 0 0 0-53.973334 27.050667 42.666667 42.666667 0 0 0 27.008 53.973333l256 85.333333a42.666667 42.666667 0 0 0 26.965334 0l256-85.333333a42.666667 42.666667 0 0 0 27.008-53.973333 42.666667 42.666667 0 0 0-53.973334-27.008L512 381.653333z" fill="#000000" p-id="47150200"/><path d="M512 384a42.666667 42.666667 0 0 0-42.666667 42.666667v170.666666a42.666667 42.666667 0 0 0 42.666667 42.666667 42.666667 42.666667 0 0 0 42.666667-42.666667v-170.666666a42.666667 42.666667 0 0 0-42.666667-42.666667z" fill="#000000" p-id="47150201"/></svg>