<?xml version="1.0" encoding="UTF-8"?>
<svg class="icon" viewBox="0 0 1024 1024" version="1.1" xmlns="http://www.w3.org/2000/svg" p-id="5248" width="1024" height="1024"><path d="M199.232 125.568l-108.608 253.44a32 32 0 0 0 6.784 35.2l512.384 512.384a31.936 31.936 0 0 0 35.2 6.784l253.44-108.608a32 32 0 0 0 10.048-52.032l-138.88-138.816a32 32 0 0 0-36.928-5.952l-130.176 65.088-271.488-271.552 65.024-130.176a32 32 0 0 0-5.952-36.928l-138.88-138.88a32 32 0 0 0-51.968 10.048z" fill="#383838" p-id="5249"></path></svg>