<?xml version="1.0" encoding="UTF-8"?>
<svg class="icon" viewBox="0 0 1024 1024" version="1.1" xmlns="http://www.w3.org/2000/svg" p-id="5303" width="1024" height="1024"><path d="M96 896a32 32 0 0 1-32-32v-704a32 32 0 0 1 32-32h832a32 32 0 0 1 32 32v704a32 32 0 0 1-32 32h-832z m315.52-228.48L342.592 598.592a32 32 0 0 0-45.248 0L128 768.064h778.688l-242.112-290.56a32 32 0 0 0-49.216 0l-156.608 187.904a32 32 0 0 1-47.232 2.112zM256 384a96 96 0 1 0 192.064-0.064A96 96 0 0 0 256 384z" fill="#383838" p-id="5304"></path></svg>