<?xml version="1.0" encoding="UTF-8"?>
<svg class="icon" viewBox="0 0 1024 1024" version="1.1" xmlns="http://www.w3.org/2000/svg" p-id="3287" width="1024" height="1024"><path d="M512 128a384 384 0 1 0 0 768A384 384 0 0 0 512 128z m0-64a448 448 0 1 1 0 896A448 448 0 0 1 512 64z" fill="#383838" p-id="3288"></path><path d="M640 288c42.688 0 64 21.312 64 64s-21.312 64-64 64-64-21.312-64-64 21.312-64 64-64z m-425.344 502.656l-45.312-45.312 185.664-185.6a96 96 0 0 1 123.712-10.24l138.24 98.688a32 32 0 0 0 39.872-2.176L906.688 422.4l42.624 47.744-249.792 223.552a96 96 0 0 1-119.808 6.592l-138.24-98.752a32 32 0 0 0-41.152 3.456l-185.664 185.6v0.064z" fill="#383838" p-id="3289"></path></svg>