<?xml version="1.0" standalone="no"?><!DOCTYPE svg PUBLIC "-//W3C//DTD SVG 1.1//EN" "http://www.w3.org/Graphics/SVG/1.1/DTD/svg11.dtd"><svg viewBox="0 0 1024 1024" version="1.1" xmlns="http://www.w3.org/2000/svg" width="200" height="200" t="1775110619698" class="icon" p-id="47150379" xmlns:xlink="http://www.w3.org/1999/xlink"><path d="M554.666667 128a42.666667 42.666667 0 0 0-42.666667 42.666667v682.666666a42.666667 42.666667 0 0 0 42.666667 42.666667 42.666667 42.666667 0 0 0 42.666666-42.666667V170.666667a42.666667 42.666667 0 0 0-42.666666-42.666667zM725.333333 128a42.666667 42.666667 0 0 0-42.666666 42.666667v682.666666a42.666667 42.666667 0 0 0 42.666666 42.666667 42.666667 42.666667 0 0 0 42.666667-42.666667V170.666667a42.666667 42.666667 0 0 0-42.666667-42.666667z" fill="#000000" p-id="47150380"/><path d="M405.333333 128c-74.666667 0-136.106667 29.525333-175.914666 74.325333C189.610667 247.125333 170.666667 305.152 170.666667 362.666667c0 57.472 18.944 115.541333 58.752 160.341333C269.226667 567.808 330.666667 597.333333 405.333333 597.333333H554.666667a42.666667 42.666667 0 0 0 42.666666-42.666666 42.666667 42.666667 0 0 0-42.666666-42.666667H405.333333c-53.333333 0-87.893333-18.474667-112.085333-45.653333C269.056 439.125333 256 401.194667 256 362.666667c0-38.528 13.056-76.458667 37.248-103.68C317.44 231.808 352 213.333333 405.333333 213.333333H810.666667a42.666667 42.666667 0 0 0 42.666666-42.666666 42.666667 42.666667 0 0 0-42.666666-42.666667z" fill="#000000" p-id="47150381"/></svg>