<?xml version="1.0" standalone="no"?><!DOCTYPE svg PUBLIC "-//W3C//DTD SVG 1.1//EN" "http://www.w3.org/Graphics/SVG/1.1/DTD/svg11.dtd"><svg viewBox="0 0 1024 1024" version="1.1" xmlns="http://www.w3.org/2000/svg" width="200" height="200" t="1775110619705" class="icon" p-id="47150510" xmlns:xlink="http://www.w3.org/1999/xlink"><path d="M737.578667 39.68c-65.066667-3.584-134.826667 21.376-192.085334 79.786667l-425.984 426.026666C61.013333 602.752 36.096 672.512 39.68 737.578667c3.541333 65.066667 33.706667 124.458667 77.994667 168.746666 44.288 44.330667 103.68 74.453333 168.746666 77.994667 65.066667 3.584 134.826667-21.376 192.085334-79.786667l425.984-426.026666c58.453333-57.258667 83.413333-127.018667 79.829333-192.085334-3.541333-65.066667-33.706667-124.458667-77.994667-168.746666-44.288-44.330667-103.68-74.453333-168.746666-77.994667z m-4.693334 85.248c41.386667 2.261333 82.261333 22.186667 113.109334 53.077333 30.848 30.848 50.816 71.722667 53.077333 113.066667 2.261333 41.386667-11.093333 84.138667-54.229333 126.421333a42.666667 42.666667 0 0 0-0.341334 0.341334l-426.666666 426.666666a42.666667 42.666667 0 0 0-0.341334 0.341334c-42.24 43.136-85.034667 56.490667-126.421333 54.229333-41.344-2.261333-82.218667-22.186667-113.066667-53.077333-30.848-30.848-50.816-71.722667-53.077333-113.066667-2.261333-41.386667 11.093333-84.138667 54.229333-126.421333a42.666667 42.666667 0 0 0 0.341334-0.341334l426.666666-426.666666a42.666667 42.666667 0 0 0 0.341334-0.341334c42.24-43.136 85.034667-56.490667 126.421333-54.229333z" fill="#000000" p-id="47150511"/><path d="M362.666667 320a42.666667 42.666667 0 0 0-30.165334 12.501333 42.666667 42.666667 0 0 0 0 60.330667l298.666667 298.666667a42.666667 42.666667 0 0 0 60.330667 0 42.666667 42.666667 0 0 0 0-60.330667l-298.666667-298.666667A42.666667 42.666667 0 0 0 362.666667 320z" fill="#000000" p-id="47150512"/></svg>