<?xml version="1.0" encoding="UTF-8"?>
<svg class="icon" viewBox="0 0 1024 1024" version="1.1" xmlns="http://www.w3.org/2000/svg" p-id="3249" width="1024" height="1024"><path d="M512 512a192 192 0 1 0 0-384 192 192 0 0 0 0 384z m0 64a256 256 0 1 1 0-512 256 256 0 0 1 0 512z" fill="#383838" p-id="3250"></path><path d="M512 512a32 32 0 0 1 32 32v256a32 32 0 0 1-64 0v-256A32 32 0 0 1 512 512z" fill="#383838" p-id="3251"></path><path d="M384 649.088v64.96c-114.24 18.304-192 57.856-192 85.952 0 37.696 139.904 96 320 96s320-58.304 320-96c0-28.16-77.76-67.648-192-85.952v-64.96c149.12 21.952 256 81.28 256 150.912 0 88.32-171.904 160-384 160s-384-71.68-384-160c0-69.696 106.88-128.96 256-150.912z" fill="#383838" p-id="3252"></path></svg>