<?xml version="1.0" standalone="no"?><!DOCTYPE svg PUBLIC "-//W3C//DTD SVG 1.1//EN" "http://www.w3.org/Graphics/SVG/1.1/DTD/svg11.dtd"><svg viewBox="0 0 1024 1024" version="1.1" xmlns="http://www.w3.org/2000/svg" width="200" height="200" t="1775110619706" class="icon" p-id="47150520" xmlns:xlink="http://www.w3.org/1999/xlink"><path d="M512 682.666667a42.666667 42.666667 0 0 0-42.666667 42.666666v213.333334a42.666667 42.666667 0 0 0 42.666667 42.666666 42.666667 42.666667 0 0 0 42.666667-42.666666v-213.333334a42.666667 42.666667 0 0 0-42.666667-42.666666zM640 42.666667a42.666667 42.666667 0 0 0-42.666667 42.666666v256a42.666667 42.666667 0 0 0 42.666667 42.666667 42.666667 42.666667 0 0 0 42.666667-42.666667V85.333333a42.666667 42.666667 0 0 0-42.666667-42.666666z" fill="#000000" p-id="47150521"/><path d="M298.666667 298.666667c-46.634667 0-85.333333 38.698667-85.333334 85.333333v170.666667c0 117.333333 96 213.333333 213.333334 213.333333h170.666666c117.333333 0 213.333333-96 213.333334-213.333333V384c0-46.634667-38.698667-85.333333-85.333334-85.333333z m0 85.333333h426.666666v170.666667c0 71.210667-56.789333 128-128 128h-170.666666c-71.210667 0-128-56.789333-128-128z" fill="#000000" p-id="47150522"/><path d="M384 42.666667a42.666667 42.666667 0 0 0-42.666667 42.666666v256a42.666667 42.666667 0 0 0 42.666667 42.666667 42.666667 42.666667 0 0 0 42.666667-42.666667V85.333333a42.666667 42.666667 0 0 0-42.666667-42.666666z" fill="#000000" p-id="47150523"/></svg>