<?xml version="1.0" encoding="UTF-8"?>
<svg class="icon" viewBox="0 0 1024 1024" version="1.1" xmlns="http://www.w3.org/2000/svg" p-id="4163" width="1024" height="1024"><path d="M160 224A32 32 0 0 0 128 256v512a32 32 0 0 0 32 32h704a32 32 0 0 0 32-32V256a32 32 0 0 0-32-32h-704z m0-64h704A96 96 0 0 1 960 256v512a96 96 0 0 1-96 96h-704A96 96 0 0 1 64 768V256a96 96 0 0 1 96-96z" fill="#383838" p-id="4164"></path><path d="M704 320a64 64 0 1 1 0 128 64 64 0 0 1 0-128zM288 448h256c21.312 0 32 10.688 32 32 0 21.312-10.688 32-32 32h-256c-21.312 0-32-10.688-32-32 0-21.312 10.688-32 32-32z m0 128h256c21.312 0 32 10.688 32 32 0 21.312-10.688 32-32 32h-256c-21.312 0-32-10.688-32-32 0-21.312 10.688-32 32-32z" fill="#383838" p-id="4165"></path></svg>