<?xml version="1.0" standalone="no"?><!DOCTYPE svg PUBLIC "-//W3C//DTD SVG 1.1//EN" "http://www.w3.org/Graphics/SVG/1.1/DTD/svg11.dtd"><svg viewBox="0 0 1024 1024" version="1.1" xmlns="http://www.w3.org/2000/svg" width="200" height="200" t="1775110619698" class="icon" p-id="47150384" xmlns:xlink="http://www.w3.org/1999/xlink"><path d="M597.333333 85.333333c-52.138667 0-104.874667 17.152-145.664 53.418667S384 231.125333 384 298.666667a42.666667 42.666667 0 0 0 42.666667 42.666666 42.666667 42.666667 0 0 0 42.666666-42.666666c0-46.208 15.786667-75.477333 38.997334-96.085334C531.541333 181.973333 564.138667 170.666667 597.333333 170.666667c33.194667 0 65.792 11.306667 89.002667 31.914666C709.546667 223.189333 725.333333 252.458667 725.333333 298.666667a42.666667 42.666667 0 0 0 42.666667 42.666666 42.666667 42.666667 0 0 0 42.666667-42.666666c0-67.541333-26.88-123.648-67.669334-159.914667C702.208 102.485333 649.472 85.333333 597.333333 85.333333z" fill="#000000" p-id="47150385"/><path d="M426.666667 256a42.666667 42.666667 0 0 0-42.666667 42.666667v597.333333a42.666667 42.666667 0 0 0 42.666667 42.666667 42.666667 42.666667 0 0 0 42.666666-42.666667V298.666667a42.666667 42.666667 0 0 0-42.666666-42.666667z" fill="#000000" p-id="47150386"/><path d="M256 853.333333a42.666667 42.666667 0 0 0-42.666667 42.666667 42.666667 42.666667 0 0 0 42.666667 42.666667h512a42.666667 42.666667 0 0 0 42.666667-42.666667 42.666667 42.666667 0 0 0-42.666667-42.666667zM256 512a42.666667 42.666667 0 0 0-42.666667 42.666667 42.666667 42.666667 0 0 0 42.666667 42.666666h426.666667a42.666667 42.666667 0 0 0 42.666666-42.666666 42.666667 42.666667 0 0 0-42.666666-42.666667z" fill="#000000" p-id="47150387"/></svg>