<?xml version="1.0" standalone="no"?><!DOCTYPE svg PUBLIC "-//W3C//DTD SVG 1.1//EN" "http://www.w3.org/Graphics/SVG/1.1/DTD/svg11.dtd"><svg viewBox="0 0 1024 1024" version="1.1" xmlns="http://www.w3.org/2000/svg" width="200" height="200" t="1775110619666" class="icon" p-id="47150201" xmlns:xlink="http://www.w3.org/1999/xlink"><path d="M85.333333 85.333333a42.666667 42.666667 0 0 0-42.666666 42.666667 42.666667 42.666667 0 0 0 42.666666 42.666667h853.333334a42.666667 42.666667 0 0 0 42.666666-42.666667 42.666667 42.666667 0 0 0-42.666666-42.666667z" fill="#000000" p-id="47150202"/><path d="M128 85.333333a42.666667 42.666667 0 0 0-42.666667 42.666667v469.333333c0 70.186667 57.813333 128 128 128h597.333334c70.186667 0 128-57.813333 128-128V128a42.666667 42.666667 0 0 0-42.666667-42.666667 42.666667 42.666667 0 0 0-42.666667 42.666667v469.333333c0 24.064-18.602667 42.666667-42.666666 42.666667H213.333333c-24.064 0-42.666667-18.602667-42.666666-42.666667V128a42.666667 42.666667 0 0 0-42.666667-42.666667z" fill="#000000" p-id="47150203"/><path d="M481.834667 652.501333l-213.333334 213.333334a42.666667 42.666667 0 0 0 0 60.330666 42.666667 42.666667 0 0 0 60.330667 0L512 742.997333l183.168 183.168a42.666667 42.666667 0 0 0 60.330667 0 42.666667 42.666667 0 0 0 0-60.330666l-213.333334-213.333334a42.666667 42.666667 0 0 0-60.330666 0z" fill="#000000" p-id="47150204"/></svg>