<?xml version="1.0" encoding="UTF-8"?>
<svg class="icon" viewBox="0 0 1024 1024" version="1.1" xmlns="http://www.w3.org/2000/svg" p-id="4646" width="1024" height="1024"><path d="M480 896v-256H192V576h288V320H192v576h288z m64 0H832V320H544v256H832v64H544v256zM128 256h768v672a32 32 0 0 1-32 32h-704a32 32 0 0 1-32-32V256z" fill="#383838" p-id="4647"></path><path d="M96 256h832c21.312 0 32 10.688 32 32 0 21.312-10.688 32-32 32h-832c-21.312 0-32-10.688-32-32 0-21.312 10.688-32 32-32z" fill="#383838" p-id="4648"></path><path d="M512 256a64 64 0 1 0 0-128 64 64 0 0 0 0 128z m0 64a128 128 0 1 1 0-256 128 128 0 0 1 0 256z" fill="#383838" p-id="4649"></path><path d="M512 256a64 64 0 1 0 0-128 64 64 0 0 0 0 128z m0 64a128 128 0 1 1 0-256 128 128 0 0 1 0 256z" fill="#383838" p-id="4650"></path></svg>