<?xml version="1.0" standalone="no"?><!DOCTYPE svg PUBLIC "-//W3C//DTD SVG 1.1//EN" "http://www.w3.org/Graphics/SVG/1.1/DTD/svg11.dtd"><svg viewBox="0 0 1024 1024" version="1.1" xmlns="http://www.w3.org/2000/svg" width="200" height="200" t="1775110619699" class="icon" p-id="47150393" xmlns:xlink="http://www.w3.org/1999/xlink"><path d="M298.666667 554.666667c-46.634667 0-85.333333 38.698667-85.333334 85.333333v256c0 46.634667 38.698667 85.333333 85.333334 85.333333h235.989333a42.666667 42.666667 0 0 0 42.666667-42.666666 42.666667 42.666667 0 0 0-42.666667-42.666667H298.666667v-256h272.085333a42.666667 42.666667 0 0 0 42.666667-42.666667 42.666667 42.666667 0 0 0-42.666667-42.666666zM673.834667 673.834667a42.666667 42.666667 0 0 0 0 60.330666l213.333333 213.333334a42.666667 42.666667 0 0 0 60.330667 0 42.666667 42.666667 0 0 0 0-60.330667l-213.333334-213.333333a42.666667 42.666667 0 0 0-60.330666 0z" fill="#000000" p-id="47150394"/><path d="M887.168 673.834667l-213.333333 213.333333a42.666667 42.666667 0 0 0 0 60.330667 42.666667 42.666667 0 0 0 60.330666 0l213.333334-213.333334a42.666667 42.666667 0 0 0 0-60.330666 42.666667 42.666667 0 0 0-60.330667 0zM170.666667 341.333333c-70.186667 0-128 57.813333-128 128v213.333334c0 70.186667 57.813333 128 128 128h85.333333a42.666667 42.666667 0 0 0 42.666667-42.666667 42.666667 42.666667 0 0 0-42.666667-42.666667H170.666667c-24.064 0-42.666667-18.602667-42.666667-42.666666v-213.333334c0-24.064 18.602667-42.666667 42.666667-42.666666h682.666666c24.064 0 42.666667 18.602667 42.666667 42.666666v64a42.666667 42.666667 0 0 0 42.666667 42.666667 42.666667 42.666667 0 0 0 42.666666-42.666667V469.333333c0-70.186667-57.813333-128-128-128z" fill="#000000" p-id="47150395"/><path d="M298.666667 42.666667c-46.634667 0-85.333333 38.698667-85.333334 85.333333v256a42.666667 42.666667 0 0 0 42.666667 42.666667 42.666667 42.666667 0 0 0 42.666667-42.666667V128h426.666666v256a42.666667 42.666667 0 0 0 42.666667 42.666667 42.666667 42.666667 0 0 0 42.666667-42.666667V128c0-46.634667-38.698667-85.333333-85.333334-85.333333z" fill="#000000" p-id="47150396"/></svg>