<?xml version="1.0" standalone="no"?><!DOCTYPE svg PUBLIC "-//W3C//DTD SVG 1.1//EN" "http://www.w3.org/Graphics/SVG/1.1/DTD/svg11.dtd"><svg viewBox="0 0 1024 1024" version="1.1" xmlns="http://www.w3.org/2000/svg" width="200" height="200" t="1775110619667" class="icon" p-id="47150206" xmlns:xlink="http://www.w3.org/1999/xlink"><path d="M298.666667 554.666667c-46.634667 0-85.333333 38.698667-85.333334 85.333333v256c0 46.634667 38.698667 85.333333 85.333334 85.333333h277.333333a42.666667 42.666667 0 0 0 42.666667-42.666666 42.666667 42.666667 0 0 0-42.666667-42.666667H298.666667v-256h426.666666v21.333333a42.666667 42.666667 0 0 0 42.666667 42.666667 42.666667 42.666667 0 0 0 42.666667-42.666667V640c0-46.634667-38.698667-85.333333-85.333334-85.333333z" fill="#000000" p-id="47150207"/><path d="M908.501333 695.168L768 835.669333l-55.168-55.168a42.666667 42.666667 0 0 0-60.330667 0 42.666667 42.666667 0 0 0 0 60.330667l85.333334 85.333333a42.666667 42.666667 0 0 0 60.330666 0l170.666667-170.666666a42.666667 42.666667 0 0 0 0-60.330667 42.666667 42.666667 0 0 0-60.330667 0zM170.666667 341.333333c-70.186667 0-128 57.813333-128 128v213.333334c0 70.186667 57.813333 128 128 128h85.333333a42.666667 42.666667 0 0 0 42.666667-42.666667 42.666667 42.666667 0 0 0-42.666667-42.666667H170.666667c-24.064 0-42.666667-18.602667-42.666667-42.666666v-213.333334c0-24.064 18.602667-42.666667 42.666667-42.666666h682.666666c24.064 0 42.666667 18.602667 42.666667 42.666666v85.333334a42.666667 42.666667 0 0 0 42.666667 42.666666 42.666667 42.666667 0 0 0 42.666666-42.666666v-85.333334c0-70.186667-57.813333-128-128-128z" fill="#000000" p-id="47150208"/><path d="M298.666667 42.666667c-46.634667 0-85.333333 38.698667-85.333334 85.333333v256a42.666667 42.666667 0 0 0 42.666667 42.666667 42.666667 42.666667 0 0 0 42.666667-42.666667V128h426.666666v256a42.666667 42.666667 0 0 0 42.666667 42.666667 42.666667 42.666667 0 0 0 42.666667-42.666667V128c0-46.634667-38.698667-85.333333-85.333334-85.333333z" fill="#000000" p-id="47150209"/></svg>