<?xml version="1.0" standalone="no"?><!DOCTYPE svg PUBLIC "-//W3C//DTD SVG 1.1//EN" "http://www.w3.org/Graphics/SVG/1.1/DTD/svg11.dtd"><svg viewBox="0 0 1024 1024" version="1.1" xmlns="http://www.w3.org/2000/svg" width="200" height="200" t="1775110619667" class="icon" p-id="47150209" xmlns:xlink="http://www.w3.org/1999/xlink"><path d="M512 43.562667c-26.709333 0-53.418667 11.946667-69.973333 35.669333a42.666667 42.666667 0 0 0-0.128 0.170667l-384 555.52a42.666667 42.666667 0 0 0-0.085334 0.085333 86.186667 86.186667 0 0 0 27.349334 122.069333 42.666667 42.666667 0 0 0 0.341333 0.170667l363.093333 207.36a42.666667 42.666667 0 0 0 0.085334 0.042667c39.210667 22.357333 87.466667 22.357333 126.634666 0a42.666667 42.666667 0 0 0 0.085334-0.085334l363.093333-207.317333a42.666667 42.666667 0 0 0 0.170667-0.085333 86.058667 86.058667 0 0 0 27.264-122.837334L582.101333 79.402667a42.666667 42.666667 0 0 0-0.085333-0.170667A84.650667 84.650667 0 0 0 512 43.562667z m0 84.522666l383.914667 555.008a42.666667 42.666667 0 0 0 0.085333 0.170667l-362.922667 207.232a42.368 42.368 0 0 1-42.154666 0l-362.752-207.146667z" fill="#000000" p-id="47150210"/><path d="M512 42.666667a42.666667 42.666667 0 0 0-42.666667 42.666666v853.333334a42.666667 42.666667 0 0 0 42.666667 42.666666 42.666667 42.666667 0 0 0 42.666667-42.666666V85.333333a42.666667 42.666667 0 0 0-42.666667-42.666666z" fill="#000000" p-id="47150211"/></svg>