<?xml version="1.0" encoding="UTF-8"?>
<svg class="icon" viewBox="0 0 1024 1024" version="1.1" xmlns="http://www.w3.org/2000/svg" p-id="5325" width="1024" height="1024"><path d="M960 512A448 448 0 1 1 64 512a448 448 0 0 1 896 0z m-413.952 242.944a48 48 0 0 1-34.048 13.952 51.584 51.584 0 0 1-34.048-13.952 48 48 0 0 1-13.952-34.048c0-13.12 5.44-24.768 13.952-34.048A48 48 0 0 1 512 672.896c12.416 0 24.768 5.44 34.048 13.952a48 48 0 0 1 13.952 34.048c0 13.184-4.672 25.6-13.952 34.048zM552.32 550.4c5.76-7.68 13.44-14.08 22.4-17.28 58.88-23.04 97.28-74.88 96-133.12 0.64-39.04-16.64-75.52-48-103.04C592.64 270.72 552.96 256 511.36 256c-41.6 0-81.28 14.72-111.36 40.96-26.88 23.04-42.88 53.12-47.36 85.76a219.84 219.84 0 0 1-0.64 13.44c0.64 7.68 3.84 14.72 8.32 19.84 5.76 6.4 14.08 10.88 23.68 10.88s20.48-4.48 24.32-10.24c4.48-4.48 7.68-25.6 7.68-26.88 6.4-39.04 46.72-69.12 95.36-69.12 53.12 0 96 35.84 96 80 0 31.36-22.4 60.16-56.32 72.96-21.12 8.32-39.04 22.4-51.84 40.96-12.8 18.56-19.84 41.6-19.84 64.64 0 0-1.28 18.56 6.4 28.8 6.4 8.32 15.36 14.08 26.24 14.08 10.88 0 19.84-6.4 26.24-14.08 5.76-8.32 5.76-30.08 5.76-30.08 0-9.6 2.56-19.2 8.32-27.52z" fill="#383838" p-id="5326"></path></svg>