<?xml version="1.0" standalone="no"?><!DOCTYPE svg PUBLIC "-//W3C//DTD SVG 1.1//EN" "http://www.w3.org/Graphics/SVG/1.1/DTD/svg11.dtd"><svg viewBox="0 0 1024 1024" version="1.1" xmlns="http://www.w3.org/2000/svg" width="200" height="200" t="1775110619667" class="icon" p-id="47150213" xmlns:xlink="http://www.w3.org/1999/xlink"><path d="M213.333333 640a42.666667 42.666667 0 0 0-42.666666 42.666667v85.333333a42.666667 42.666667 0 0 0 42.666666 42.666667 42.666667 42.666667 0 0 0 42.666667-42.666667v-85.333333a42.666667 42.666667 0 0 0-42.666667-42.666667zM810.666667 640a42.666667 42.666667 0 0 0-42.666667 42.666667v85.333333a42.666667 42.666667 0 0 0 42.666667 42.666667 42.666667 42.666667 0 0 0 42.666666-42.666667v-85.333333a42.666667 42.666667 0 0 0-42.666666-42.666667z" fill="#000000" p-id="47150214"/><path d="M170.666667 298.666667c-70.186667 0-128 57.813333-128 128v170.666666c0 70.186667 57.813333 128 128 128h682.666666c70.186667 0 128-57.813333 128-128v-170.666666c0-70.186667-57.813333-128-128-128z m0 85.333333h682.666666c24.362667 0 42.666667 18.304 42.666667 42.666667v170.666666c0 24.362667-18.304 42.666667-42.666667 42.666667H170.666667c-24.362667 0-42.666667-18.304-42.666667-42.666667v-170.666666c0-24.362667 18.304-42.666667 42.666667-42.666667z" fill="#000000" p-id="47150215"/><path d="M768 469.333333a42.666667 42.666667 0 0 0-42.666667 42.666667 42.666667 42.666667 0 0 0 42.666667 42.666667h0.426667a42.666667 42.666667 0 0 0 42.666666-42.666667 42.666667 42.666667 0 0 0-42.666666-42.666667z" fill="#000000" p-id="47150216"/></svg>