<?xml version="1.0" standalone="no"?><!DOCTYPE svg PUBLIC "-//W3C//DTD SVG 1.1//EN" "http://www.w3.org/Graphics/SVG/1.1/DTD/svg11.dtd"><svg viewBox="0 0 1024 1024" version="1.1" xmlns="http://www.w3.org/2000/svg" width="200" height="200" t="1775110619667" class="icon" p-id="47150216" xmlns:xlink="http://www.w3.org/1999/xlink"><path d="M631.082667 128a85.845333 85.845333 0 0 0-82.986667 65.834667 42.666667 42.666667 0 0 0-0.170667 0.896L423.424 784.896l-74.026667-255.573333a42.666667 42.666667 0 0 0-0.469333-1.664A85.632 85.632 0 0 0 267.946667 469.333333a42.666667 42.666667 0 0 0-0.085334 0H128a42.666667 42.666667 0 0 0-42.666667 42.666667 42.666667 42.666667 0 0 0 42.666667 42.666667h139.946667l97.536 336.896a42.666667 42.666667 0 0 0 0.512 1.792c9.386667 27.733333 38.144 44.629333 63.573333 43.477333 25.429333-1.152 52.522667-20.565333 59.349333-49.066667a42.666667 42.666667 0 0 0 0.256-1.109333L631.168 213.333333H896a42.666667 42.666667 0 0 0 42.666667-42.666666 42.666667 42.666667 0 0 0-42.666667-42.666667h-264.832a42.666667 42.666667 0 0 0-0.085333 0z" fill="#000000" p-id="47150217"/></svg>