<?xml version="1.0" standalone="no"?><!DOCTYPE svg PUBLIC "-//W3C//DTD SVG 1.1//EN" "http://www.w3.org/Graphics/SVG/1.1/DTD/svg11.dtd"><svg viewBox="0 0 1024 1024" version="1.1" xmlns="http://www.w3.org/2000/svg" width="200" height="200" t="1775110619667" class="icon" p-id="47150221" xmlns:xlink="http://www.w3.org/1999/xlink"><path d="M512 256C253.312 256 42.666667 466.645333 42.666667 725.333333a42.666667 42.666667 0 0 0 42.666666 42.666667 42.666667 42.666667 0 0 0 42.666667-42.666667c0-212.565333 171.434667-384 384-384s384 171.434667 384 384a42.666667 42.666667 0 0 0 42.666667 42.666667 42.666667 42.666667 0 0 0 42.666666-42.666667c0-258.688-210.645333-469.333333-469.333333-469.333333z" fill="#000000" p-id="47150222"/><path d="M512 426.666667c-164.437333 0-298.666667 134.229333-298.666667 298.666666a42.666667 42.666667 0 0 0 42.666667 42.666667 42.666667 42.666667 0 0 0 42.666667-42.666667c0-118.314667 95.018667-213.333333 213.333333-213.333333s213.333333 95.018667 213.333333 213.333333a42.666667 42.666667 0 0 0 42.666667 42.666667 42.666667 42.666667 0 0 0 42.666667-42.666667c0-164.437333-134.229333-298.666667-298.666667-298.666666z" fill="#000000" p-id="47150223"/><path d="M512 597.333333a130.133333 130.133333 0 0 0-87.04 32.085334C400.213333 651.477333 384 686.208 384 725.333333a42.666667 42.666667 0 0 0 42.666667 42.666667 42.666667 42.666667 0 0 0 42.666666-42.666667c0-17.792 5.12-25.685333 12.373334-32.085333 7.168-6.4 18.432-10.581333 30.293333-10.581333 11.861333 0 23.125333 4.181333 30.293333 10.581333 7.253333 6.4 12.373333 14.293333 12.373334 32.085333a42.666667 42.666667 0 0 0 42.666666 42.666667 42.666667 42.666667 0 0 0 42.666667-42.666667c0-39.125333-16.213333-73.856-40.96-95.914666A130.133333 130.133333 0 0 0 512 597.333333z" fill="#000000" p-id="47150224"/></svg>