<?xml version="1.0" standalone="no"?><!DOCTYPE svg PUBLIC "-//W3C//DTD SVG 1.1//EN" "http://www.w3.org/Graphics/SVG/1.1/DTD/svg11.dtd"><svg viewBox="0 0 1024 1024" version="1.1" xmlns="http://www.w3.org/2000/svg" width="200" height="200" t="1775110619667" class="icon" p-id="47150222" xmlns:xlink="http://www.w3.org/1999/xlink"><path d="M341.333333 42.666667C271.146667 42.666667 213.333333 100.48 213.333333 170.666667v682.666666c0 70.186667 57.813333 128 128 128h341.333334c70.186667 0 128-57.813333 128-128V170.666667c0-70.186667-57.813333-128-128-128z m0 85.333333h341.333334c24.362667 0 42.666667 18.304 42.666666 42.666667v682.666666c0 24.362667-18.304 42.666667-42.666666 42.666667H341.333333c-24.362667 0-42.666667-18.304-42.666666-42.666667V170.666667c0-24.362667 18.304-42.666667 42.666666-42.666667z" fill="#000000" p-id="47150223"/><path d="M170.666667 213.333333C100.48 213.333333 42.666667 271.146667 42.666667 341.333333v341.333334c0 70.186667 57.813333 128 128 128h682.666666c70.186667 0 128-57.813333 128-128V341.333333c0-70.186667-57.813333-128-128-128z m0 85.333334h682.666666c24.362667 0 42.666667 18.304 42.666667 42.666666v341.333334c0 24.362667-18.304 42.666667-42.666667 42.666666H170.666667c-24.362667 0-42.666667-18.304-42.666667-42.666666V341.333333c0-24.362667 18.304-42.666667 42.666667-42.666666z" fill="#000000" p-id="47150224"/></svg>