<?xml version="1.0" encoding="UTF-8"?>
<svg class="icon" viewBox="0 0 1024 1024" version="1.1" xmlns="http://www.w3.org/2000/svg" p-id="4521" width="1024" height="1024"><path d="M352 896h320c21.312 0 32 10.688 32 32 0 21.312-10.688 32-32 32h-320c-21.312 0-32-10.688-32-32 0-21.312 10.688-32 32-32zM307.328 128L207.808 576h608.384l-99.52-448H307.328z m-25.6-64h460.608a32 32 0 0 1 31.232 25.088l113.792 512a32.064 32.064 0 0 1-31.232 38.912H167.872a32 32 0 0 1-31.232-38.912l113.792-512A32 32 0 0 1 281.6 64z" fill="#383838" p-id="4522"></path><path d="M672 576c21.312 0 32 10.688 32 32v128c0 21.312-10.688 32-32 32-21.312 0-32-10.688-32-32v-128c0-21.312 10.688-32 32-32z m-192-0.064h64V960h-64V575.936z" fill="#383838" p-id="4523"></path></svg>