<?xml version="1.0" encoding="UTF-8"?>
<svg class="icon" viewBox="0 0 1024 1024" version="1.1" xmlns="http://www.w3.org/2000/svg" p-id="4186" width="1024" height="1024"><path d="M512 863.36l384-54.848v-638.72l-370.432 52.928a96 96 0 0 1-27.136 0L128 169.792v638.72l384 54.848zM137.024 106.432l370.432 52.928a32 32 0 0 0 9.088 0l370.432-52.928a64 64 0 0 1 73.024 63.36v638.72a64 64 0 0 1-54.976 63.36l-388.48 55.488a31.808 31.808 0 0 1-9.088 0l-388.48-55.488a64 64 0 0 1-54.976-63.36v-638.72a64 64 0 0 1 73.024-63.36z" fill="#383838" p-id="4187"></path><path d="M480 192h64v704h-64V192z" fill="#383838" p-id="4188"></path></svg>