<?xml version="1.0" standalone="no"?><!DOCTYPE svg PUBLIC "-//W3C//DTD SVG 1.1//EN" "http://www.w3.org/Graphics/SVG/1.1/DTD/svg11.dtd"><svg viewBox="0 0 1024 1024" version="1.1" xmlns="http://www.w3.org/2000/svg" width="200" height="200" t="1775110619668" class="icon" p-id="47150229" xmlns:xlink="http://www.w3.org/1999/xlink"><path d="M170.666667 554.666667c-70.186667 0-128 57.813333-128 128v170.666666c0 70.186667 57.813333 128 128 128h682.666666c70.186667 0 128-57.813333 128-128v-170.666666c0-70.186667-57.813333-128-128-128z m0 85.333333h682.666666c24.362667 0 42.666667 18.304 42.666667 42.666667v170.666666c0 24.362667-18.304 42.666667-42.666667 42.666667H170.666667c-24.362667 0-42.666667-18.304-42.666667-42.666667v-170.666666c0-24.362667 18.304-42.666667 42.666667-42.666667z" fill="#000000" p-id="47150230"/><path d="M256 725.333333a42.666667 42.666667 0 0 0-42.666667 42.666667 42.666667 42.666667 0 0 0 42.666667 42.666667h0.426667a42.666667 42.666667 0 0 0 42.666666-42.666667 42.666667 42.666667 0 0 0-42.666666-42.666667zM426.666667 725.333333a42.666667 42.666667 0 0 0-42.666667 42.666667 42.666667 42.666667 0 0 0 42.666667 42.666667h0.426666a42.666667 42.666667 0 0 0 42.666667-42.666667 42.666667 42.666667 0 0 0-42.666667-42.666667zM640 384a42.666667 42.666667 0 0 0-42.666667 42.666667v170.666666a42.666667 42.666667 0 0 0 42.666667 42.666667 42.666667 42.666667 0 0 0 42.666667-42.666667v-170.666666a42.666667 42.666667 0 0 0-42.666667-42.666667zM640.426667 213.504a212.608 212.608 0 0 0-150.912 62.250667 42.666667 42.666667 0 0 0 0 60.330666 42.666667 42.666667 0 0 0 60.330666 0 127.402667 127.402667 0 0 1 181.162667 0 42.666667 42.666667 0 0 0 60.330667 0 42.666667 42.666667 0 0 0 0-60.330666 212.608 212.608 0 0 0-150.912-62.293334z" fill="#000000" p-id="47150231"/><path d="M640.256 42.922667c-98.346667 0-196.693333 37.333333-271.488 112.085333a42.666667 42.666667 0 0 0 0 60.330667 42.666667 42.666667 0 0 0 60.330667 0 298.026667 298.026667 0 0 1 422.229333 0 42.666667 42.666667 0 0 0 60.330667 0 42.666667 42.666667 0 0 0 0-60.330667 382.72 382.72 0 0 0-271.402667-112.085333z" fill="#000000" p-id="47150232"/></svg>