<?xml version="1.0" standalone="no"?><!DOCTYPE svg PUBLIC "-//W3C//DTD SVG 1.1//EN" "http://www.w3.org/Graphics/SVG/1.1/DTD/svg11.dtd"><svg viewBox="0 0 1024 1024" version="1.1" xmlns="http://www.w3.org/2000/svg" width="200" height="200" t="1775110619668" class="icon" p-id="47150238" xmlns:xlink="http://www.w3.org/1999/xlink"><path d="M170.666667 426.666667a42.666667 42.666667 0 0 0-42.666667 42.666666 42.666667 42.666667 0 0 0 42.666667 42.666667c189.013333 0 341.333333 152.32 341.333333 341.333333a42.666667 42.666667 0 0 0 42.666667 42.666667 42.666667 42.666667 0 0 0 42.666666-42.666667c0-235.136-191.530667-426.666667-426.666666-426.666666z" fill="#000000" p-id="47150239"/><path d="M170.666667 128a42.666667 42.666667 0 0 0-42.666667 42.666667 42.666667 42.666667 0 0 0 42.666667 42.666666c353.962667 0 640 286.037333 640 640a42.666667 42.666667 0 0 0 42.666666 42.666667 42.666667 42.666667 0 0 0 42.666667-42.666667c0-400.085333-325.248-725.333333-725.333333-725.333333zM213.333333 725.333333c-46.634667 0-85.333333 38.698667-85.333333 85.333334s38.698667 85.333333 85.333333 85.333333 85.333333-38.698667 85.333334-85.333333-38.698667-85.333333-85.333334-85.333334z" fill="#000000" p-id="47150240"/></svg>