<?xml version="1.0" encoding="UTF-8"?>
<svg class="icon" viewBox="0 0 1024 1024" version="1.1" xmlns="http://www.w3.org/2000/svg" p-id="5380" width="1024" height="1024"><path d="M624 476.032V640H768c36.032 0.64 66.176 13.184 90.496 37.504 24.32 24.32 36.8 54.528 37.504 90.496H128c0.64-36.032 13.184-66.176 37.504-90.496 24.32-24.32 54.528-36.8 90.496-37.504h144V475.968a192.32 192.32 0 0 1-70.016-96 187.072 187.072 0 0 1 0.512-118.464c12.992-40.32 35.84-72.512 68.48-96.512A185.792 185.792 0 0 1 512 128.96c42.688 0 80.32 12.032 112.96 36.032 32.64 24 55.552 56.192 68.544 96.512 12.992 40.32 13.184 79.808 0.512 118.464a192.32 192.32 0 0 1-70.016 96zM128 896v-64h768v64H128z" fill="#383838" p-id="5381"></path></svg>