<?xml version="1.0" encoding="UTF-8"?>
<svg class="icon" viewBox="0 0 1024 1024" version="1.1" xmlns="http://www.w3.org/2000/svg" p-id="3274" width="1024" height="1024"><path d="M224 128v704h576V128h-576zM192 64h640a32 32 0 0 1 32 32v768a32 32 0 0 1-32 32H192a32 32 0 0 1-32-32v-768A32 32 0 0 1 192 64z" fill="#383838" p-id="3275"></path><path d="M64 832h896v64H64v-64zM320 192h128v96H320V192z" fill="#383838" p-id="3276"></path><path d="M384 832h256v-64a128 128 0 0 0-256 0v64z m128-256a192 192 0 0 1 192 192v128H320v-128a192 192 0 0 1 192-192zM320 384h128v96H320V384z m256-192h128v96H576V192z m0 192h128v96H576V384z" fill="#383838" p-id="3277"></path></svg>