<?xml version="1.0" standalone="no"?><!DOCTYPE svg PUBLIC "-//W3C//DTD SVG 1.1//EN" "http://www.w3.org/Graphics/SVG/1.1/DTD/svg11.dtd"><svg viewBox="0 0 1024 1024" version="1.1" xmlns="http://www.w3.org/2000/svg" width="200" height="200" t="1775110619705" class="icon" p-id="47150504" xmlns:xlink="http://www.w3.org/1999/xlink"><path d="M170.666667 85.333333C100.48 85.333333 42.666667 143.146667 42.666667 213.333333v426.666667c0 70.186667 57.813333 128 128 128h682.666666c70.186667 0 128-57.813333 128-128v-128a42.666667 42.666667 0 0 0-42.666666-42.666667 42.666667 42.666667 0 0 0-42.666667 42.666667v128c0 24.064-18.602667 42.666667-42.666667 42.666667H170.666667c-24.064 0-42.666667-18.602667-42.666667-42.666667V213.333333c0-24.064 18.602667-42.666667 42.666667-42.666666h384a42.666667 42.666667 0 0 0 42.666666-42.666667 42.666667 42.666667 0 0 0-42.666666-42.666667zM341.333333 853.333333a42.666667 42.666667 0 0 0-42.666666 42.666667 42.666667 42.666667 0 0 0 42.666666 42.666667h341.333334a42.666667 42.666667 0 0 0 42.666666-42.666667 42.666667 42.666667 0 0 0-42.666666-42.666667z" fill="#000000" p-id="47150505"/><path d="M512 682.666667a42.666667 42.666667 0 0 0-42.666667 42.666666v170.666667a42.666667 42.666667 0 0 0 42.666667 42.666667 42.666667 42.666667 0 0 0 42.666667-42.666667v-170.666667a42.666667 42.666667 0 0 0-42.666667-42.666666zM908.501333 97.834667l-213.333333 213.333333a42.666667 42.666667 0 0 0 0 60.330667 42.666667 42.666667 0 0 0 60.330667 0l213.333333-213.333334a42.666667 42.666667 0 0 0 0-60.330666 42.666667 42.666667 0 0 0-60.330667 0z" fill="#000000" p-id="47150506"/><path d="M695.168 97.834667a42.666667 42.666667 0 0 0 0 60.330666l213.333333 213.333334a42.666667 42.666667 0 0 0 60.330667 0 42.666667 42.666667 0 0 0 0-60.330667l-213.333333-213.333333a42.666667 42.666667 0 0 0-60.330667 0z" fill="#000000" p-id="47150507"/></svg>