<?xml version="1.0" encoding="UTF-8"?>
<svg class="icon" viewBox="0 0 1024 1024" version="1.1" xmlns="http://www.w3.org/2000/svg" p-id="4660" width="1024" height="1024"><path d="M704 288h131.072a32 32 0 0 1 31.808 28.8L886.4 512h-64.384l-16-160H704V448a32 32 0 1 1-64 0V352H384V448a32 32 0 1 1-64 0V352H217.92l-51.2 512H512v64H131.328a32.128 32.128 0 0 1-31.808-35.2l57.6-576a32 32 0 0 1 31.808-28.8H320v-22.336C320 154.688 405.504 64 512 64s192 90.688 192 201.664v22.4V288z m-64 0v-22.336C640 189.248 582.272 128 512 128c-70.272 0-128 61.248-128 137.664v22.4h256V288z m201.408 483.84L768 698.496V928a32 32 0 1 1-64 0v-229.504L630.656 771.84a32 32 0 1 1-45.248-45.248l128-128a32 32 0 0 1 45.248 0l128 128a32 32 0 1 1-45.248 45.248z" fill="#383838" p-id="4661"></path></svg>