<?xml version="1.0" standalone="no"?><!DOCTYPE svg PUBLIC "-//W3C//DTD SVG 1.1//EN" "http://www.w3.org/Graphics/SVG/1.1/DTD/svg11.dtd"><svg viewBox="0 0 1024 1024" version="1.1" xmlns="http://www.w3.org/2000/svg" width="200" height="200" t="1775110619704" class="icon" p-id="47150493" xmlns:xlink="http://www.w3.org/1999/xlink"><path d="M512 85.333333a42.666667 42.666667 0 0 0-42.666667 42.666667v768a42.666667 42.666667 0 0 0 42.666667 42.666667 42.666667 42.666667 0 0 0 42.666667-42.666667V128a42.666667 42.666667 0 0 0-42.666667-42.666667zM652.501333 311.168a42.666667 42.666667 0 0 0 0 60.330667L793.002667 512l-140.501334 140.501333a42.666667 42.666667 0 0 0 0 60.330667 42.666667 42.666667 0 0 0 60.330667 0l170.666667-170.666667a42.666667 42.666667 0 0 0 0-60.330666l-170.666667-170.666667a42.666667 42.666667 0 0 0-60.330667 0zM341.333333 298.666667a42.666667 42.666667 0 0 0-30.165333 12.501333l-170.666667 170.666667a42.666667 42.666667 0 0 0 0 60.330666l170.666667 170.666667a42.666667 42.666667 0 0 0 60.330667 0 42.666667 42.666667 0 0 0 0-60.330667L230.997333 512l140.501334-140.501333a42.666667 42.666667 0 0 0 0-60.330667A42.666667 42.666667 0 0 0 341.333333 298.666667z" fill="#000000" p-id="47150494"/></svg>