<?xml version="1.0" encoding="UTF-8"?>
<svg class="icon" viewBox="0 0 1024 1024" version="1.1" xmlns="http://www.w3.org/2000/svg" p-id="2463" width="1024" height="1024"><path d="M864 409.6a192 192 0 0 1-37.888 349.44A256.064 256.064 0 0 1 576 960H480a32 32 0 0 1 0-64H576a192 192 0 0 0 181.12-128h-21.12a32 32 0 0 1-32-32v-320a32 32 0 0 1 32-32h32c10.368 0 20.48 0.832 30.528 2.432a288 288 0 0 0-573.056 0A193.28 193.28 0 0 1 256 384h32a32 32 0 0 1 32 32v320a32 32 0 0 1-32 32H256a192 192 0 0 1-96-358.4 352 352 0 0 1 704 0zM256 448a128 128 0 0 0 0 256V448z m640 128a128 128 0 0 0-128-128v256a128 128 0 0 0 128-128z" fill="#383838" p-id="2464"></path></svg>