<?xml version="1.0" encoding="UTF-8"?>
<svg class="icon" viewBox="0 0 1024 1024" version="1.1" xmlns="http://www.w3.org/2000/svg" p-id="4116" width="1024" height="1024"><path d="M224 160a64 64 0 0 0-64 64v576a64 64 0 0 0 64 64h576a64 64 0 0 0 64-64v-576a64 64 0 0 0-64-64h-576z m0-64h576a128 128 0 0 1 128 128v576a128 128 0 0 1-128 128h-576a128 128 0 0 1-128-128v-576a128 128 0 0 1 128-128z" fill="#383838" p-id="4117"></path><path d="M384 416a64 64 0 1 0 0-128 64 64 0 0 0 0 128z m0 64a128 128 0 1 1 0-256 128 128 0 0 1 0 256z" fill="#383838" p-id="4118"></path><path d="M480 320h256c21.312 0 32 10.688 32 32 0 21.312-10.688 32-32 32h-256c-21.312 0-32-10.688-32-32 0-21.312 10.688-32 32-32z m160 416a64 64 0 1 0 0-128 64 64 0 0 0 0 128z m0 64a128 128 0 1 1 0-256 128 128 0 0 1 0 256z" fill="#383838" p-id="4119"></path><path d="M288 640h256c21.312 0 32 10.688 32 32 0 21.312-10.688 32-32 32h-256c-21.312 0-32-10.688-32-32 0-21.312 10.688-32 32-32z" fill="#383838" p-id="4120"></path></svg>