<?xml version="1.0" encoding="UTF-8"?>
<svg class="icon" viewBox="0 0 1024 1024" version="1.1" xmlns="http://www.w3.org/2000/svg" p-id="5435" width="1024" height="1024"><path d="M680 348.992L377.92 536.96c5.376 17.344 7.04 35.008 5.056 52.992l280 105.024a126.72 126.72 0 0 1 74.496-51.008c30.336-7.36 60.16-3.328 89.472 12.032 29.376 15.36 49.536 37.44 60.544 66.496 11.008 28.992 10.88 58.944-0.512 89.984a123.648 123.648 0 0 1-148.032 79.04c-32-7.68-57.152-24.192-75.52-49.536-18.24-25.344-25.728-54.656-22.4-88l-280.064-104.96c-16 22.656-36.288 38.464-60.992 47.488-24.64 8.96-50.112 9.984-76.48 3.008a125.696 125.696 0 0 1-94.464-111.04 126.016 126.016 0 0 1 14.976-75.008c12.672-23.04 31.36-40.32 56-52.032a130.752 130.752 0 0 1 75.52-11.968c25.6 3.648 48.512 14.784 68.48 33.472l302.016-187.968c-9.344-32-7.68-62.336 4.992-91.008a122.752 122.752 0 0 1 64-63.488c30.016-13.632 59.84-16 89.472-7.04 29.696 8.96 53.376 27.52 71.04 55.488 17.664 28.032 24 57.344 19.008 88-4.992 30.72-20.352 56.512-46.08 77.504A123.008 123.008 0 0 1 763.072 384a127.808 127.808 0 0 1-83.008-35.008v0.064z" fill="#383838" p-id="5436"></path></svg>