<?xml version="1.0" encoding="UTF-8"?>
<svg class="icon" viewBox="0 0 1024 1024" version="1.1" xmlns="http://www.w3.org/2000/svg" p-id="3501" width="1024" height="1024"><path d="M512 386.88V448h405.568a32 32 0 0 1 30.72 40.768l-76.48 267.968A192 192 0 0 1 687.168 896H336.832a192 192 0 0 1-184.64-139.264L75.648 488.768A32 32 0 0 1 106.368 448H448V117.888a32 32 0 0 1 47.36-28.096l13.888 7.616L512 96v2.88l231.68 126.4a32 32 0 0 1-2.048 57.216L512 386.88z m0-70.272l144.768-65.792L512 171.84v144.768zM512 512H148.864l18.24 64h689.92l18.176-64H512z m-326.592 128l28.352 99.2A128 128 0 0 0 336.832 832h350.336a128 128 0 0 0 123.072-92.8l28.352-99.2H185.408z" fill="#383838" p-id="3502"></path></svg>