<?xml version="1.0" standalone="no"?><!DOCTYPE svg PUBLIC "-//W3C//DTD SVG 1.1//EN" "http://www.w3.org/Graphics/SVG/1.1/DTD/svg11.dtd"><svg viewBox="0 0 1024 1024" version="1.1" xmlns="http://www.w3.org/2000/svg" width="200" height="200" t="1775110619670" class="icon" p-id="47150277" xmlns:xlink="http://www.w3.org/1999/xlink"><path d="M512 512a42.666667 42.666667 0 0 0-42.666667 42.666667v341.333333a42.666667 42.666667 0 0 0 42.666667 42.666667 42.666667 42.666667 0 0 0 42.666667-42.666667v-341.333333a42.666667 42.666667 0 0 0-42.666667-42.666667zM512 85.333333a42.666667 42.666667 0 0 0-42.666667 42.666667v128a42.666667 42.666667 0 0 0 42.666667 42.666667 42.666667 42.666667 0 0 0 42.666667-42.666667V128a42.666667 42.666667 0 0 0-42.666667-42.666667z" fill="#000000" p-id="47150278"/><path d="M256 213.333333a128 128 0 0 0-88.746667 35.84L68.821333 343.893333a85.973333 85.973333 0 0 0 0 122.88l98.432 94.72A128 128 0 0 0 256 597.333333h512a128 128 0 0 0 88.746667-35.84l98.432-94.677333a42.666667 42.666667 0 0 0 0.085333-0.085333 85.973333 85.973333 0 0 0 0-122.837334 42.666667 42.666667 0 0 0-0.085333-0.042666l-98.432-94.72A128 128 0 0 0 768 213.333333z m0 85.333334h512c11.050667 0 21.632 4.266667 29.568 11.946666a42.666667 42.666667 0 0 0 0 0.042667L896 405.333333l-98.432 94.677334a42.666667 42.666667 0 0 0 0 0.085333A42.581333 42.581333 0 0 1 768 512H256a42.581333 42.581333 0 0 1-29.568-11.946667 42.666667 42.666667 0 0 0 0-0.042666L128 405.333333l98.432-94.677333a42.666667 42.666667 0 0 0 0-0.085333A42.581333 42.581333 0 0 1 256 298.666667z" fill="#000000" p-id="47150279"/></svg>