<?xml version="1.0" standalone="no"?><!DOCTYPE svg PUBLIC "-//W3C//DTD SVG 1.1//EN" "http://www.w3.org/Graphics/SVG/1.1/DTD/svg11.dtd"><svg viewBox="0 0 1024 1024" version="1.1" xmlns="http://www.w3.org/2000/svg" width="200" height="200" t="1775110619670" class="icon" p-id="47150275" xmlns:xlink="http://www.w3.org/1999/xlink"><path d="M170.666667 170.666667a42.666667 42.666667 0 0 0-30.165334 12.501333l-85.333333 85.333333a42.666667 42.666667 0 0 0 0 60.330667l85.333333 85.333333A42.666667 42.666667 0 0 0 170.666667 426.666667h256a42.666667 42.666667 0 0 0 42.666666-42.666667 42.666667 42.666667 0 0 0-42.666666-42.666667H188.330667l-42.666667-42.666666 42.666667-42.666667H426.666667a42.666667 42.666667 0 0 0 42.666666-42.666667 42.666667 42.666667 0 0 0-42.666666-42.666666zM597.333333 170.666667a42.666667 42.666667 0 0 0-42.666666 42.666666 42.666667 42.666667 0 0 0 42.666666 42.666667h238.336l42.666667 42.666667-42.666667 42.666666H597.333333a42.666667 42.666667 0 0 0-42.666666 42.666667 42.666667 42.666667 0 0 0 42.666666 42.666667h256a42.666667 42.666667 0 0 0 30.165334-12.501334l85.333333-85.333333a42.666667 42.666667 0 0 0 0-60.330667l-85.333333-85.333333A42.666667 42.666667 0 0 0 853.333333 170.666667z" fill="#000000" p-id="47150276"/><path d="M512 42.666667a130.133333 130.133333 0 0 0-87.04 32.085333C400.213333 96.810667 384 131.541333 384 170.666667v768a42.666667 42.666667 0 0 0 42.666667 42.666666 42.666667 42.666667 0 0 0 42.666666-42.666666V170.666667c0-17.792 5.12-25.685333 12.373334-32.085334 7.168-6.4 18.432-10.581333 30.293333-10.581333 11.861333 0 23.125333 4.181333 30.293333 10.581333 7.253333 6.4 12.373333 14.293333 12.373334 32.085334v768a42.666667 42.666667 0 0 0 42.666666 42.666666 42.666667 42.666667 0 0 0 42.666667-42.666666V170.666667c0-39.125333-16.213333-73.856-40.96-95.914667A130.133333 130.133333 0 0 0 512 42.666667z" fill="#000000" p-id="47150277"/><path d="M341.333333 896a42.666667 42.666667 0 0 0-42.666666 42.666667 42.666667 42.666667 0 0 0 42.666666 42.666666h341.333334a42.666667 42.666667 0 0 0 42.666666-42.666666 42.666667 42.666667 0 0 0-42.666666-42.666667z" fill="#000000" p-id="47150278"/></svg>