<?xml version="1.0" standalone="no"?><!DOCTYPE svg PUBLIC "-//W3C//DTD SVG 1.1//EN" "http://www.w3.org/Graphics/SVG/1.1/DTD/svg11.dtd"><svg viewBox="0 0 1024 1024" version="1.1" xmlns="http://www.w3.org/2000/svg" width="200" height="200" t="1775110619707" class="icon" p-id="47150541" xmlns:xlink="http://www.w3.org/1999/xlink"><path d="M558.933333 42.922667C347.477333 21.674667 174.506667 137.472 93.354667 297.642667 12.117333 457.941333 20.992 665.898667 163.157333 823.893333c142.165333 157.909333 348.074667 188.501333 515.925334 124.586667C846.933333 884.48 980.266667 724.778667 981.333333 512.256A42.666667 42.666667 0 0 0 981.333333 512v-42.666667a42.666667 42.666667 0 0 0-42.666666-42.666666 42.666667 42.666667 0 0 0-42.666667 42.666666v42.666667c-0.981333 177.365333-109.056 304.085333-247.338667 356.736-138.325333 52.693333-303.36 29.909333-422.058666-101.973333-118.741333-131.925333-124.032-298.453333-57.088-430.506667C236.373333 204.202667 373.76 109.994667 550.4 127.744a42.666667 42.666667 0 0 0 46.677333-38.144 42.666667 42.666667 0 0 0-38.144-46.677333z" fill="#000000" p-id="47150542"/><path d="M347.306667 555.093333a42.666667 42.666667 0 0 0-31.573334 8.106667 42.666667 42.666667 0 0 0-8.533333 59.733333S382.549333 725.333333 512 725.333333s204.8-102.4 204.8-102.4a42.666667 42.666667 0 0 0-8.533333-59.733333 42.666667 42.666667 0 0 0-59.733334 8.533333S595.882667 640 512 640s-136.533333-68.266667-136.533333-68.266667a42.666667 42.666667 0 0 0-28.16-16.64zM384 341.333333a42.666667 42.666667 0 0 0-42.666667 42.666667 42.666667 42.666667 0 0 0 42.666667 42.666667h0.426667a42.666667 42.666667 0 0 0 42.666666-42.666667 42.666667 42.666667 0 0 0-42.666666-42.666667zM640 341.333333a42.666667 42.666667 0 0 0-42.666667 42.666667 42.666667 42.666667 0 0 0 42.666667 42.666667h0.426667a42.666667 42.666667 0 0 0 42.666666-42.666667 42.666667 42.666667 0 0 0-42.666666-42.666667zM682.666667 170.666667a42.666667 42.666667 0 0 0-42.666667 42.666666 42.666667 42.666667 0 0 0 42.666667 42.666667h256a42.666667 42.666667 0 0 0 42.666666-42.666667 42.666667 42.666667 0 0 0-42.666666-42.666666z" fill="#000000" p-id="47150543"/><path d="M810.666667 42.666667a42.666667 42.666667 0 0 0-42.666667 42.666666v256a42.666667 42.666667 0 0 0 42.666667 42.666667 42.666667 42.666667 0 0 0 42.666666-42.666667V85.333333a42.666667 42.666667 0 0 0-42.666666-42.666666z" fill="#000000" p-id="47150544"/></svg>