<?xml version="1.0" standalone="no"?><!DOCTYPE svg PUBLIC "-//W3C//DTD SVG 1.1//EN" "http://www.w3.org/Graphics/SVG/1.1/DTD/svg11.dtd"><svg viewBox="0 0 1024 1024" version="1.1" xmlns="http://www.w3.org/2000/svg" width="200" height="200" t="1775110619671" class="icon" p-id="47150299" xmlns:xlink="http://www.w3.org/1999/xlink"><path d="M213.333333 85.333333C143.146667 85.333333 85.333333 143.146667 85.333333 213.333333v597.333334c0 70.186667 57.813333 128 128 128h597.333334c70.186667 0 128-57.813333 128-128V213.333333c0-70.186667-57.813333-128-128-128z m0 85.333334h597.333334c24.362667 0 42.666667 18.304 42.666666 42.666666v597.333334c0 24.362667-18.304 42.666667-42.666666 42.666666H213.333333c-24.362667 0-42.666667-18.304-42.666666-42.666666V213.333333c0-24.362667 18.304-42.666667 42.666666-42.666666z" fill="#000000" p-id="47150300"/><path d="M341.333333 384a42.666667 42.666667 0 0 0-30.165333 12.501333 42.666667 42.666667 0 0 0 0 60.330667l170.666667 170.666667a42.666667 42.666667 0 0 0 60.330666 0l170.666667-170.666667a42.666667 42.666667 0 0 0 0-60.330667 42.666667 42.666667 0 0 0-60.330667 0L512 537.002667 371.498667 396.501333A42.666667 42.666667 0 0 0 341.333333 384z" fill="#000000" p-id="47150301"/></svg>