<?xml version="1.0" standalone="no"?><!DOCTYPE svg PUBLIC "-//W3C//DTD SVG 1.1//EN" "http://www.w3.org/Graphics/SVG/1.1/DTD/svg11.dtd"><svg viewBox="0 0 1024 1024" version="1.1" xmlns="http://www.w3.org/2000/svg" width="200" height="200" t="1775110619673" class="icon" p-id="47150324" xmlns:xlink="http://www.w3.org/1999/xlink"><path d="M213.333333 85.333333C143.146667 85.333333 85.333333 143.146667 85.333333 213.333333v597.333334c0 70.186667 57.813333 128 128 128h597.333334c70.186667 0 128-57.813333 128-128V213.333333c0-70.186667-57.813333-128-128-128z m0 85.333334h597.333334c24.362667 0 42.666667 18.304 42.666666 42.666666v597.333334c0 24.362667-18.304 42.666667-42.666666 42.666666H213.333333c-24.362667 0-42.666667-18.304-42.666666-42.666666V213.333333c0-24.362667 18.304-42.666667 42.666666-42.666666z" fill="#000000" p-id="47150325"/><path d="M384 256a42.666667 42.666667 0 0 0-42.666667 42.666667v426.666666a42.666667 42.666667 0 0 0 42.666667 42.666667 42.666667 42.666667 0 0 0 42.666667-42.666667v-128h128c53.333333 0 98.773333-21.546667 127.914666-54.314666C711.722667 510.165333 725.333333 468.138667 725.333333 426.666667s-13.610667-83.541333-42.752-116.352C653.44 277.546667 608 256 554.666667 256z m42.666667 85.333333h128c32 0 50.56 10.453333 64.085333 25.685334 13.525333 15.189333 21.248 37.12 21.248 59.648 0 22.528-7.722667 44.458667-21.248 59.648-13.525333 15.232-32.085333 25.685333-64.085333 25.685333h-128z" fill="#000000" p-id="47150326"/></svg>