<?xml version="1.0" standalone="no"?><!DOCTYPE svg PUBLIC "-//W3C//DTD SVG 1.1//EN" "http://www.w3.org/Graphics/SVG/1.1/DTD/svg11.dtd"><svg viewBox="0 0 1024 1024" version="1.1" xmlns="http://www.w3.org/2000/svg" width="200" height="200" t="1775110619671" class="icon" p-id="47150289" xmlns:xlink="http://www.w3.org/1999/xlink"><path d="M213.333333 85.333333C143.146667 85.333333 85.333333 143.146667 85.333333 213.333333v256a42.666667 42.666667 0 0 0 42.666667 42.666667 42.666667 42.666667 0 0 0 42.666667-42.666667V213.333333c0-24.064 18.602667-42.666667 42.666666-42.666666h597.333334c24.064 0 42.666667 18.602667 42.666666 42.666666v597.333334c0 24.064-18.602667 42.666667-42.666666 42.666666h-256a42.666667 42.666667 0 0 0-42.666667 42.666667 42.666667 42.666667 0 0 0 42.666667 42.666667h256c70.186667 0 128-57.813333 128-128V213.333333c0-70.186667-57.813333-128-128-128z" fill="#000000" p-id="47150290"/><path d="M512 469.333333a42.666667 42.666667 0 0 0-30.165333 12.501334l-384 384a42.666667 42.666667 0 0 0 0 60.330666 42.666667 42.666667 0 0 0 60.330666 0l384-384a42.666667 42.666667 0 0 0 0-60.330666A42.666667 42.666667 0 0 0 512 469.333333z" fill="#000000" p-id="47150291"/><path d="M128 597.333333a42.666667 42.666667 0 0 0-42.666667 42.666667v256a42.666667 42.666667 0 0 0 42.666667 42.666667h256a42.666667 42.666667 0 0 0 42.666667-42.666667 42.666667 42.666667 0 0 0-42.666667-42.666667H170.666667v-213.333333a42.666667 42.666667 0 0 0-42.666667-42.666667z" fill="#000000" p-id="47150292"/></svg>