<?xml version="1.0" encoding="UTF-8"?>
<svg class="icon" viewBox="0 0 1024 1024" version="1.1" xmlns="http://www.w3.org/2000/svg" p-id="5413" width="1024" height="1024"><path d="M283.968 868.032L512 747.968l227.968 120.064c2.688 0.64 5.056 0.32 7.04-1.024 1.984-1.28 2.688-3.328 1.984-6.016l-43.008-254.016 184-180.032c2.048-1.92 2.688-4.16 2.048-6.464-0.64-2.304-2.304-3.84-4.992-4.48L632 378.88 518.016 147.968c-1.344-2.688-3.328-4.032-6.016-4.032s-4.672 1.344-6.016 4.032l-114.048 231.04-254.976 36.928c-2.688 0.64-4.352 2.176-4.992 4.544-0.64 2.368 0 4.48 1.984 6.464l184 180.032-43.968 254.016c0 2.688 1.024 4.672 3.008 6.016a8.32 8.32 0 0 0 7.04 0.96z" fill="#383838" p-id="5414"></path></svg>