<?xml version="1.0" standalone="no"?><!DOCTYPE svg PUBLIC "-//W3C//DTD SVG 1.1//EN" "http://www.w3.org/Graphics/SVG/1.1/DTD/svg11.dtd"><svg viewBox="0 0 1024 1024" version="1.1" xmlns="http://www.w3.org/2000/svg" width="200" height="200" t="1775110619697" class="icon" p-id="47150352" xmlns:xlink="http://www.w3.org/1999/xlink"><path d="M384.341333 128.597333C318.08 129.578667 256 182.997333 256 256v512c0 97.365333 110.336 159.829333 193.834667 109.738667l426.496-255.829334 0.085333-0.085333c81.322667-48.64 81.365333-170.794667 0.085333-219.562667l-426.666666-256a122.88 122.88 0 0 0-65.493334-17.664z m-22.016 89.088c12.373333-7.04 28.458667-7.338667 43.605334 1.706667l426.666666 256c29.269333 17.578667 29.312 55.765333 0 73.258667a42.666667 42.666667 0 0 0-0.085333 0l-426.581333 255.914666C375.637333 822.741333 341.333333 803.285333 341.333333 768V256c0-17.664 8.618667-31.317333 20.992-38.314667zM128 128a42.666667 42.666667 0 0 0-42.666667 42.666667v682.666666a42.666667 42.666667 0 0 0 42.666667 42.666667 42.666667 42.666667 0 0 0 42.666667-42.666667V170.666667a42.666667 42.666667 0 0 0-42.666667-42.666667z" fill="#000000" p-id="47150353"/></svg>