<?xml version="1.0" encoding="UTF-8"?>
<svg class="icon" viewBox="0 0 1024 1024" version="1.1" xmlns="http://www.w3.org/2000/svg" p-id="3490" width="1024" height="1024"><path d="M82.56 640a448 448 0 1 1 858.88 0h-67.2a384 384 0 1 0-724.288 0H82.56zM32 704h960c21.312 0 32 10.688 32 32 0 21.312-10.688 32-32 32H32c-21.312 0-32-10.688-32-32 0-21.312 10.688-32 32-32z m256 128h448c21.312 0 32 10.688 32 32 0 21.312-10.688 32-32 32h-448c-21.312 0-32-10.688-32-32 0-21.312 10.688-32 32-32z" fill="#383838" p-id="3491"></path></svg>