<?xml version="1.0" encoding="UTF-8"?>
<svg class="icon" viewBox="0 0 1024 1024" version="1.1" xmlns="http://www.w3.org/2000/svg" p-id="5512" width="1024" height="1024"><path d="M247.488 358.4a72.64 72.64 0 0 0 72.32 72.384c39.872 0 72.448-32.64 72.448-72.384 0-39.808-32.64-72.32-72.448-72.32-39.808 0-72.32 32.512-72.32 72.32z" fill="#383838" p-id="5513"></path><path d="M492.352 128h-167.68A196.736 196.736 0 0 0 128 324.672v374.016a196.672 196.672 0 0 0 196.672 196.736h167.68a5.44 5.44 0 0 0 5.504-5.376V133.44C498.432 130.432 496 128 492.352 128z m-56.064 705.92H324.672a131.776 131.776 0 0 1-95.36-39.872 134.336 134.336 0 0 1-39.808-95.36V324.672a131.84 131.84 0 0 1 39.808-95.36 134.528 134.528 0 0 1 95.36-39.808h111.616V833.92zM838.4 186.24a196.736 196.736 0 0 0-139.072-57.6H580.48a4.736 4.736 0 0 0-4.8 4.8v757.12c-0.64 3.008 1.792 5.44 5.376 5.44h118.272A196.672 196.672 0 0 0 896 699.328V325.312c0-52.16-20.736-102.208-57.6-139.072z m-111.36 441.92c-42.816 0-77.76-35.008-77.76-77.824 0-42.88 34.944-77.824 77.824-77.824 42.816 0 77.824 34.944 77.824 77.824 0 42.816-35.008 77.824-77.824 77.824z" fill="#383838" p-id="5514"></path></svg>