<?xml version="1.0" standalone="no"?><!DOCTYPE svg PUBLIC "-//W3C//DTD SVG 1.1//EN" "http://www.w3.org/Graphics/SVG/1.1/DTD/svg11.dtd"><svg viewBox="0 0 1024 1024" version="1.1" xmlns="http://www.w3.org/2000/svg" width="200" height="200" t="1775110619698" class="icon" p-id="47150376" xmlns:xlink="http://www.w3.org/1999/xlink"><path d="M128 85.333333a42.666667 42.666667 0 0 0-42.666667 42.666667v128a42.666667 42.666667 0 0 0 12.501334 30.165333l490.666666 490.666667a42.666667 42.666667 0 0 0 60.330667 0 42.666667 42.666667 0 0 0 0-60.330667L170.666667 238.336V170.666667h67.669333l478.165333 478.165333a42.666667 42.666667 0 0 0 60.330667 0 42.666667 42.666667 0 0 0 0-60.330667l-490.666667-490.666666A42.666667 42.666667 0 0 0 256 85.333333z" fill="#000000" p-id="47150377"/><path d="M780.501333 524.501333l-256 256a42.666667 42.666667 0 0 0 0 60.330667 42.666667 42.666667 0 0 0 60.330667 0l256-256a42.666667 42.666667 0 0 0 0-60.330667 42.666667 42.666667 0 0 0-60.330667 0z" fill="#000000" p-id="47150378"/><path d="M652.501333 652.501333a42.666667 42.666667 0 0 0 0 60.330667l170.666667 170.666667a42.666667 42.666667 0 0 0 60.330667 0 42.666667 42.666667 0 0 0 0-60.330667l-170.666667-170.666667a42.666667 42.666667 0 0 0-60.330667 0z" fill="#000000" p-id="47150379"/><path d="M865.834667 780.501333l-85.333334 85.333334a42.666667 42.666667 0 0 0 0 60.330666 42.666667 42.666667 0 0 0 60.330667 0l85.333333-85.333333a42.666667 42.666667 0 0 0 0-60.330667 42.666667 42.666667 0 0 0-60.330666 0zM768 85.333333a42.666667 42.666667 0 0 0-30.165333 12.501334l-149.333334 149.333333a42.666667 42.666667 0 0 0 0 60.330667 42.666667 42.666667 0 0 0 60.330667 0L785.664 170.666667H853.333333v67.669333l-136.832 136.832a42.666667 42.666667 0 0 0 0 60.330667 42.666667 42.666667 0 0 0 60.330667 0l149.333333-149.333334A42.666667 42.666667 0 0 0 938.666667 256V128a42.666667 42.666667 0 0 0-42.666667-42.666667zM213.333333 554.666667a42.666667 42.666667 0 0 0-30.165333 12.501333 42.666667 42.666667 0 0 0 0 60.330667l170.666667 170.666666a42.666667 42.666667 0 0 0 60.330666 0 42.666667 42.666667 0 0 0 0-60.330666l-170.666666-170.666667A42.666667 42.666667 0 0 0 213.333333 554.666667z" fill="#000000" p-id="47150380"/><path d="M298.666667 682.666667a42.666667 42.666667 0 0 0-30.165334 12.501333l-128 128a42.666667 42.666667 0 0 0 0 60.330667 42.666667 42.666667 0 0 0 60.330667 0l128-128a42.666667 42.666667 0 0 0 0-60.330667A42.666667 42.666667 0 0 0 298.666667 682.666667z" fill="#000000" p-id="47150381"/><path d="M97.834667 780.501333a42.666667 42.666667 0 0 0 0 60.330667l85.333333 85.333333a42.666667 42.666667 0 0 0 60.330667 0 42.666667 42.666667 0 0 0 0-60.330666l-85.333334-85.333334a42.666667 42.666667 0 0 0-60.330666 0z" fill="#000000" p-id="47150382"/></svg>