<?xml version="1.0" standalone="no"?><!DOCTYPE svg PUBLIC "-//W3C//DTD SVG 1.1//EN" "http://www.w3.org/Graphics/SVG/1.1/DTD/svg11.dtd"><svg viewBox="0 0 1024 1024" version="1.1" xmlns="http://www.w3.org/2000/svg" width="200" height="200" t="1775110619698" class="icon" p-id="47150371" xmlns:xlink="http://www.w3.org/1999/xlink"><path d="M213.333333 298.666667c-70.186667 0-128 57.813333-128 128v426.666666c0 70.186667 57.813333 128 128 128h256c70.186667 0 128-57.813333 128-128V426.666667c0-70.186667-57.813333-128-128-128z m0 85.333333h256c24.362667 0 42.666667 18.304 42.666667 42.666667v426.666666c0 24.362667-18.304 42.666667-42.666667 42.666667H213.333333c-24.362667 0-42.666667-18.304-42.666666-42.666667V426.666667c0-24.362667 18.304-42.666667 42.666666-42.666667z" fill="#000000" p-id="47150372"/><path d="M298.666667 42.666667C228.48 42.666667 170.666667 100.48 170.666667 170.666667a42.666667 42.666667 0 0 0 42.666666 42.666666 42.666667 42.666667 0 0 0 42.666667-42.666666c0-24.064 18.602667-42.666667 42.666667-42.666667h512c24.064 0 42.666667 18.602667 42.666666 42.666667v682.666666c0 24.064-18.602667 42.666667-42.666666 42.666667h-102.4a42.666667 42.666667 0 0 0-42.666667 42.666667 42.666667 42.666667 0 0 0 42.666667 42.666666H810.666667c70.186667 0 128-57.813333 128-128V170.666667c0-70.186667-57.813333-128-128-128zM341.333333 725.333333a42.666667 42.666667 0 0 0-42.666666 42.666667 42.666667 42.666667 0 0 0 42.666666 42.666667h0.426667a42.666667 42.666667 0 0 0 42.666667-42.666667 42.666667 42.666667 0 0 0-42.666667-42.666667z" fill="#000000" p-id="47150373"/></svg>