<?xml version="1.0" standalone="no"?><!DOCTYPE svg PUBLIC "-//W3C//DTD SVG 1.1//EN" "http://www.w3.org/Graphics/SVG/1.1/DTD/svg11.dtd"><svg viewBox="0 0 1024 1024" version="1.1" xmlns="http://www.w3.org/2000/svg" width="200" height="200" t="1775110619698" class="icon" p-id="47150378" xmlns:xlink="http://www.w3.org/1999/xlink"><path d="M298.666667 42.666667C157.781333 42.666667 42.666667 157.781333 42.666667 298.666667s115.114667 256 256 256 256-115.114667 256-256-115.114667-256-256-256z m0 85.333333c94.762667 0 170.666667 75.904 170.666666 170.666667s-75.904 170.666667-170.666666 170.666666-170.666667-75.904-170.666667-170.666666 75.904-170.666667 170.666667-170.666667zM725.333333 469.333333c-140.885333 0-256 115.114667-256 256s115.114667 256 256 256 256-115.114667 256-256-115.114667-256-256-256z m0 85.333334c94.762667 0 170.666667 75.904 170.666667 170.666666s-75.904 170.666667-170.666667 170.666667-170.666667-75.904-170.666666-170.666667 75.904-170.666667 170.666666-170.666666z" fill="#000000" p-id="47150379"/><path d="M512 682.666667a42.666667 42.666667 0 0 0-42.666667 42.666666 42.666667 42.666667 0 0 0 42.666667 42.666667h426.666667a42.666667 42.666667 0 0 0 42.666666-42.666667 42.666667 42.666667 0 0 0-42.666666-42.666666zM449.706667 104.96a42.666667 42.666667 0 0 0-30.208 12.458667l-302.08 302.08a42.666667 42.666667 0 0 0 0 60.416 42.666667 42.666667 0 0 0 60.416 0l302.08-302.08a42.666667 42.666667 0 0 0 0-60.416 42.666667 42.666667 0 0 0-30.250667-12.416z" fill="#000000" p-id="47150380"/></svg>