<?xml version="1.0" standalone="no"?><!DOCTYPE svg PUBLIC "-//W3C//DTD SVG 1.1//EN" "http://www.w3.org/Graphics/SVG/1.1/DTD/svg11.dtd"><svg viewBox="0 0 1024 1024" version="1.1" xmlns="http://www.w3.org/2000/svg" width="200" height="200" t="1775110619698" class="icon" p-id="47150375" xmlns:xlink="http://www.w3.org/1999/xlink"><path d="M597.333333 554.666667a42.666667 42.666667 0 0 0-42.666666 42.666666v85.333334a42.666667 42.666667 0 0 0 42.666666 42.666666 42.666667 42.666667 0 0 0 42.666667-42.666666v-85.333334a42.666667 42.666667 0 0 0-42.666667-42.666666zM597.333333 810.666667a42.666667 42.666667 0 0 0-42.666666 42.666666v85.333334a42.666667 42.666667 0 0 0 42.666666 42.666666 42.666667 42.666667 0 0 0 42.666667-42.666666v-85.333334a42.666667 42.666667 0 0 0-42.666667-42.666666zM597.333333 42.666667a42.666667 42.666667 0 0 0-42.666666 42.666666v85.333334a42.666667 42.666667 0 0 0 42.666666 42.666666 42.666667 42.666667 0 0 0 42.666667-42.666666V85.333333a42.666667 42.666667 0 0 0-42.666667-42.666666zM597.333333 298.666667a42.666667 42.666667 0 0 0-42.666666 42.666666v85.333334a42.666667 42.666667 0 0 0 42.666666 42.666666 42.666667 42.666667 0 0 0 42.666667-42.666666V341.333333a42.666667 42.666667 0 0 0-42.666667-42.666666zM85.333333 597.333333a42.666667 42.666667 0 0 0-42.666666 42.666667 42.666667 42.666667 0 0 0 42.666666 42.666667h341.333334a42.666667 42.666667 0 0 0 42.666666-42.666667 42.666667 42.666667 0 0 0-42.666666-42.666667z" fill="#000000" p-id="47150376"/><path d="M85.333333 85.333333a42.666667 42.666667 0 0 0-42.666666 42.666667 42.666667 42.666667 0 0 0 42.666666 42.666667h256c24.064 0 42.666667 18.602667 42.666667 42.666666v597.333334c0 24.064-18.602667 42.666667-42.666667 42.666666H85.333333a42.666667 42.666667 0 0 0-42.666666 42.666667 42.666667 42.666667 0 0 0 42.666666 42.666667h256c70.186667 0 128-57.813333 128-128V213.333333c0-70.186667-57.813333-128-128-128z" fill="#000000" p-id="47150377"/><path d="M85.333333 341.333333a42.666667 42.666667 0 0 0-42.666666 42.666667 42.666667 42.666667 0 0 0 42.666666 42.666667h341.333334a42.666667 42.666667 0 0 0 42.666666-42.666667 42.666667 42.666667 0 0 0-42.666666-42.666667zM768 597.333333a42.666667 42.666667 0 0 0-42.666667 42.666667 42.666667 42.666667 0 0 0 42.666667 42.666667h170.666667a42.666667 42.666667 0 0 0 42.666666-42.666667 42.666667 42.666667 0 0 0-42.666666-42.666667z" fill="#000000" p-id="47150378"/><path d="M853.333333 85.333333c-70.186667 0-128 57.813333-128 128v597.333334c0 70.186667 57.813333 128 128 128h85.333334a42.666667 42.666667 0 0 0 42.666666-42.666667 42.666667 42.666667 0 0 0-42.666666-42.666667h-85.333334c-24.064 0-42.666667-18.602667-42.666666-42.666666V213.333333c0-24.064 18.602667-42.666667 42.666666-42.666666h85.333334a42.666667 42.666667 0 0 0 42.666666-42.666667 42.666667 42.666667 0 0 0-42.666666-42.666667z" fill="#000000" p-id="47150379"/><path d="M768 341.333333a42.666667 42.666667 0 0 0-42.666667 42.666667 42.666667 42.666667 0 0 0 42.666667 42.666667h170.666667a42.666667 42.666667 0 0 0 42.666666-42.666667 42.666667 42.666667 0 0 0-42.666666-42.666667zM213.333333 85.333333a42.666667 42.666667 0 0 0-42.666666 42.666667v768a42.666667 42.666667 0 0 0 42.666666 42.666667 42.666667 42.666667 0 0 0 42.666667-42.666667V128a42.666667 42.666667 0 0 0-42.666667-42.666667z" fill="#000000" p-id="47150380"/></svg>