<?xml version="1.0" encoding="UTF-8"?>
<svg class="icon" viewBox="0 0 1024 1024" version="1.1" xmlns="http://www.w3.org/2000/svg" p-id="4671" width="1024" height="1024"><path d="M595.2 128H320a192 192 0 0 0-192 192v576h384V352c0-90.496 32.448-171.2 83.2-224z m140.8-64C859.712 64 960 192.96 960 352S859.712 640 736 640H576v320H64V320a256 256 0 0 1 256-256h416zM576 352V576h160C820.352 576 896 478.72 896 352S820.352 128 736 128 576 225.28 576 352z" fill="#383838" p-id="4672"></path><path d="M736 448c-35.328 0-64-43.008-64-96s28.672-96 64-96 64 43.008 64 96-28.672 96-64 96z" fill="#383838" p-id="4673"></path></svg>