<?xml version="1.0" encoding="UTF-8"?>
<svg class="icon" viewBox="0 0 1024 1024" version="1.1" xmlns="http://www.w3.org/2000/svg" p-id="5490" width="1024" height="1024"><path d="M764.416 254.72a351.616 351.616 0 0 1 86.336 149.184H960v192.064h-109.248a351.68 351.68 0 0 1-86.336 149.312l54.72 94.72-166.272 96-54.592-94.72a352.64 352.64 0 0 1-172.48 0l-54.656 94.72-166.272-96 54.72-94.72a351.68 351.68 0 0 1-86.336-149.312H64v-192h109.248a351.68 351.68 0 0 1 86.336-149.312L204.8 160 371.008 64H371.2l54.656 94.592a352.64 352.64 0 0 1 172.48 0L652.8 64h0.128L819.2 160l-54.72 94.72h-0.064zM704 499.968a192 192 0 1 0-384 0 192 192 0 0 0 384 0z" fill="#383838" p-id="5491"></path></svg>