<?xml version="1.0" encoding="UTF-8"?>
<svg class="icon" viewBox="0 0 1024 1024" version="1.1" xmlns="http://www.w3.org/2000/svg" p-id="3556" width="1024" height="1024"><path d="M572.032 204.992v600.96a29.12 29.12 0 0 1-30.016 29.056 29.12 29.12 0 0 1-30.08-29.056v-600.96L292.032 438.976A26.752 26.752 0 0 1 270.976 448a27.648 27.648 0 0 1-21.504-9.536 32.64 32.64 0 0 1-8.512-22.464c0-8.64 3.008-16.32 8.96-23.04l271.04-288a26.752 26.752 0 0 1 20.992-8.96c8.64 0 15.68 3.008 20.992 8.96l271.04 288c5.952 6.72 8.96 14.4 8.96 23.04a32.64 32.64 0 0 1-8.512 22.464 27.072 27.072 0 0 1-20.992 9.536 29.44 29.44 0 0 1-21.504-8.96L572.032 204.928z" fill="#383838" p-id="3557"></path></svg>