<?xml version="1.0" standalone="no"?><!DOCTYPE svg PUBLIC "-//W3C//DTD SVG 1.1//EN" "http://www.w3.org/Graphics/SVG/1.1/DTD/svg11.dtd"><svg viewBox="0 0 1024 1024" version="1.1" xmlns="http://www.w3.org/2000/svg" width="200" height="200" t="1775110619700" class="icon" p-id="47150406" xmlns:xlink="http://www.w3.org/1999/xlink"><path d="M512 554.666667a42.666667 42.666667 0 0 0-42.666667 42.666666v256a42.666667 42.666667 0 0 0 42.666667 42.666667 42.666667 42.666667 0 0 0 42.666667-42.666667v-256a42.666667 42.666667 0 0 0-42.666667-42.666666zM838.656 554.666667a42.666667 42.666667 0 0 0-42.666667 42.666666 42.666667 42.666667 0 0 0 42.666667 42.666667H938.666667a42.666667 42.666667 0 0 0 42.666666-42.666667 42.666667 42.666667 0 0 0-42.666666-42.666666z" fill="#000000" p-id="47150407"/><path d="M85.333333 554.666667a42.666667 42.666667 0 0 0-42.666666 42.666666 42.666667 42.666667 0 0 0 42.666666 42.666667h512a42.666667 42.666667 0 0 0 42.666667-42.666667 42.666667 42.666667 0 0 0-42.666667-42.666666z" fill="#000000" p-id="47150408"/><path d="M55.168 55.168a42.666667 42.666667 0 0 0 0 60.330667l853.333333 853.333333a42.666667 42.666667 0 0 0 60.330667 0 42.666667 42.666667 0 0 0 0-60.330667l-853.333333-853.333333a42.666667 42.666667 0 0 0-60.330667 0z" fill="#000000" p-id="47150409"/><path d="M170.666667 128C100.48 128 42.666667 185.813333 42.666667 256v512c0 70.186667 57.813333 128 128 128h682.666666a42.666667 42.666667 0 0 0 42.666667-42.666667 42.666667 42.666667 0 0 0-42.666667-42.666666H170.666667c-24.064 0-42.666667-18.602667-42.666667-42.666667V256c0-24.064 18.602667-42.666667 42.666667-42.666667a42.666667 42.666667 0 0 0 42.666666-42.666666 42.666667 42.666667 0 0 0-42.666666-42.666667zM411.989333 128a42.666667 42.666667 0 0 0-42.666666 42.666667 42.666667 42.666667 0 0 0 42.666666 42.666666H853.333333c24.064 0 42.666667 18.602667 42.666667 42.666667v441.344a42.666667 42.666667 0 0 0 42.666667 42.666667 42.666667 42.666667 0 0 0 42.666666-42.666667V256c0-70.186667-57.813333-128-128-128z" fill="#000000" p-id="47150410"/></svg>