<?xml version="1.0" standalone="no"?><!DOCTYPE svg PUBLIC "-//W3C//DTD SVG 1.1//EN" "http://www.w3.org/Graphics/SVG/1.1/DTD/svg11.dtd"><svg viewBox="0 0 1024 1024" version="1.1" xmlns="http://www.w3.org/2000/svg" width="200" height="200" t="1775110619700" class="icon" p-id="47150416" xmlns:xlink="http://www.w3.org/1999/xlink"><path d="M170.666667 213.333333a42.666667 42.666667 0 0 0-40.96 54.4l76.714666 267.605334v-0.341334A85.632 85.632 0 0 0 287.402667 597.333333a42.666667 42.666667 0 0 0 0.597333 0h448a42.666667 42.666667 0 0 0 0.085333 0 85.802667 85.802667 0 0 0 82.005334-62.293333 42.666667 42.666667 0 0 0-0.170667-0.853333l76.373333-266.453334A42.666667 42.666667 0 0 0 853.333333 213.333333z m56.661333 85.333334h569.344l-61.184 213.077333a42.666667 42.666667 0 0 0 0.085333 0.256H288.597333a42.666667 42.666667 0 0 0-0.085333-0.256z" fill="#000000" p-id="47150417"/><path d="M341.333333 512a42.666667 42.666667 0 0 0-42.666666 42.666667v384a42.666667 42.666667 0 0 0 42.666666 42.666666 42.666667 42.666667 0 0 0 42.666667-42.666666v-384a42.666667 42.666667 0 0 0-42.666667-42.666667zM682.666667 512a42.666667 42.666667 0 0 0-42.666667 42.666667v384a42.666667 42.666667 0 0 0 42.666667 42.666666 42.666667 42.666667 0 0 0 42.666666-42.666666v-384a42.666667 42.666667 0 0 0-42.666666-42.666667z" fill="#000000" p-id="47150418"/><path d="M378.026667 213.76a42.666667 42.666667 0 0 0-36.266667 48.213333l42.666667 298.666667a42.666667 42.666667 0 0 0 48.213333 36.266667 42.666667 42.666667 0 0 0 36.266667-48.213334l-42.666667-298.666666a42.666667 42.666667 0 0 0-48.213333-36.266667zM645.973333 213.76a42.666667 42.666667 0 0 0-48.213333 36.266667l-42.666667 298.666666a42.666667 42.666667 0 0 0 36.266667 48.213334 42.666667 42.666667 0 0 0 48.213333-36.266667l42.666667-298.666667a42.666667 42.666667 0 0 0-36.266667-48.213333zM512 42.666667a42.666667 42.666667 0 0 0-42.666667 42.666666v170.666667a42.666667 42.666667 0 0 0 42.666667 42.666667 42.666667 42.666667 0 0 0 42.666667-42.666667V85.333333a42.666667 42.666667 0 0 0-42.666667-42.666666z" fill="#000000" p-id="47150419"/><path d="M469.333333 42.666667a42.666667 42.666667 0 0 0-42.666666 42.666666 42.666667 42.666667 0 0 0 42.666666 42.666667h85.333334a42.666667 42.666667 0 0 0 42.666666-42.666667 42.666667 42.666667 0 0 0-42.666666-42.666666z" fill="#000000" p-id="47150420"/></svg>