<?xml version="1.0" standalone="no"?><!DOCTYPE svg PUBLIC "-//W3C//DTD SVG 1.1//EN" "http://www.w3.org/Graphics/SVG/1.1/DTD/svg11.dtd"><svg viewBox="0 0 1024 1024" version="1.1" xmlns="http://www.w3.org/2000/svg" width="200" height="200" t="1775110619701" class="icon" p-id="47150424" xmlns:xlink="http://www.w3.org/1999/xlink"><path d="M938.666667 426.666667a42.666667 42.666667 0 0 0-42.666667 42.666666v213.333334h-213.333333a42.666667 42.666667 0 0 0-42.666667 42.666666 42.666667 42.666667 0 0 0 42.666667 42.666667h256a42.666667 42.666667 0 0 0 42.666666-42.666667v-256a42.666667 42.666667 0 0 0-42.666666-42.666666z" fill="#000000" p-id="47150425"/><path d="M55.168 268.501333a42.666667 42.666667 0 0 0 0 60.330667l277.333333 277.333333a42.666667 42.666667 0 0 0 60.330667 0L576 422.997333l332.501333 332.501334a42.666667 42.666667 0 0 0 60.330667 0 42.666667 42.666667 0 0 0 0-60.330667l-362.666667-362.666667a42.666667 42.666667 0 0 0-60.330666 0L362.666667 515.669333 115.498667 268.501333a42.666667 42.666667 0 0 0-60.330667 0z" fill="#000000" p-id="47150426"/></svg>