<?xml version="1.0" standalone="no"?><!DOCTYPE svg PUBLIC "-//W3C//DTD SVG 1.1//EN" "http://www.w3.org/Graphics/SVG/1.1/DTD/svg11.dtd"><svg viewBox="0 0 1024 1024" version="1.1" xmlns="http://www.w3.org/2000/svg" width="200" height="200" t="1775110619701" class="icon" p-id="47150431" xmlns:xlink="http://www.w3.org/1999/xlink"><path d="M632.661333 589.994667a42.666667 42.666667 0 0 0-30.165333 12.501333 42.666667 42.666667 0 0 0 0 60.330667l263.338667 263.338666a42.666667 42.666667 0 0 0 60.330666 0 42.666667 42.666667 0 0 0 0-60.330666l-263.338666-263.338667a42.666667 42.666667 0 0 0-30.165334-12.501333z" fill="#000000" p-id="47150432"/><path d="M896 640a42.666667 42.666667 0 0 0-42.666667 42.666667v170.666666h-170.666666a42.666667 42.666667 0 0 0-42.666667 42.666667 42.666667 42.666667 0 0 0 42.666667 42.666667h213.333333a42.666667 42.666667 0 0 0 42.666667-42.666667v-213.333333a42.666667 42.666667 0 0 0-42.666667-42.666667zM865.834667 97.834667L512 451.669333 371.498667 311.168a42.666667 42.666667 0 0 0-60.330667 0l-256 256a42.666667 42.666667 0 0 0 0 60.330667 42.666667 42.666667 0 0 0 60.330667 0L341.333333 401.664l140.501334 140.501333a42.666667 42.666667 0 0 0 60.330666 0l384-384a42.666667 42.666667 0 0 0 0-60.330666 42.666667 42.666667 0 0 0-60.330666 0z" fill="#000000" p-id="47150433"/><path d="M682.666667 85.333333a42.666667 42.666667 0 0 0-42.666667 42.666667 42.666667 42.666667 0 0 0 42.666667 42.666667h170.666666v170.666666a42.666667 42.666667 0 0 0 42.666667 42.666667 42.666667 42.666667 0 0 0 42.666667-42.666667V128a42.666667 42.666667 0 0 0-42.666667-42.666667z" fill="#000000" p-id="47150434"/></svg>