<?xml version="1.0" standalone="no"?><!DOCTYPE svg PUBLIC "-//W3C//DTD SVG 1.1//EN" "http://www.w3.org/Graphics/SVG/1.1/DTD/svg11.dtd"><svg viewBox="0 0 1024 1024" version="1.1" xmlns="http://www.w3.org/2000/svg" width="200" height="200" t="1775110619701" class="icon" p-id="47150423" xmlns:xlink="http://www.w3.org/1999/xlink"><path d="M170.666667 128C100.48 128 42.666667 185.813333 42.666667 256v469.333333c0 46.634667 38.698667 85.333333 85.333333 85.333334h85.333333a42.666667 42.666667 0 0 0 42.666667-42.666667 42.666667 42.666667 0 0 0-42.666667-42.666667H128V256c0-24.064 18.602667-42.666667 42.666667-42.666667h341.333333c24.064 0 42.666667 18.602667 42.666667 42.666667v512a42.666667 42.666667 0 0 0 42.666666 42.666667 42.666667 42.666667 0 0 0 42.666667-42.666667V256c0-70.186667-57.813333-128-128-128z" fill="#000000" p-id="47150424"/><path d="M384 725.333333a42.666667 42.666667 0 0 0-42.666667 42.666667 42.666667 42.666667 0 0 0 42.666667 42.666667h256a42.666667 42.666667 0 0 0 42.666667-42.666667 42.666667 42.666667 0 0 0-42.666667-42.666667zM597.333333 298.666667a42.666667 42.666667 0 0 0-42.666666 42.666666 42.666667 42.666667 0 0 0 42.666666 42.666667h150.186667L896 569.685333V725.333333h-85.333333a42.666667 42.666667 0 0 0-42.666667 42.666667 42.666667 42.666667 0 0 0 42.666667 42.666667h85.333333c46.634667 0 85.333333-38.698667 85.333333-85.333334v-155.733333a42.666667 42.666667 0 0 0 0-0.085333 85.333333 85.333333 0 0 0-18.773333-53.162667V516.266667l-148.48-185.514667A85.461333 85.461333 0 0 0 747.562667 298.666667a42.666667 42.666667 0 0 0-0.085334 0z" fill="#000000" p-id="47150425"/><path d="M725.333333 640c-70.186667 0-128 57.813333-128 128s57.813333 128 128 128 128-57.813333 128-128-57.813333-128-128-128z m0 85.333333c24.064 0 42.666667 18.602667 42.666667 42.666667 0 24.064-18.602667 42.666667-42.666667 42.666667-24.064 0-42.666667-18.602667-42.666666-42.666667 0-24.064 18.602667-42.666667 42.666666-42.666667zM298.666667 640c-70.186667 0-128 57.813333-128 128s57.813333 128 128 128 128-57.813333 128-128-57.813333-128-128-128z m0 85.333333c24.064 0 42.666667 18.602667 42.666666 42.666667 0 24.064-18.602667 42.666667-42.666666 42.666667-24.064 0-42.666667-18.602667-42.666667-42.666667 0-24.064 18.602667-42.666667 42.666667-42.666667z" fill="#000000" p-id="47150426"/></svg>