<?xml version="1.0" standalone="no"?><!DOCTYPE svg PUBLIC "-//W3C//DTD SVG 1.1//EN" "http://www.w3.org/Graphics/SVG/1.1/DTD/svg11.dtd"><svg viewBox="0 0 1024 1024" version="1.1" xmlns="http://www.w3.org/2000/svg" width="200" height="200" t="1775110619701" class="icon" p-id="47150425" xmlns:xlink="http://www.w3.org/1999/xlink"><path d="M128 42.666667a42.666667 42.666667 0 0 0-42.666667 42.666666v682.666667a42.666667 42.666667 0 0 0 42.666667 42.666667h170.666667v128a42.666667 42.666667 0 0 0 72.832 30.165333L529.664 810.666667H725.333333a42.666667 42.666667 0 0 0 30.165334-12.501334l170.666666-170.666666A42.666667 42.666667 0 0 0 938.666667 597.333333V85.333333a42.666667 42.666667 0 0 0-42.666667-42.666666z m42.666667 85.333333h682.666666v451.669333L707.669333 725.333333H512a42.666667 42.666667 0 0 0-30.165333 12.501334L384 835.669333V768a42.666667 42.666667 0 0 0-42.666667-42.666667H170.666667z m298.666666 128a42.666667 42.666667 0 0 0-42.666666 42.666667v170.666666a42.666667 42.666667 0 0 0 42.666666 42.666667 42.666667 42.666667 0 0 0 42.666667-42.666667V298.666667a42.666667 42.666667 0 0 0-42.666667-42.666667z m213.333334 0a42.666667 42.666667 0 0 0-42.666667 42.666667v170.666666a42.666667 42.666667 0 0 0 42.666667 42.666667 42.666667 42.666667 0 0 0 42.666666-42.666667V298.666667a42.666667 42.666667 0 0 0-42.666666-42.666667z" fill="#000000" p-id="47150426"/></svg>