<?xml version="1.0" standalone="no"?><!DOCTYPE svg PUBLIC "-//W3C//DTD SVG 1.1//EN" "http://www.w3.org/Graphics/SVG/1.1/DTD/svg11.dtd"><svg viewBox="0 0 1024 1024" version="1.1" xmlns="http://www.w3.org/2000/svg" width="200" height="200" t="1775110619701" class="icon" p-id="47150442" xmlns:xlink="http://www.w3.org/1999/xlink"><path d="M256 128c-46.506667 0-85.333333 38.826667-85.333333 85.333333v170.666667c0 46.506667 38.826667 85.333333 85.333333 85.333333h256c46.506667 0 85.333333-38.826667 85.333333-85.333333V213.333333c0-46.506667-38.826667-85.333333-85.333333-85.333333z m0 85.333333h256v170.666667H256zM512 554.666667c-46.506667 0-85.333333 38.826667-85.333333 85.333333v170.666667c0 46.506667 38.826667 85.333333 85.333333 85.333333h256c46.506667 0 85.333333-38.826667 85.333333-85.333333v-170.666667c0-46.506667-38.826667-85.333333-85.333333-85.333333z m0 85.333333h256v170.666667h-256z" fill="#000000" p-id="47150443"/></svg>