<?xml version="1.0" standalone="no"?><!DOCTYPE svg PUBLIC "-//W3C//DTD SVG 1.1//EN" "http://www.w3.org/Graphics/SVG/1.1/DTD/svg11.dtd"><svg viewBox="0 0 1024 1024" version="1.1" xmlns="http://www.w3.org/2000/svg" width="200" height="200" t="1775110619702" class="icon" p-id="47150448" xmlns:xlink="http://www.w3.org/1999/xlink"><path d="M298.666667 256c-81.792 0-148.522667 32.213333-191.914667 80.981333C63.36 385.792 42.666667 449.194667 42.666667 512c0 62.805333 20.693333 126.208 64.085333 175.018667C150.144 735.786667 216.874667 768 298.666667 768h85.333333a42.666667 42.666667 0 0 0 42.666667-42.666667 42.666667 42.666667 0 0 0-42.666667-42.666666H298.666667c-60.458667 0-100.352-21.12-128.085334-52.352C142.848 599.168 128 555.861333 128 512s14.848-87.125333 42.581333-118.314667C198.314667 362.453333 238.208 341.333333 298.666667 341.333333h85.333333a42.666667 42.666667 0 0 0 42.666667-42.666666 42.666667 42.666667 0 0 0-42.666667-42.666667z m341.333333 0a42.666667 42.666667 0 0 0-42.666667 42.666667 42.666667 42.666667 0 0 0 42.666667 42.666666h85.333333c94.762667 0 170.666667 75.904 170.666667 170.666667s-75.904 170.666667-170.666667 170.666667h-85.333333a42.666667 42.666667 0 0 0-42.666667 42.666666 42.666667 42.666667 0 0 0 42.666667 42.666667h85.333333c140.885333 0 256-115.114667 256-256s-115.114667-256-256-256z" fill="#000000" p-id="47150449"/></svg>