<?xml version="1.0" encoding="UTF-8"?>
<svg class="icon" viewBox="0 0 1024 1024" version="1.1" xmlns="http://www.w3.org/2000/svg" p-id="5424" width="1024" height="1024"><path d="M288 320c1.344 63.36 23.168 116.16 65.536 158.464C395.776 520.896 448.64 542.72 512 544c63.36-1.344 116.16-23.168 158.464-65.536C712.896 436.224 734.72 383.36 736 320c-1.344-63.36-23.168-116.16-65.536-158.528C628.224 119.232 575.36 97.344 512 96c-63.36 1.344-116.16 23.168-158.464 65.472C311.168 203.84 289.28 256.64 288 320z m544 608H160a31.168 31.168 0 0 1-23.04-8.96A31.168 31.168 0 0 1 128 896v-96c1.344-45.312 17.024-83.008 47.04-112.96 29.952-30.08 67.648-45.696 112.96-47.04h448c45.312 1.344 83.008 17.024 112.96 47.04 30.08 29.952 45.696 67.648 47.04 112.96V896a31.168 31.168 0 0 1-8.96 23.04 31.168 31.168 0 0 1-23.04 8.96H832z" fill="#383838" p-id="5425"></path></svg>