<?xml version="1.0" standalone="no"?><!DOCTYPE svg PUBLIC "-//W3C//DTD SVG 1.1//EN" "http://www.w3.org/Graphics/SVG/1.1/DTD/svg11.dtd"><svg viewBox="0 0 1024 1024" version="1.1" xmlns="http://www.w3.org/2000/svg" width="200" height="200" t="1775110619708" class="icon" p-id="47150563" xmlns:xlink="http://www.w3.org/1999/xlink"><path d="M426.666667 810.666667a42.666667 42.666667 0 0 0-42.666667 42.666666 42.666667 42.666667 0 0 0 42.666667 42.666667h170.666666a42.666667 42.666667 0 0 0 42.666667-42.666667 42.666667 42.666667 0 0 0-42.666667-42.666666z" fill="#000000" p-id="47150564"/><path d="M512 640a42.666667 42.666667 0 0 0-42.666667 42.666667v256a42.666667 42.666667 0 0 0 42.666667 42.666666 42.666667 42.666667 0 0 0 42.666667-42.666666v-256a42.666667 42.666667 0 0 0-42.666667-42.666667zM725.333333 42.666667a42.666667 42.666667 0 0 0-42.666666 42.666666 42.666667 42.666667 0 0 0 42.666666 42.666667h128v128a42.666667 42.666667 0 0 0 42.666667 42.666667 42.666667 42.666667 0 0 0 42.666667-42.666667V85.333333a42.666667 42.666667 0 0 0-42.666667-42.666666z" fill="#000000" p-id="47150565"/><path d="M865.834667 55.168l-233.002667 232.917333a42.666667 42.666667 0 0 0 0 60.416 42.666667 42.666667 0 0 0 60.416 0l232.917333-233.002666a42.666667 42.666667 0 0 0 0-60.330667 42.666667 42.666667 0 0 0-60.330666 0z" fill="#000000" p-id="47150566"/><path d="M512 213.333333c-140.885333 0-256 115.114667-256 256s115.114667 256 256 256 256-115.114667 256-256-115.114667-256-256-256z m0 85.333334c94.762667 0 170.666667 75.904 170.666667 170.666666s-75.904 170.666667-170.666667 170.666667-170.666667-75.904-170.666667-170.666667 75.904-170.666667 170.666667-170.666666z" fill="#000000" p-id="47150567"/></svg>