<?xml version="1.0" encoding="UTF-8"?>
<svg class="icon" viewBox="0 0 1024 1024" version="1.1" xmlns="http://www.w3.org/2000/svg" p-id="5501" width="1024" height="1024"><path d="M768 576l192-64v320l-192-64v96a32 32 0 0 1-32 32h-640a32 32 0 0 1-32-32v-384a32 32 0 0 1 32-32h640a32 32 0 0 1 32 32V576z m-576 192v64h384v-64H192z m192-480a160 160 0 1 1 320 0 160 160 0 0 1-320 0z m64 0a96 96 0 1 0 192.064-0.064A96 96 0 0 0 448 288zM128 320a128 128 0 1 1 256.064 0.064A128 128 0 0 1 128 320z m64 0a64 64 0 1 0 128 0 64 64 0 0 0-128 0z" fill="#383838" p-id="5502"></path></svg>