<?xml version="1.0" standalone="no"?><!DOCTYPE svg PUBLIC "-//W3C//DTD SVG 1.1//EN" "http://www.w3.org/Graphics/SVG/1.1/DTD/svg11.dtd"><svg viewBox="0 0 1024 1024" version="1.1" xmlns="http://www.w3.org/2000/svg" width="200" height="200" t="1775110619703" class="icon" p-id="47150466" xmlns:xlink="http://www.w3.org/1999/xlink"><path d="M454.826667 213.333333a42.666667 42.666667 0 0 0-42.666667 42.666667 42.666667 42.666667 0 0 0 42.666667 42.666667H597.333333c24.064 0 42.666667 18.602667 42.666667 42.666666v106.666667a42.666667 42.666667 0 0 0 64.170667 36.821333L896 372.906667v312.576a42.666667 42.666667 0 0 0 42.666667 42.666666 42.666667 42.666667 0 0 0 42.666666-42.666666V335.786667c-0.042667-47.274667-55.381333-79.104-96.256-55.253334L725.333333 373.76V341.333333c0-70.186667-57.813333-128-128-128zM170.666667 213.333333C100.48 213.333333 42.666667 271.146667 42.666667 341.333333v341.333334c0 70.186667 57.813333 128 128 128h426.666666c70.186667 0 128-57.813333 128-128a42.666667 42.666667 0 0 0-42.666666-42.666667 42.666667 42.666667 0 0 0-42.666667 42.666667c0 24.064-18.602667 42.666667-42.666667 42.666666H170.666667c-24.064 0-42.666667-18.602667-42.666667-42.666666V341.333333c0-24.064 18.602667-42.666667 42.666667-42.666666h85.333333a42.666667 42.666667 0 0 0 42.666667-42.666667 42.666667 42.666667 0 0 0-42.666667-42.666667z" fill="#000000" p-id="47150467"/><path d="M55.168 55.168a42.666667 42.666667 0 0 0 0 60.330667l853.333333 853.333333a42.666667 42.666667 0 0 0 60.330667 0 42.666667 42.666667 0 0 0 0-60.330667l-853.333333-853.333333a42.666667 42.666667 0 0 0-60.330667 0z" fill="#000000" p-id="47150468"/></svg>