<?xml version="1.0" encoding="UTF-8"?>
<svg class="icon" viewBox="0 0 1024 1024" version="1.1" xmlns="http://www.w3.org/2000/svg" p-id="3457" width="1024" height="1024"><path d="M512 64a448 448 0 1 1 0 896A448 448 0 0 1 512 64z m0 832A384 384 0 1 0 512 128a384 384 0 0 0 0 768zM416 352c21.312 0 32 10.688 32 32v256c0 21.312-10.688 32-32 32-21.312 0-32-10.688-32-32V384c0-21.312 10.688-32 32-32z m192 0c21.312 0 32 10.688 32 32v256c0 21.312-10.688 32-32 32-21.312 0-32-10.688-32-32V384c0-21.312 10.688-32 32-32z" fill="#383838" p-id="3458"></path></svg>