<?xml version="1.0" encoding="UTF-8"?>
<svg class="icon" viewBox="0 0 1024 1024" version="1.1" xmlns="http://www.w3.org/2000/svg" p-id="4866" width="1024" height="1024"><path d="M640 288H576V128H128v704h384v32a32 32 0 0 0 32 32h-448a32 32 0 0 1-32-32v-768a32 32 0 0 1 32-32h512a32 32 0 0 1 32 32v192z" fill="#383838" p-id="4867"></path><path d="M128 320v512h768V320H128z m-32-64h832a32 32 0 0 1 32 32v576a32 32 0 0 1-32 32h-832a32 32 0 0 1-32-32v-576a32 32 0 0 1 32-32z" fill="#383838" p-id="4868"></path><path d="M704 640a64 64 0 1 1 0-128 64 64 0 0 1 0 128z" fill="#383838" p-id="4869"></path></svg>