<?xml version="1.0" encoding="UTF-8"?>
<svg class="icon" viewBox="0 0 1024 1024" version="1.1" xmlns="http://www.w3.org/2000/svg" p-id="5446" width="1024" height="1024"><path d="M512 64c126.72 3.328 232.192 47.168 316.48 131.456C912.832 279.872 956.672 385.344 960 512c-3.328 126.72-47.168 232.192-131.52 316.48C744.192 912.832 638.72 956.672 512 960c-126.72-3.328-232.192-47.168-316.544-131.52C111.232 744.192 67.392 638.72 64 512c3.328-126.72 47.168-232.192 131.456-316.544C279.872 111.232 385.344 67.392 512 64z m0 192a55.168 55.168 0 0 0-43.008 19.008 58.24 58.24 0 0 0-15.04 44.992l23.04 256a34.048 34.048 0 0 0 34.944 31.04 33.664 33.664 0 0 0 23.552-8.576A36.16 36.16 0 0 0 546.944 576l23.04-256a57.984 57.984 0 0 0-15.04-44.992A55.36 55.36 0 0 0 511.936 256H512z m0 512c14.72-0.64 26.88-5.632 36.48-15.04a47.872 47.872 0 0 0 14.528-35.968 49.536 49.536 0 0 0-51.008-51.008 49.664 49.664 0 0 0-51.008 51.008c0 14.72 4.8 26.688 14.464 36.032A54.528 54.528 0 0 0 512 768z" fill="#383838" p-id="5447"></path></svg>