<?xml version="1.0" standalone="no"?><!DOCTYPE svg PUBLIC "-//W3C//DTD SVG 1.1//EN" "http://www.w3.org/Graphics/SVG/1.1/DTD/svg11.dtd"><svg viewBox="0 0 1024 1024" version="1.1" xmlns="http://www.w3.org/2000/svg" width="200" height="200" t="1775110619703" class="icon" p-id="47150468" xmlns:xlink="http://www.w3.org/1999/xlink"><path d="M451.669333 188.330667a42.666667 42.666667 0 0 0-30.165333 12.501333L200.832 421.504a42.666667 42.666667 0 0 0 0 60.330667 42.666667 42.666667 0 0 0 60.330667 0l220.672-220.672a42.666667 42.666667 0 0 0 0-60.330667 42.666667 42.666667 0 0 0-30.165334-12.501333zM762.837333 542.165333l-220.672 220.672a42.666667 42.666667 0 0 0 0 60.330667 42.666667 42.666667 0 0 0 60.330667 0l220.672-220.672a42.666667 42.666667 0 0 0 0-60.330667 42.666667 42.666667 0 0 0-60.330667 0z" fill="#000000" p-id="47150469"/><path d="M256 469.333333a42.666667 42.666667 0 0 0-42.666667 42.666667 42.666667 42.666667 0 0 0 42.666667 42.666667h512a42.666667 42.666667 0 0 0 42.666667-42.666667 42.666667 42.666667 0 0 0-42.666667-42.666667zM512 725.333333c-70.186667 0-128 57.813333-128 128s57.813333 128 128 128 128-57.813333 128-128-57.813333-128-128-128z m0 85.333334c24.064 0 42.666667 18.602667 42.666667 42.666666 0 24.064-18.602667 42.666667-42.666667 42.666667-24.064 0-42.666667-18.602667-42.666667-42.666667 0-24.064 18.602667-42.666667 42.666667-42.666666zM512 42.666667c-70.186667 0-128 57.813333-128 128s57.813333 128 128 128 128-57.813333 128-128-57.813333-128-128-128z m0 85.333333c24.064 0 42.666667 18.602667 42.666667 42.666667 0 24.064-18.602667 42.666667-42.666667 42.666666-24.064 0-42.666667-18.602667-42.666667-42.666666 0-24.064 18.602667-42.666667 42.666667-42.666667z" fill="#000000" p-id="47150470"/><path d="M853.333333 384c-70.186667 0-128 57.813333-128 128s57.813333 128 128 128 128-57.813333 128-128-57.813333-128-128-128z m0 85.333333c24.064 0 42.666667 18.602667 42.666667 42.666667 0 24.064-18.602667 42.666667-42.666667 42.666667-24.064 0-42.666667-18.602667-42.666666-42.666667 0-24.064 18.602667-42.666667 42.666666-42.666667zM170.666667 384c-70.186667 0-128 57.813333-128 128s57.813333 128 128 128 128-57.813333 128-128-57.813333-128-128-128z m0 85.333333c24.064 0 42.666667 18.602667 42.666666 42.666667 0 24.064-18.602667 42.666667-42.666666 42.666667-24.064 0-42.666667-18.602667-42.666667-42.666667 0-24.064 18.602667-42.666667 42.666667-42.666667z" fill="#000000" p-id="47150471"/></svg>