<?xml version="1.0" encoding="UTF-8"?>
<svg class="icon" viewBox="0 0 1024 1024" version="1.1" xmlns="http://www.w3.org/2000/svg" p-id="5612" width="1024" height="1024"><path d="M398.208 145.92c149.184 0 269.76 89.6 301.056 203.904l62.016-16.96c-40.192-146.752-189.824-251.2-363.072-251.2C196.352 81.664 24.704 224.64 24.704 410.176c0 97.6 48.128 184.064 122.624 243.52l-19.2 78.144a32.128 32.128 0 0 0 41.536 38.144l127.36-43.392a422.144 422.144 0 0 0 131.904 11.072l-4.544-64.128a363.776 363.776 0 0 1-120.128-11.52 32.128 32.128 0 0 0-18.816 0.64l-80.896 27.52 10.304-41.728a32.128 32.128 0 0 0-12.736-33.984c-70.08-49.28-113.088-123.136-113.088-204.288 0-141.824 134.016-264.256 309.184-264.256z" fill="#383838" p-id="5613"></path><path d="M682.688 373.504c-142.592 0-252.288 103.296-252.288 223.808 0 120.576 109.696 223.872 252.288 223.872 26.752 0 52.48-3.712 76.608-10.496a32.192 32.192 0 0 1 19.392 0.64l58.176 20.48-6.656-27.904a32.128 32.128 0 0 1 12.352-33.408c57.152-41.664 92.416-104.256 92.416-173.184 0-120.512-109.696-223.808-252.288-223.808zM366.08 597.312c0-162.24 145.024-288.128 316.608-288.128 171.52 0 316.608 125.888 316.608 288.128 0 84.416-39.808 159.552-101.76 211.712l15.552 65.28a32.128 32.128 0 0 1-41.984 37.76l-104.448-36.864c-26.752 6.72-54.912 10.24-83.968 10.24-171.584 0-316.608-125.888-316.608-288.128z" fill="#383838" p-id="5614"></path><path d="M618.688 556.8a44.8 44.8 0 1 1-89.6 0 44.8 44.8 0 0 1 89.6 0zM317.184 329.216a44.8 44.8 0 1 1-89.6 0 44.8 44.8 0 0 1 89.6 0zM829.184 556.8a44.8 44.8 0 1 1-89.6 0 44.8 44.8 0 0 1 89.6 0zM544.704 329.216a44.8 44.8 0 1 1-89.6 0 44.8 44.8 0 0 1 89.6 0z" fill="#383838" p-id="5615"></path></svg>