<?xml version="1.0" encoding="UTF-8"?>
<svg class="icon" viewBox="0 0 1024 1024" version="1.1" xmlns="http://www.w3.org/2000/svg" p-id="5524" width="1024" height="1024"><path d="M678.72 360.32c10.88 0 21.504 0.832 32.192 1.984C682.112 227.904 538.368 128 374.272 128 190.848 128 40.64 252.992 40.64 411.776c0 91.584 49.92 166.848 133.504 225.28L140.8 737.408l116.672-58.496c41.664 8.192 75.136 16.704 116.8 16.704 10.496 0 20.864-0.448 31.104-1.28a250.112 250.112 0 0 1-10.24-69.952c0-145.792 125.12-264.064 283.52-264.064zM499.392 269.888c25.216 0 41.728 16.512 41.728 41.6 0 25.024-16.512 41.728-41.728 41.728-24.96 0-50.048-16.704-50.048-41.664 0-25.152 25.024-41.664 50.048-41.664zM265.856 353.216c-25.024 0-50.24-16.704-50.24-41.664 0-25.152 25.216-41.664 50.24-41.664s41.664 16.512 41.664 41.6c0 25.024-16.64 41.728-41.6 41.728z m717.44 267.136c0-133.376-133.504-242.048-283.456-242.048-158.72 0-283.712 108.8-283.712 242.048 0 133.76 124.992 242.112 283.712 242.112 33.28 0 66.752-8.32 100.096-16.64l91.52 50.176-25.088-83.456c67.008-50.304 116.928-116.928 116.928-192.192z m-375.488-41.728c-16.512 0-33.28-16.512-33.28-33.344 0-16.64 16.768-33.344 33.28-33.344 25.344 0 41.792 16.704 41.792 33.28 0 16.896-16.448 33.408-41.792 33.408z m183.552 0c-16.448 0-33.152-16.512-33.152-33.344 0-16.64 16.64-33.344 33.152-33.344 25.088 0 41.792 16.704 41.792 33.28 0 16.896-16.64 33.408-41.792 33.408z" fill="#383838" p-id="5525"></path></svg>