<?xml version="1.0" standalone="no"?><!DOCTYPE svg PUBLIC "-//W3C//DTD SVG 1.1//EN" "http://www.w3.org/Graphics/SVG/1.1/DTD/svg11.dtd"><svg viewBox="0 0 1024 1024" version="1.1" xmlns="http://www.w3.org/2000/svg" width="200" height="200" t="1775110619704" class="icon" p-id="47150497" xmlns:xlink="http://www.w3.org/1999/xlink"><path d="M512 810.666667a42.666667 42.666667 0 0 0-42.666667 42.666666 42.666667 42.666667 0 0 0 42.666667 42.666667h0.426667a42.666667 42.666667 0 0 0 42.666666-42.666667 42.666667 42.666667 0 0 0-42.666666-42.666666zM512 384.256a467.882667 467.882667 0 0 0-328.533333 133.930667 42.666667 42.666667 0 0 0-0.64 60.330666 42.666667 42.666667 0 0 0 60.330666 0.554667 383.445333 383.445333 0 0 1 537.685334 0 42.666667 42.666667 0 0 0 60.330666-0.554667 42.666667 42.666667 0 0 0-0.682666-60.330666A467.882667 467.882667 0 0 0 512 384.213333zM512 597.589333a255.146667 255.146667 0 0 0-179.2 72.917334 42.666667 42.666667 0 0 0-0.64 60.330666 42.666667 42.666667 0 0 0 60.330667 0.597334 170.112 170.112 0 0 1 239.018666 0 42.666667 42.666667 0 0 0 60.330667-0.597334 42.666667 42.666667 0 0 0-0.682667-60.330666A255.146667 255.146667 0 0 0 512 597.546667z" fill="#000000" p-id="47150498"/></svg>