<?xml version="1.0" standalone="no"?><!DOCTYPE svg PUBLIC "-//W3C//DTD SVG 1.1//EN" "http://www.w3.org/Graphics/SVG/1.1/DTD/svg11.dtd"><svg viewBox="0 0 1024 1024" version="1.1" xmlns="http://www.w3.org/2000/svg" width="200" height="200" t="1775110619703" class="icon" p-id="47150476" xmlns:xlink="http://www.w3.org/1999/xlink"><path d="M341.333333 896a42.666667 42.666667 0 0 0-42.666666 42.666667 42.666667 42.666667 0 0 0 42.666666 42.666666h341.333334a42.666667 42.666667 0 0 0 42.666666-42.666666 42.666667 42.666667 0 0 0-42.666666-42.666667zM298.666667 384a42.666667 42.666667 0 0 0-42.666667 42.666667 42.666667 42.666667 0 0 0 42.666667 42.666666h426.666666a42.666667 42.666667 0 0 0 42.666667-42.666666 42.666667 42.666667 0 0 0-42.666667-42.666667z" fill="#000000" p-id="47150477"/><path d="M512 597.333333a42.666667 42.666667 0 0 0-42.666667 42.666667v298.666667a42.666667 42.666667 0 0 0 42.666667 42.666666 42.666667 42.666667 0 0 0 42.666667-42.666666v-298.666667a42.666667 42.666667 0 0 0-42.666667-42.666667z" fill="#000000" p-id="47150478"/><path d="M384 42.666667a42.666667 42.666667 0 0 0-39.936 27.648C279.552 242.474667 256 334.208 256 426.666667c0 140.885333 115.114667 256 256 256s256-115.114667 256-256c0-92.458667-23.552-184.192-88.064-356.352A42.666667 42.666667 0 0 0 640 42.666667z m30.72 85.333333h194.56C662.613333 273.962667 682.666667 353.92 682.666667 426.666667c0 94.762667-75.904 170.666667-170.666667 170.666666s-170.666667-75.904-170.666667-170.666666c0-72.746667 20.053333-152.704 73.386667-298.666667z" fill="#000000" p-id="47150479"/></svg>