<?xml version="1.0" standalone="no"?><!DOCTYPE svg PUBLIC "-//W3C//DTD SVG 1.1//EN" "http://www.w3.org/Graphics/SVG/1.1/DTD/svg11.dtd"><svg viewBox="0 0 1024 1024" version="1.1" xmlns="http://www.w3.org/2000/svg" width="200" height="200" t="1775110619703" class="icon" p-id="47150479" xmlns:xlink="http://www.w3.org/1999/xlink"><path d="M256 128a42.666667 42.666667 0 0 0-42.666667 42.666667 42.666667 42.666667 0 0 0 42.666667 42.666666h512a42.666667 42.666667 0 0 0 42.666667-42.666666 42.666667 42.666667 0 0 0-42.666667-42.666667zM737.834667 311.168l-512 512a42.666667 42.666667 0 0 0 0 60.330667 42.666667 42.666667 0 0 0 60.330666 0l512-512a42.666667 42.666667 0 0 0 0-60.330667 42.666667 42.666667 0 0 0-60.330666 0z" fill="#000000" p-id="47150480"/><path d="M256 298.666667a42.666667 42.666667 0 0 0-30.165333 12.501333 42.666667 42.666667 0 0 0 0 60.330667l512 512a42.666667 42.666667 0 0 0 60.330666 0 42.666667 42.666667 0 0 0 0-60.330667l-512-512A42.666667 42.666667 0 0 0 256 298.666667z" fill="#000000" p-id="47150481"/></svg>